<?xml version="1.0" encoding="UTF-8" standalone="no"?>
<!DOCTYPE svg PUBLIC "-//W3C//DTD SVG 1.1//EN"
 "http://www.w3.org/Graphics/SVG/1.1/DTD/svg11.dtd">
<!-- Generated by graphviz version 2.43.0 (0)
 -->
<!-- Title: PlayerRaceConceptMap Pages: 1 -->
<svg width="1973pt" height="968pt"
 viewBox="0.00 0.00 1973.40 968.40" xmlns="http://www.w3.org/2000/svg" xmlns:xlink="http://www.w3.org/1999/xlink">
<g id="graph0" class="graph" transform="scale(1 1) rotate(0) translate(25.2 943.2)">
<title>PlayerRaceConceptMap</title>
<polygon fill="#ffffff" stroke="transparent" points="-25.2,25.2 -25.2,-943.2 1948.2,-943.2 1948.2,25.2 -25.2,25.2"/>
<text text-anchor="middle" x="265.5" y="-899.6" font-family="Arial" font-size="18.00">Coach, race choice, and performance — conceptual map</text>
<text text-anchor="middle" x="265.5" y="-879.6" font-family="Arial" font-size="18.00">Informal discussion canvas; broader than the implemented model</text>
<g id="clust1" class="cluster">
<title>cluster_context</title>
<path fill="#fff8e3" stroke="#d7ae4c" d="M486,-8C486,-8 1080,-8 1080,-8 1086,-8 1092,-14 1092,-20 1092,-20 1092,-278 1092,-278 1092,-284 1086,-290 1080,-290 1080,-290 486,-290 486,-290 480,-290 474,-284 474,-278 474,-278 474,-20 474,-20 474,-14 480,-8 486,-8"/>
<text text-anchor="middle" x="580.5" y="-277.2" font-family="Arial" font-size="11.00" fill="#6d4b00">PACK, RACE, AND SOCIAL CONTEXT</text>
</g>
<g id="clust2" class="cluster">
<title>cluster_traits</title>
<path fill="#f7f1ff" stroke="#9673ca" d="M20,-668C20,-668 849.5,-668 849.5,-668 855.5,-668 861.5,-674 861.5,-680 861.5,-680 861.5,-850 861.5,-850 861.5,-856 855.5,-862 849.5,-862 849.5,-862 20,-862 20,-862 14,-862 8,-856 8,-850 8,-850 8,-680 8,-680 8,-674 14,-668 20,-668"/>
<text text-anchor="middle" x="162.5" y="-849.2" font-family="Arial" font-size="11.00" fill="#56338e">RELATIVELY PERSISTENT COACH CHARACTERISTICS</text>
</g>
<g id="clust3" class="cluster">
<title>cluster_state</title>
<path fill="#eff7ff" stroke="#6096c8" d="M257,-405C257,-405 1127,-405 1127,-405 1133,-405 1139,-411 1139,-417 1139,-417 1139,-648 1139,-648 1139,-654 1133,-660 1127,-660 1127,-660 257,-660 257,-660 251,-660 245,-654 245,-648 245,-648 245,-417 245,-417 245,-411 251,-405 257,-405"/>
<text text-anchor="middle" x="372" y="-647.2" font-family="Arial" font-size="11.00" fill="#235d93">LATENT COACH STATE BEFORE THE EVENT</text>
</g>
<g id="clust4" class="cluster">
<title>cluster_current</title>
<path fill="#fff3f5" stroke="#c76a7e" d="M982.5,-298C982.5,-298 1684,-298 1684,-298 1690,-298 1696,-304 1696,-310 1696,-310 1696,-385 1696,-385 1696,-391 1690,-397 1684,-397 1684,-397 982.5,-397 982.5,-397 976.5,-397 970.5,-391 970.5,-385 970.5,-385 970.5,-310 970.5,-310 970.5,-304 976.5,-298 982.5,-298"/>
<text text-anchor="middle" x="1030" y="-384.2" font-family="Arial" font-size="11.00" fill="#8d2940">CURRENT EVENT t</text>
</g>
<!-- pack -->
<g id="node1" class="node">
<title>pack</title>
<path fill="#fff1c9" stroke="#9b6a00" stroke-width="1.2" d="M858,-52C858,-52 740,-52 740,-52 734,-52 728,-46 728,-40 728,-40 728,-28 728,-28 728,-22 734,-16 740,-16 740,-16 858,-16 858,-16 864,-16 870,-22 870,-28 870,-28 870,-40 870,-40 870,-46 864,-52 858,-52"/>
<text text-anchor="middle" x="799" y="-37" font-family="Arial" font-size="10.00">Pack treatment</text>
<text text-anchor="middle" x="799" y="-26" font-family="Arial" font-size="10.00">resources · legality · scoring</text>
</g>
<!-- favorability -->
<g id="node7" class="node">
<title>favorability</title>
<path fill="#fff1c9" stroke="#9b6a00" stroke-width="1.2" d="M1072,-208C1072,-208 983,-208 983,-208 977,-208 971,-202 971,-196 971,-196 971,-184 971,-184 971,-178 977,-172 983,-172 983,-172 1072,-172 1072,-172 1078,-172 1084,-178 1084,-184 1084,-184 1084,-196 1084,-196 1084,-202 1078,-208 1072,-208"/>
<text text-anchor="middle" x="1027.5" y="-193" font-family="Arial" font-size="10.00">Perceived pack / field</text>
<text text-anchor="middle" x="1027.5" y="-182" font-family="Arial" font-size="10.00">favorability</text>
</g>
<!-- pack&#45;&gt;favorability -->
<g id="edge4" class="edge">
<title>pack&#45;&gt;favorability</title>
<path fill="none" stroke="#66717c" stroke-width="1.1" d="M840.72,-52.03C856.12,-58.85 870,-65 870,-65 870,-65 951.73,-130.28 997.07,-166.49"/>
<polygon fill="#66717c" stroke="#66717c" stroke-width="1.1" points="995.25,-168.84 1003.74,-171.82 998.96,-164.19 995.25,-168.84"/>
</g>
<!-- build -->
<g id="node25" class="node">
<title>build</title>
<path fill="#ffe0e6" stroke="#9d3850" stroke-width="1.2" d="M1388,-369C1388,-369 1327,-369 1327,-369 1321,-369 1315,-363 1315,-357 1315,-357 1315,-345 1315,-345 1315,-339 1321,-333 1327,-333 1327,-333 1388,-333 1388,-333 1394,-333 1400,-339 1400,-345 1400,-345 1400,-357 1400,-357 1400,-363 1394,-369 1388,-369"/>
<text text-anchor="middle" x="1357.5" y="-354" font-family="Arial" font-size="10.00">Realised roster</text>
<text text-anchor="middle" x="1357.5" y="-343" font-family="Arial" font-size="10.00">and build</text>
</g>
<!-- pack&#45;&gt;build -->
<g id="edge5" class="edge">
<title>pack&#45;&gt;build</title>
<path fill="none" stroke="#66717c" stroke-width="1.1" d="M870.24,-50.37C969.54,-73.51 1139,-113 1139,-113 1139,-113 1277.95,-265.04 1333.73,-326.08"/>
<polygon fill="#66717c" stroke="#66717c" stroke-width="1.1" points="1331.86,-328.45 1339.79,-332.72 1336.26,-324.44 1331.86,-328.45"/>
</g>
<!-- performance -->
<g id="node27" class="node">
<title>performance</title>
<path fill="#ffe0e6" stroke="#9d3850" stroke-width="2" d="M1518,-369C1518,-369 1466,-369 1466,-369 1460,-369 1454,-363 1454,-357 1454,-357 1454,-345 1454,-345 1454,-339 1460,-333 1466,-333 1466,-333 1518,-333 1518,-333 1524,-333 1530,-339 1530,-345 1530,-345 1530,-357 1530,-357 1530,-363 1524,-369 1518,-369"/>
<text text-anchor="middle" x="1492" y="-354" font-family="Arial" font-size="10.00">Latent match</text>
<text text-anchor="middle" x="1492" y="-343" font-family="Arial" font-size="10.00">performance</text>
</g>
<!-- pack&#45;&gt;performance -->
<g id="edge6" class="edge">
<title>pack&#45;&gt;performance</title>
<path fill="none" stroke="#66717c" stroke-width="1.1" d="M870.24,-50.37C969.54,-73.51 1139,-113 1139,-113 1139,-113 1369,-268.51 1457.16,-328.12"/>
<polygon fill="#66717c" stroke="#66717c" stroke-width="1.1" points="1455.55,-330.62 1464.25,-332.92 1458.88,-325.69 1455.55,-330.62"/>
</g>
<!-- race -->
<g id="node2" class="node">
<title>race</title>
<path fill="#fff1c9" stroke="#9b6a00" stroke-width="1.2" d="M662,-262C662,-262 494,-262 494,-262 488,-262 482,-256 482,-250 482,-250 482,-238 482,-238 482,-232 488,-226 494,-226 494,-226 662,-226 662,-226 668,-226 674,-232 674,-238 674,-238 674,-250 674,-250 674,-256 668,-262 662,-262"/>
<text text-anchor="middle" x="578" y="-247" font-family="Arial" font-size="10.00">Race style geometry</text>
<text text-anchor="middle" x="578" y="-236" font-family="Arial" font-size="10.00">Bash · Ag · Stunty / unusual mechanics</text>
</g>
<!-- difficulty -->
<g id="node3" class="node">
<title>difficulty</title>
<path fill="#fff1c9" stroke="#9b6a00" stroke-width="1.2" d="M836.5,-262C836.5,-262 761.5,-262 761.5,-262 755.5,-262 749.5,-256 749.5,-250 749.5,-250 749.5,-238 749.5,-238 749.5,-232 755.5,-226 761.5,-226 761.5,-226 836.5,-226 836.5,-226 842.5,-226 848.5,-232 848.5,-238 848.5,-238 848.5,-250 848.5,-250 848.5,-256 842.5,-262 836.5,-262"/>
<text text-anchor="middle" x="799" y="-247" font-family="Arial" font-size="10.00">Entry and mastery</text>
<text text-anchor="middle" x="799" y="-236" font-family="Arial" font-size="10.00">difficulty</text>
</g>
<!-- race&#45;&gt;difficulty -->
<g id="edge1" class="edge">
<title>race&#45;&gt;difficulty</title>
<path fill="none" stroke="#66717c" stroke-width="1.1" d="M674.1,-244C696.83,-244 720.4,-244 740.8,-244"/>
<polygon fill="#66717c" stroke="#66717c" stroke-width="1.1" points="740.84,-246.98 749.34,-244 740.84,-241.03 740.84,-246.98"/>
</g>
<!-- style_experience -->
<g id="node19" class="node">
<title>style_experience</title>
<path fill="#dcecff" stroke="#2867a3" stroke-width="1.2" d="M835.5,-510C835.5,-510 762.5,-510 762.5,-510 756.5,-510 750.5,-504 750.5,-498 750.5,-498 750.5,-486 750.5,-486 750.5,-480 756.5,-474 762.5,-474 762.5,-474 835.5,-474 835.5,-474 841.5,-474 847.5,-480 847.5,-486 847.5,-486 847.5,-498 847.5,-498 847.5,-504 841.5,-510 835.5,-510"/>
<text text-anchor="middle" x="799" y="-495" font-family="Arial" font-size="10.00">Transferable style</text>
<text text-anchor="middle" x="799" y="-484" font-family="Arial" font-size="10.00">experience</text>
</g>
<!-- race&#45;&gt;style_experience -->
<g id="edge2" class="edge">
<title>race&#45;&gt;style_experience</title>
<path fill="none" stroke="#66717c" stroke-width="1.1" d="M591.45,-262.21C627.26,-314.61 728,-462 728,-462 728,-462 736.53,-465.66 747.64,-470.42"/>
<polygon fill="#66717c" stroke="#66717c" stroke-width="1.1" points="746.68,-473.24 755.67,-473.86 749.03,-467.77 746.68,-473.24"/>
</g>
<!-- pairing -->
<g id="node26" class="node">
<title>pairing</title>
<path fill="#ffe0e6" stroke="#9d3850" stroke-width="1.2" d="M1064.5,-342C1064.5,-342 990.5,-342 990.5,-342 984.5,-342 978.5,-336 978.5,-330 978.5,-330 978.5,-318 978.5,-318 978.5,-312 984.5,-306 990.5,-306 990.5,-306 1064.5,-306 1064.5,-306 1070.5,-306 1076.5,-312 1076.5,-318 1076.5,-318 1076.5,-330 1076.5,-330 1076.5,-336 1070.5,-342 1064.5,-342"/>
<text text-anchor="middle" x="1027.5" y="-327" font-family="Arial" font-size="10.00">Opponent · pairing</text>
<text text-anchor="middle" x="1027.5" y="-316" font-family="Arial" font-size="10.00">and matchup</text>
</g>
<!-- race&#45;&gt;pairing -->
<g id="edge3" class="edge">
<title>race&#45;&gt;pairing</title>
<path fill="none" stroke="#66717c" stroke-width="1.1" d="M665.67,-262.03C698.45,-268.85 728,-275 728,-275 728,-275 883.22,-300.48 969.8,-314.69"/>
<polygon fill="#66717c" stroke="#66717c" stroke-width="1.1" points="969.34,-317.63 978.21,-316.07 970.3,-311.76 969.34,-317.63"/>
</g>
<!-- competence -->
<g id="node20" class="node">
<title>competence</title>
<path fill="#ccecff" stroke="#004f87" stroke-width="3" d="M1119,-525C1119,-525 936,-525 936,-525 930,-525 924,-519 924,-513 924,-513 924,-501 924,-501 924,-495 930,-489 936,-489 936,-489 1119,-489 1119,-489 1125,-489 1131,-495 1131,-501 1131,-501 1131,-513 1131,-513 1131,-519 1125,-525 1119,-525"/>
<text text-anchor="middle" x="1027.5" y="-510.2" font-family="Arial" font-size="11.00">COACH–RACE COMPETENCE</text>
<text text-anchor="middle" x="1027.5" y="-498.2" font-family="Arial" font-size="11.00">personal expected strength on this race</text>
</g>
<!-- difficulty&#45;&gt;competence -->
<g id="edge26" class="edge">
<title>difficulty&#45;&gt;competence</title>
<path fill="none" stroke="#66717c" stroke-width="1.1" d="M814.22,-262.24C846.8,-304 924,-403 924,-403 924,-403 972.18,-451.89 1002.48,-482.62"/>
<polygon fill="#66717c" stroke="#66717c" stroke-width="1.1" points="1000.56,-484.92 1008.65,-488.88 1004.8,-480.74 1000.56,-484.92"/>
</g>
<!-- meta -->
<g id="node4" class="node">
<title>meta</title>
<path fill="#fff1c9" stroke="#9b6a00" stroke-width="1.2" d="M619,-201C619,-201 537,-201 537,-201 531,-201 525,-195 525,-189 525,-189 525,-177 525,-177 525,-171 531,-165 537,-165 537,-165 619,-165 619,-165 625,-165 631,-171 631,-177 631,-177 631,-189 631,-189 631,-195 625,-201 619,-201"/>
<text text-anchor="middle" x="578" y="-186" font-family="Arial" font-size="10.00">Region · community</text>
<text text-anchor="middle" x="578" y="-175" font-family="Arial" font-size="10.00">public meta</text>
</g>
<!-- field -->
<g id="node6" class="node">
<title>field</title>
<path fill="#fff1c9" stroke="#9b6a00" stroke-width="1.2" d="M828,-201C828,-201 770,-201 770,-201 764,-201 758,-195 758,-189 758,-189 758,-177 758,-177 758,-171 764,-165 770,-165 770,-165 828,-165 828,-165 834,-165 840,-171 840,-177 840,-177 840,-189 840,-189 840,-195 834,-201 828,-201"/>
<text text-anchor="middle" x="799" y="-186" font-family="Arial" font-size="10.00">Expected field</text>
<text text-anchor="middle" x="799" y="-175" font-family="Arial" font-size="10.00">and opponents</text>
</g>
<!-- meta&#45;&gt;field -->
<g id="edge8" class="edge">
<title>meta&#45;&gt;field</title>
<path fill="none" stroke="#66717c" stroke-width="1.1" d="M631.18,-183C666.98,-183 714.18,-183 749.23,-183"/>
<polygon fill="#66717c" stroke="#66717c" stroke-width="1.1" points="749.36,-185.98 757.86,-183 749.36,-180.03 749.36,-185.98"/>
</g>
<!-- meta&#45;&gt;favorability -->
<g id="edge7" class="edge">
<title>meta&#45;&gt;favorability</title>
<path fill="none" stroke="#66717c" stroke-width="1.1" d="M631.11,-172.51C674.08,-163.86 728,-153 728,-153 728,-153 870,-153 870,-153 870,-153 919.34,-164.66 962.61,-174.89"/>
<polygon fill="#66717c" stroke="#66717c" stroke-width="1.1" points="961.93,-177.79 970.88,-176.85 963.3,-172 961.93,-177.79"/>
</g>
<!-- access -->
<g id="node21" class="node">
<title>access</title>
<path fill="#dcecff" stroke="#2867a3" stroke-width="1.2" d="M843.5,-449C843.5,-449 754.5,-449 754.5,-449 748.5,-449 742.5,-443 742.5,-437 742.5,-437 742.5,-425 742.5,-425 742.5,-419 748.5,-413 754.5,-413 754.5,-413 843.5,-413 843.5,-413 849.5,-413 855.5,-419 855.5,-425 855.5,-425 855.5,-437 855.5,-437 855.5,-443 849.5,-449 843.5,-449"/>
<text text-anchor="middle" x="799" y="-428.5" font-family="Arial" font-size="10.00">Practical race access</text>
</g>
<!-- meta&#45;&gt;access -->
<g id="edge9" class="edge">
<title>meta&#45;&gt;access</title>
<path fill="none" stroke="#66717c" stroke-width="1.1" d="M631.22,-200.04C653.3,-207.25 674,-214 674,-214 674,-214 750.48,-347.83 783.31,-405.29"/>
<polygon fill="#66717c" stroke="#66717c" stroke-width="1.1" points="780.84,-406.97 787.64,-412.87 786.01,-404.02 780.84,-406.97"/>
</g>
<!-- format -->
<g id="node5" class="node">
<title>format</title>
<path fill="#fff1c9" stroke="#9b6a00" stroke-width="1.2" d="M827,-113C827,-113 771,-113 771,-113 765,-113 759,-107 759,-101 759,-101 759,-89 759,-89 759,-83 765,-77 771,-77 771,-77 827,-77 827,-77 833,-77 839,-83 839,-89 839,-89 839,-101 839,-101 839,-107 833,-113 827,-113"/>
<text text-anchor="middle" x="799" y="-98" font-family="Arial" font-size="10.00">Event format</text>
<text text-anchor="middle" x="799" y="-87" font-family="Arial" font-size="10.00">open or squad</text>
</g>
<!-- choice -->
<g id="node24" class="node">
<title>choice</title>
<path fill="#ffe0e6" stroke="#9d3850" stroke-width="2" d="M1249,-369C1249,-369 1197,-369 1197,-369 1191,-369 1185,-363 1185,-357 1185,-357 1185,-345 1185,-345 1185,-339 1191,-333 1197,-333 1197,-333 1249,-333 1249,-333 1255,-333 1261,-339 1261,-345 1261,-345 1261,-357 1261,-357 1261,-363 1255,-369 1249,-369"/>
<text text-anchor="middle" x="1223" y="-354" font-family="Arial" font-size="10.00">Race chosen</text>
<text text-anchor="middle" x="1223" y="-343" font-family="Arial" font-size="10.00">or assigned</text>
</g>
<!-- format&#45;&gt;choice -->
<g id="edge10" class="edge">
<title>format&#45;&gt;choice:s</title>
<path fill="none" stroke="#a34259" stroke-width="1.1" d="M839.22,-102.52C928.45,-119.63 1139,-160 1139,-160 1139,-160 1202.74,-290.51 1219.17,-324.16"/>
<polygon fill="#a34259" stroke="#a34259" stroke-width="1.1" points="1216.6,-325.67 1223,-332 1221.94,-323.06 1216.6,-325.67"/>
</g>
<!-- format&#45;&gt;pairing -->
<g id="edge11" class="edge">
<title>format&#45;&gt;pairing</title>
<path fill="none" stroke="#66717c" stroke-width="1.1" d="M821.76,-113.03C842.31,-130.06 870,-153 870,-153 870,-153 924,-296 924,-296 924,-296 946.14,-302.05 969.84,-308.52"/>
<polygon fill="#66717c" stroke="#66717c" stroke-width="1.1" points="969.27,-311.45 978.25,-310.82 970.84,-305.71 969.27,-311.45"/>
</g>
<!-- field&#45;&gt;favorability -->
<g id="edge12" class="edge">
<title>field&#45;&gt;favorability</title>
<path fill="none" stroke="#66717c" stroke-width="1.1" d="M840.23,-184.24C874.03,-185.29 922.96,-186.8 962.19,-188.01"/>
<polygon fill="#66717c" stroke="#66717c" stroke-width="1.1" points="962.33,-190.99 970.91,-188.28 962.51,-185.05 962.33,-190.99"/>
</g>
<!-- field&#45;&gt;pairing -->
<g id="edge13" class="edge">
<title>field&#45;&gt;pairing</title>
<path fill="none" stroke="#66717c" stroke-width="1.1" d="M840.31,-200.85C855.87,-207.74 870,-214 870,-214 870,-214 924,-296 924,-296 924,-296 946.14,-302.05 969.84,-308.52"/>
<polygon fill="#66717c" stroke="#66717c" stroke-width="1.1" points="969.27,-311.45 978.25,-310.82 970.84,-305.71 969.27,-311.45"/>
</g>
<!-- favorability&#45;&gt;choice -->
<g id="edge33" class="edge">
<title>favorability&#45;&gt;choice:s</title>
<path fill="none" stroke="#a34259" stroke-width="1.1" d="M1053.53,-208.27C1098.26,-240.93 1189.7,-307.69 1215.86,-326.79"/>
<polygon fill="#a34259" stroke="#a34259" stroke-width="1.1" points="1214.38,-329.39 1223,-332 1217.89,-324.59 1214.38,-329.39"/>
</g>
<!-- talent -->
<g id="node8" class="node">
<title>talent</title>
<path fill="#eadfff" stroke="#6842a6" stroke-width="1.2" d="M187,-834C187,-834 28,-834 28,-834 22,-834 16,-828 16,-822 16,-822 16,-810 16,-810 16,-804 22,-798 28,-798 28,-798 187,-798 187,-798 193,-798 199,-804 199,-810 199,-810 199,-822 199,-822 199,-828 193,-834 187,-834"/>
<text text-anchor="middle" x="107.5" y="-819" font-family="Arial" font-size="10.00">General game talent</text>
<text text-anchor="middle" x="107.5" y="-808" font-family="Arial" font-size="10.00">planning · calculation · risk judgement</text>
</g>
<!-- general_ability -->
<g id="node15" class="node">
<title>general_ability</title>
<path fill="#dcecff" stroke="#2867a3" stroke-width="1.2" d="M371,-632C371,-632 310,-632 310,-632 304,-632 298,-626 298,-620 298,-620 298,-608 298,-608 298,-602 304,-596 310,-596 310,-596 371,-596 371,-596 377,-596 383,-602 383,-608 383,-608 383,-620 383,-620 383,-626 377,-632 371,-632"/>
<text text-anchor="middle" x="340.5" y="-617" font-family="Arial" font-size="10.00">Current general</text>
<text text-anchor="middle" x="340.5" y="-606" font-family="Arial" font-size="10.00">ability</text>
</g>
<!-- talent&#45;&gt;general_ability -->
<g id="edge14" class="edge">
<title>talent&#45;&gt;general_ability</title>
<path fill="none" stroke="#66717c" stroke-width="1.1" d="M162.97,-797.94C182.14,-791.59 199,-786 199,-786 199,-786 280.45,-686.29 319.32,-638.71"/>
<polygon fill="#66717c" stroke="#66717c" stroke-width="1.1" points="321.66,-640.55 324.73,-632.08 317.05,-636.78 321.66,-640.55"/>
</g>
<!-- style_aptitude -->
<g id="node9" class="node">
<title>style_aptitude</title>
<path fill="#eadfff" stroke="#6842a6" stroke-width="1.2" d="M826,-773C826,-773 772,-773 772,-773 766,-773 760,-767 760,-761 760,-761 760,-749 760,-749 760,-743 766,-737 772,-737 772,-737 826,-737 826,-737 832,-737 838,-743 838,-749 838,-749 838,-761 838,-761 838,-767 832,-773 826,-773"/>
<text text-anchor="middle" x="799" y="-758" font-family="Arial" font-size="10.00">Style&#45;specific</text>
<text text-anchor="middle" x="799" y="-747" font-family="Arial" font-size="10.00">aptitude</text>
</g>
<!-- style_aptitude&#45;&gt;competence -->
<g id="edge15" class="edge">
<title>style_aptitude&#45;&gt;competence</title>
<path fill="none" stroke="#66717c" stroke-width="1.1" d="M838.28,-738.6C854.62,-731.59 870,-725 870,-725 870,-725 924,-568 924,-568 924,-568 959.23,-547.03 988.38,-529.68"/>
<polygon fill="#66717c" stroke="#66717c" stroke-width="1.1" points="990.24,-532.04 996.02,-525.14 987.2,-526.93 990.24,-532.04"/>
</g>
<!-- learning -->
<g id="node10" class="node">
<title>learning</title>
<path fill="#eadfff" stroke="#6842a6" stroke-width="1.2" d="M834.5,-712C834.5,-712 763.5,-712 763.5,-712 757.5,-712 751.5,-706 751.5,-700 751.5,-700 751.5,-688 751.5,-688 751.5,-682 757.5,-676 763.5,-676 763.5,-676 834.5,-676 834.5,-676 840.5,-676 846.5,-682 846.5,-688 846.5,-688 846.5,-700 846.5,-700 846.5,-706 840.5,-712 834.5,-712"/>
<text text-anchor="middle" x="799" y="-697" font-family="Arial" font-size="10.00">Learning capacity</text>
<text text-anchor="middle" x="799" y="-686" font-family="Arial" font-size="10.00">and ceiling</text>
</g>
<!-- learning&#45;&gt;competence -->
<g id="edge16" class="edge">
<title>learning&#45;&gt;competence</title>
<path fill="none" stroke="#66717c" stroke-width="1.1" d="M845.12,-675.95C858.67,-670.53 870,-666 870,-666 870,-666 924,-568 924,-568 924,-568 959.23,-547.03 988.38,-529.68"/>
<polygon fill="#66717c" stroke="#66717c" stroke-width="1.1" points="990.24,-532.04 996.02,-525.14 987.2,-526.93 990.24,-532.04"/>
</g>
<!-- investment -->
<g id="node11" class="node">
<title>investment</title>
<path fill="#eadfff" stroke="#6842a6" stroke-width="1.2" d="M173.5,-773C173.5,-773 41.5,-773 41.5,-773 35.5,-773 29.5,-767 29.5,-761 29.5,-761 29.5,-749 29.5,-749 29.5,-743 35.5,-737 41.5,-737 41.5,-737 173.5,-737 173.5,-737 179.5,-737 185.5,-743 185.5,-749 185.5,-749 185.5,-761 185.5,-761 185.5,-767 179.5,-773 173.5,-773"/>
<text text-anchor="middle" x="107.5" y="-758" font-family="Arial" font-size="10.00">Competitive investment</text>
<text text-anchor="middle" x="107.5" y="-747" font-family="Arial" font-size="10.00">time · preparation · optimisation</text>
</g>
<!-- investment&#45;&gt;general_ability -->
<g id="edge17" class="edge">
<title>investment&#45;&gt;general_ability</title>
<path fill="none" stroke="#66717c" stroke-width="1.1" d="M162.97,-736.94C182.14,-730.59 199,-725 199,-725 199,-725 268.52,-670.07 309.76,-637.5"/>
<polygon fill="#66717c" stroke="#66717c" stroke-width="1.1" points="311.79,-639.68 316.61,-632.08 308.1,-635.02 311.79,-639.68"/>
</g>
<!-- hidden_experience -->
<g id="node16" class="node">
<title>hidden_experience</title>
<path fill="#dcecff" stroke="#2867a3" stroke-width="1.2" d="M416,-571C416,-571 265,-571 265,-571 259,-571 253,-565 253,-559 253,-559 253,-547 253,-547 253,-541 259,-535 265,-535 265,-535 416,-535 416,-535 422,-535 428,-541 428,-547 428,-547 428,-559 428,-559 428,-565 422,-571 416,-571"/>
<text text-anchor="middle" x="340.5" y="-556" font-family="Arial" font-size="10.00">Hidden experience</text>
<text text-anchor="middle" x="340.5" y="-545" font-family="Arial" font-size="10.00">league · online · casual · earlier play</text>
</g>
<!-- investment&#45;&gt;hidden_experience -->
<g id="edge18" class="edge">
<title>investment&#45;&gt;hidden_experience</title>
<path fill="none" stroke="#66717c" stroke-width="1.1" d="M162.97,-736.94C182.14,-730.59 199,-725 199,-725 199,-725 245,-584 245,-584 245,-584 259.09,-579.38 276.39,-573.7"/>
<polygon fill="#66717c" stroke="#66717c" stroke-width="1.1" points="277.38,-576.51 284.53,-571.03 275.53,-570.86 277.38,-576.51"/>
</g>
<!-- adaptation -->
<g id="node23" class="node">
<title>adaptation</title>
<path fill="#dcecff" stroke="#2867a3" stroke-width="1.2" d="M402.5,-449C402.5,-449 278.5,-449 278.5,-449 272.5,-449 266.5,-443 266.5,-437 266.5,-437 266.5,-425 266.5,-425 266.5,-419 272.5,-413 278.5,-413 278.5,-413 402.5,-413 402.5,-413 408.5,-413 414.5,-419 414.5,-425 414.5,-425 414.5,-437 414.5,-437 414.5,-443 408.5,-449 402.5,-449"/>
<text text-anchor="middle" x="340.5" y="-434" font-family="Arial" font-size="10.00">Competitive adaptation</text>
<text text-anchor="middle" x="340.5" y="-423" font-family="Arial" font-size="10.00">response to an available edge</text>
</g>
<!-- investment&#45;&gt;adaptation -->
<g id="edge19" class="edge">
<title>investment&#45;&gt;adaptation</title>
<path fill="none" stroke="#66717c" stroke-width="1.1" d="M162.97,-736.94C182.14,-730.59 199,-725 199,-725 199,-725 245,-462 245,-462 245,-462 259.09,-457.38 276.39,-451.7"/>
<polygon fill="#66717c" stroke="#66717c" stroke-width="1.1" points="277.38,-454.51 284.53,-449.03 275.53,-448.86 277.38,-454.51"/>
</g>
<!-- preference -->
<g id="node12" class="node">
<title>preference</title>
<path fill="#eadfff" stroke="#6842a6" stroke-width="1.2" d="M841.5,-834C841.5,-834 756.5,-834 756.5,-834 750.5,-834 744.5,-828 744.5,-822 744.5,-822 744.5,-810 744.5,-810 744.5,-804 750.5,-798 756.5,-798 756.5,-798 841.5,-798 841.5,-798 847.5,-798 853.5,-804 853.5,-810 853.5,-810 853.5,-822 853.5,-822 853.5,-828 847.5,-834 841.5,-834"/>
<text text-anchor="middle" x="799" y="-819" font-family="Arial" font-size="10.00">Style and exact&#45;race</text>
<text text-anchor="middle" x="799" y="-808" font-family="Arial" font-size="10.00">preference</text>
</g>
<!-- loyalty -->
<g id="node22" class="node">
<title>loyalty</title>
<path fill="#dcecff" stroke="#2867a3" stroke-width="1.2" d="M1058.5,-616C1058.5,-616 996.5,-616 996.5,-616 990.5,-616 984.5,-610 984.5,-604 984.5,-604 984.5,-592 984.5,-592 984.5,-586 990.5,-580 996.5,-580 996.5,-580 1058.5,-580 1058.5,-580 1064.5,-580 1070.5,-586 1070.5,-592 1070.5,-592 1070.5,-604 1070.5,-604 1070.5,-610 1064.5,-616 1058.5,-616"/>
<text text-anchor="middle" x="1027.5" y="-601" font-family="Arial" font-size="10.00">Current loyalty</text>
<text text-anchor="middle" x="1027.5" y="-590" font-family="Arial" font-size="10.00">and attachment</text>
</g>
<!-- preference&#45;&gt;loyalty -->
<g id="edge27" class="edge">
<title>preference&#45;&gt;loyalty</title>
<path fill="none" stroke="#66717c" stroke-width="1.1" d="M842.33,-797.86C857.08,-791.54 870,-786 870,-786 870,-786 963.34,-673.88 1005.85,-622.81"/>
<polygon fill="#66717c" stroke="#66717c" stroke-width="1.1" points="1008.34,-624.46 1011.49,-616.03 1003.77,-620.66 1008.34,-624.46"/>
</g>
<!-- exploration -->
<g id="node13" class="node">
<title>exploration</title>
<path fill="#eadfff" stroke="#6842a6" stroke-width="1.2" d="M154.5,-712C154.5,-712 60.5,-712 60.5,-712 54.5,-712 48.5,-706 48.5,-700 48.5,-700 48.5,-688 48.5,-688 48.5,-682 54.5,-676 60.5,-676 60.5,-676 154.5,-676 154.5,-676 160.5,-676 166.5,-682 166.5,-688 166.5,-688 166.5,-700 166.5,-700 166.5,-706 160.5,-712 154.5,-712"/>
<text text-anchor="middle" x="107.5" y="-697" font-family="Arial" font-size="10.00">Exploration / switching</text>
<text text-anchor="middle" x="107.5" y="-686" font-family="Arial" font-size="10.00">disposition</text>
</g>
<!-- exploration&#45;&gt;adaptation -->
<g id="edge28" class="edge">
<title>exploration&#45;&gt;adaptation</title>
<path fill="none" stroke="#66717c" stroke-width="1.1" d="M119.21,-675.8C151.39,-621.1 245,-462 245,-462 245,-462 259.09,-457.38 276.39,-451.7"/>
<polygon fill="#66717c" stroke="#66717c" stroke-width="1.1" points="277.38,-454.51 284.53,-449.03 275.53,-448.86 277.38,-454.51"/>
</g>
<!-- resources -->
<g id="node14" class="node">
<title>resources</title>
<path fill="#eadfff" stroke="#6842a6" stroke-width="1.2" d="M655,-712C655,-712 501,-712 501,-712 495,-712 489,-706 489,-700 489,-700 489,-688 489,-688 489,-682 495,-676 501,-676 501,-676 655,-676 655,-676 661,-676 667,-682 667,-688 667,-688 667,-700 667,-700 667,-706 661,-712 655,-712"/>
<text text-anchor="middle" x="578" y="-697" font-family="Arial" font-size="10.00">Material and social resources</text>
<text text-anchor="middle" x="578" y="-686" font-family="Arial" font-size="10.00">money · storage · friends · borrowing</text>
</g>
<!-- resources&#45;&gt;access -->
<g id="edge29" class="edge">
<title>resources&#45;&gt;access</title>
<path fill="none" stroke="#66717c" stroke-width="1.1" d="M640.24,-675.95C658.62,-670.53 674,-666 674,-666 674,-666 728,-462 728,-462 728,-462 737.34,-457.86 749.2,-452.61"/>
<polygon fill="#66717c" stroke="#66717c" stroke-width="1.1" points="750.71,-455.19 757.28,-449.03 748.3,-449.75 750.71,-455.19"/>
</g>
<!-- general_ability&#45;&gt;competence -->
<g id="edge25" class="edge">
<title>general_ability&#45;&gt;competence</title>
<path fill="none" stroke="#66717c" stroke-width="1.1" d="M383.06,-607.51C486.83,-591.3 760.04,-548.62 915.03,-524.41"/>
<polygon fill="#66717c" stroke="#66717c" stroke-width="1.1" points="915.75,-527.31 923.69,-523.06 914.83,-521.43 915.75,-527.31"/>
</g>
<!-- total_experience -->
<g id="node18" class="node">
<title>total_experience</title>
<path fill="#dcecff" stroke="#2867a3" stroke-width="1.2" d="M615,-532C615,-532 541,-532 541,-532 535,-532 529,-526 529,-520 529,-520 529,-508 529,-508 529,-502 535,-496 541,-496 541,-496 615,-496 615,-496 621,-496 627,-502 627,-508 627,-508 627,-520 627,-520 627,-526 621,-532 615,-532"/>
<text text-anchor="middle" x="578" y="-517" font-family="Arial" font-size="10.00">Total race&#45;specific</text>
<text text-anchor="middle" x="578" y="-506" font-family="Arial" font-size="10.00">experience</text>
</g>
<!-- hidden_experience&#45;&gt;total_experience -->
<g id="edge20" class="edge">
<title>hidden_experience&#45;&gt;total_experience</title>
<path fill="none" stroke="#66717c" stroke-width="1.1" d="M428.19,-538.64C458.84,-533.57 492.51,-527.99 520.07,-523.43"/>
<polygon fill="#66717c" stroke="#66717c" stroke-width="1.1" points="520.88,-526.31 528.78,-521.98 519.91,-520.44 520.88,-526.31"/>
</g>
<!-- naf_play -->
<g id="node17" class="node">
<title>naf_play</title>
<path fill="#dcecff" stroke="#2867a3" stroke-width="1.2" d="M372.5,-510C372.5,-510 308.5,-510 308.5,-510 302.5,-510 296.5,-504 296.5,-498 296.5,-498 296.5,-486 296.5,-486 296.5,-480 302.5,-474 308.5,-474 308.5,-474 372.5,-474 372.5,-474 378.5,-474 384.5,-480 384.5,-486 384.5,-486 384.5,-498 384.5,-498 384.5,-504 378.5,-510 372.5,-510"/>
<text text-anchor="middle" x="340.5" y="-495" font-family="Arial" font-size="10.00">Prior NAF</text>
<text text-anchor="middle" x="340.5" y="-484" font-family="Arial" font-size="10.00">tournament play</text>
</g>
<!-- naf_play&#45;&gt;total_experience -->
<g id="edge21" class="edge">
<title>naf_play&#45;&gt;total_experience</title>
<path fill="none" stroke="#66717c" stroke-width="1.1" d="M384.69,-496.04C422.75,-499.59 478.46,-504.79 520.14,-508.69"/>
<polygon fill="#66717c" stroke="#66717c" stroke-width="1.1" points="520.07,-511.67 528.81,-509.5 520.62,-505.74 520.07,-511.67"/>
</g>
<!-- total_experience&#45;&gt;style_experience -->
<g id="edge23" class="edge">
<title>total_experience&#45;&gt;style_experience</title>
<path fill="none" stroke="#66717c" stroke-width="1.1" d="M627.06,-509.17C660.84,-505.78 706.15,-501.23 741.63,-497.66"/>
<polygon fill="#66717c" stroke="#66717c" stroke-width="1.1" points="742.27,-500.59 750.43,-496.78 741.67,-494.67 742.27,-500.59"/>
</g>
<!-- total_experience&#45;&gt;competence -->
<g id="edge22" class="edge">
<title>total_experience&#45;&gt;competence</title>
<path fill="none" stroke="#66717c" stroke-width="1.1" d="M627.38,-516.92C670.88,-519.55 728,-523 728,-523 728,-523 870,-523 870,-523 870,-523 889.83,-520.97 915.38,-518.36"/>
<polygon fill="#66717c" stroke="#66717c" stroke-width="1.1" points="915.71,-521.32 923.86,-517.49 915.1,-515.4 915.71,-521.32"/>
</g>
<!-- style_experience&#45;&gt;competence -->
<g id="edge24" class="edge">
<title>style_experience&#45;&gt;competence</title>
<path fill="none" stroke="#66717c" stroke-width="1.1" d="M847.76,-495.16C867.52,-496.47 891.35,-498.05 915.06,-499.62"/>
<polygon fill="#66717c" stroke="#66717c" stroke-width="1.1" points="915.11,-502.6 923.79,-500.2 915.5,-496.67 915.11,-502.6"/>
</g>
<!-- competence&#45;&gt;choice -->
<g id="edge34" class="edge">
<title>competence&#45;&gt;choice:w</title>
<path fill="none" stroke="#004f87" stroke-width="2.5" d="M1053.02,-488.8C1085.58,-464.64 1139,-425 1139,-425 1139,-425 1168.79,-377.08 1180.42,-358.37"/>
<polygon fill="#004f87" stroke="#004f87" stroke-width="2.5" points="1183.04,-359.79 1185,-351 1177.99,-356.65 1183.04,-359.79"/>
</g>
<!-- competence&#45;&gt;performance -->
<g id="edge37" class="edge">
<title>competence&#45;&gt;performance:nw</title>
<path fill="none" stroke="#004f87" stroke-width="2.5" d="M1084.13,-488.96C1187.07,-455.57 1400.92,-386.21 1445.68,-371.7"/>
<polygon fill="#004f87" stroke="#004f87" stroke-width="2.5" points="1446.83,-374.45 1454,-369 1445,-368.79 1446.83,-374.45"/>
</g>
<!-- access&#45;&gt;choice -->
<g id="edge30" class="edge">
<title>access&#45;&gt;choice:sw</title>
<path fill="none" stroke="#a34259" stroke-width="1.1" d="M855.6,-418.54C951.77,-396.97 1139,-355 1139,-355 1139,-355 1164.89,-342.88 1178.24,-336.63"/>
<polygon fill="#a34259" stroke="#a34259" stroke-width="1.1" points="1179.56,-339.3 1186,-333 1177.04,-333.91 1179.56,-339.3"/>
</g>
<!-- loyalty&#45;&gt;choice -->
<g id="edge31" class="edge">
<title>loyalty&#45;&gt;choice:n</title>
<path fill="none" stroke="#a34259" stroke-width="1.1" d="M1061.65,-580C1094.2,-562.32 1139,-538 1139,-538 1139,-538 1202.74,-410.52 1219.17,-377.66"/>
<polygon fill="#a34259" stroke="#a34259" stroke-width="1.1" points="1221.86,-378.93 1223,-370 1216.54,-376.27 1221.86,-378.93"/>
</g>
<!-- adaptation&#45;&gt;choice -->
<g id="edge32" class="edge">
<title>adaptation&#45;&gt;choice:nw</title>
<path fill="none" stroke="#a34259" stroke-width="1.1" d="M347.11,-412.84C372.33,-331.19 474,-2 474,-2 474,-2 1139,-2 1139,-2 1139,-2 1176.94,-304.71 1183.91,-360.29"/>
<polygon fill="#a34259" stroke="#a34259" stroke-width="1.1" points="1180.99,-360.94 1185,-369 1186.89,-360.2 1180.99,-360.94"/>
</g>
<!-- choice&#45;&gt;build -->
<g id="edge35" class="edge">
<title>choice:e&#45;&gt;build:w</title>
<path fill="none" stroke="#66717c" stroke-width="1.1" d="M1261,-351C1261,-351 1290.75,-351 1306.08,-351"/>
<polygon fill="#66717c" stroke="#66717c" stroke-width="1.1" points="1306.5,-353.98 1315,-351 1306.5,-348.03 1306.5,-353.98"/>
</g>
<!-- future -->
<g id="node29" class="node">
<title>future</title>
<path fill="#eeeeee" stroke="#666666" stroke-width="1.5" d="M1911,-401.5C1911,-401.5 1754,-401.5 1754,-401.5 1748,-401.5 1742,-395.5 1742,-389.5 1742,-389.5 1742,-368.5 1742,-368.5 1742,-362.5 1748,-356.5 1754,-356.5 1754,-356.5 1911,-356.5 1911,-356.5 1917,-356.5 1923,-362.5 1923,-368.5 1923,-368.5 1923,-389.5 1923,-389.5 1923,-395.5 1917,-401.5 1911,-401.5"/>
<text text-anchor="middle" x="1832.5" y="-387.5" font-family="Arial" font-size="10.00">LATER EVENT t+1</text>
<text text-anchor="middle" x="1832.5" y="-376.5" font-family="Arial" font-size="10.00">updated experience · access · loyalty</text>
<text text-anchor="middle" x="1832.5" y="-365.5" font-family="Arial" font-size="10.00">beliefs and ability</text>
</g>
<!-- choice&#45;&gt;future -->
<g id="edge40" class="edge">
<title>choice&#45;&gt;future</title>
<path fill="none" stroke="#66717c" stroke-width="1.1" d="M1261.01,-363.61C1286.21,-372.19 1315,-382 1315,-382 1315,-382 1696,-382 1696,-382 1696,-382 1712.11,-381.64 1733.23,-381.18"/>
<polygon fill="#66717c" stroke="#66717c" stroke-width="1.1" points="1733.44,-384.15 1741.87,-380.98 1733.31,-378.2 1733.44,-384.15"/>
</g>
<!-- build&#45;&gt;performance -->
<g id="edge36" class="edge">
<title>build:e&#45;&gt;performance:w</title>
<path fill="none" stroke="#8d4960" stroke-width="1.1" d="M1400,-351C1400,-351 1429.75,-351 1445.08,-351"/>
<polygon fill="#8d4960" stroke="#8d4960" stroke-width="1.1" points="1445.5,-353.98 1454,-351 1445.5,-348.03 1445.5,-353.98"/>
</g>
<!-- pairing&#45;&gt;performance -->
<g id="edge38" class="edge">
<title>pairing&#45;&gt;performance:sw</title>
<path fill="none" stroke="#8d4960" stroke-width="1.1" d="M1076.73,-323.08C1122.72,-322.19 1185,-321 1185,-321 1185,-321 1400,-321 1400,-321 1400,-321 1430.94,-327.75 1446.41,-331.12"/>
<polygon fill="#8d4960" stroke="#8d4960" stroke-width="1.1" points="1446.06,-334.09 1455,-333 1447.33,-328.28 1446.06,-334.09"/>
</g>
<!-- outcome -->
<g id="node28" class="node">
<title>outcome</title>
<path fill="#ffe0e6" stroke="#9d3850" stroke-width="1.2" d="M1676,-369C1676,-369 1596,-369 1596,-369 1590,-369 1584,-363 1584,-357 1584,-357 1584,-345 1584,-345 1584,-339 1590,-333 1596,-333 1596,-333 1676,-333 1676,-333 1682,-333 1688,-339 1688,-345 1688,-345 1688,-357 1688,-357 1688,-363 1682,-369 1676,-369"/>
<text text-anchor="middle" x="1636" y="-354" font-family="Arial" font-size="10.00">Observed W / D / L</text>
<text text-anchor="middle" x="1636" y="-343" font-family="Arial" font-size="10.00">optional TD / CAS</text>
</g>
<!-- performance&#45;&gt;outcome -->
<g id="edge39" class="edge">
<title>performance&#45;&gt;outcome</title>
<path fill="none" stroke="#66717c" stroke-width="1.1" d="M1530.31,-351C1543.98,-351 1559.82,-351 1574.97,-351"/>
<polygon fill="#66717c" stroke="#66717c" stroke-width="1.1" points="1575.29,-353.98 1583.79,-351 1575.29,-348.03 1575.29,-353.98"/>
</g>
<!-- outcome&#45;&gt;future -->
<g id="edge41" class="edge">
<title>outcome&#45;&gt;future</title>
<path fill="none" stroke="#66717c" stroke-width="1.1" d="M1688.1,-358.36C1701.97,-360.35 1717.46,-362.58 1733,-364.82"/>
<polygon fill="#66717c" stroke="#66717c" stroke-width="1.1" points="1732.79,-367.8 1741.62,-366.06 1733.64,-361.91 1732.79,-367.8"/>
</g>
</g>
</svg>
