<?xml version="1.0" encoding="UTF-8" standalone="no"?>
<!DOCTYPE svg PUBLIC "-//W3C//DTD SVG 1.1//EN"
 "http://www.w3.org/Graphics/SVG/1.1/DTD/svg11.dtd">
<!-- Generated by graphviz version 2.43.0 (0)
 -->
<!-- Title: PlayerRaceProcessMap Pages: 1 -->
<svg width="1710pt" height="812pt"
 viewBox="0.00 0.00 1710.20 812.20" xmlns="http://www.w3.org/2000/svg" xmlns:xlink="http://www.w3.org/1999/xlink">
<g id="graph0" class="graph" transform="scale(1 1) rotate(0) translate(21.6 790.6)">
<title>PlayerRaceProcessMap</title>
<polygon fill="#ffffff" stroke="transparent" points="-21.6,21.6 -21.6,-790.6 1688.6,-790.6 1688.6,21.6 -21.6,21.6"/>
<text text-anchor="middle" x="371" y="-749" font-family="Arial" font-size="20.00">Gold&#45;standard coach race&#45;selection and tournament&#45;performance DAG</text>
<text text-anchor="middle" x="371" y="-727" font-family="Arial" font-size="20.00">Qualitative generative hypothesis — not all nodes are identifiable or explicitly fitted</text>
<g id="clust1" class="cluster">
<title>cluster_upstream</title>
<path fill="#f8f2ff" stroke="#8562b5" stroke-width="1.4" d="M20,-8C20,-8 294,-8 294,-8 300,-8 306,-14 306,-20 306,-20 306,-397 306,-397 306,-403 300,-409 294,-409 294,-409 20,-409 20,-409 14,-409 8,-403 8,-397 8,-397 8,-20 8,-20 8,-14 14,-8 20,-8"/>
<text text-anchor="middle" x="147.5" y="-394.6" font-family="Arial" font-size="13.00" fill="#56338e">UPSTREAM CONTEXT AND PRIOR STATE</text>
</g>
<g id="clust2" class="cluster">
<title>cluster_preevent</title>
<path fill="#eff7ff" stroke="#4f8fc5" stroke-width="1.4" d="M408,-134C408,-134 623,-134 623,-134 629,-134 635,-140 635,-146 635,-146 635,-538 635,-538 635,-544 629,-550 623,-550 623,-550 408,-550 408,-550 402,-550 396,-544 396,-538 396,-538 396,-146 396,-146 396,-140 402,-134 408,-134"/>
<text text-anchor="middle" x="459.5" y="-535.6" font-family="Arial" font-size="13.00" fill="#235d93">BEFORE EVENT t</text>
</g>
<g id="clust3" class="cluster">
<title>cluster_selection</title>
<path fill="#fff3f5" stroke="#b45a70" stroke-width="1.4" d="M757,-12C757,-12 976,-12 976,-12 982,-12 988,-18 988,-24 988,-24 988,-227 988,-227 988,-233 982,-239 976,-239 976,-239 757,-239 757,-239 751,-239 745,-233 745,-227 745,-227 745,-24 745,-24 745,-18 751,-12 757,-12"/>
<text text-anchor="middle" x="848" y="-224.6" font-family="Arial" font-size="13.00" fill="#8d2940">SELECTION OR ASSIGNMENT</text>
</g>
<g id="clust4" class="cluster">
<title>cluster_realised</title>
<path fill="#fff8e3" stroke="#b17819" stroke-width="1.4" d="M1085,-129C1085,-129 1283,-129 1283,-129 1289,-129 1295,-135 1295,-141 1295,-141 1295,-635 1295,-635 1295,-641 1289,-647 1283,-647 1283,-647 1085,-647 1085,-647 1079,-647 1073,-641 1073,-635 1073,-635 1073,-141 1073,-141 1073,-135 1079,-129 1085,-129"/>
<text text-anchor="middle" x="1163" y="-632.6" font-family="Arial" font-size="13.00" fill="#77500a">REALISED TOURNAMENT</text>
</g>
<g id="clust5" class="cluster">
<title>cluster_outcome</title>
<path fill="#f4f5f6" stroke="#6f7d89" stroke-width="1.4" d="M1381,-176C1381,-176 1647,-176 1647,-176 1653,-176 1659,-182 1659,-188 1659,-188 1659,-697 1659,-697 1659,-703 1653,-709 1647,-709 1647,-709 1381,-709 1381,-709 1375,-709 1369,-703 1369,-697 1369,-697 1369,-188 1369,-188 1369,-182 1375,-176 1381,-176"/>
<text text-anchor="middle" x="1514" y="-694.6" font-family="Arial" font-size="13.00" fill="#46515c">PERFORMANCE, OBSERVATION, AND TIME</text>
</g>
<!-- organizer_context&#45;&gt;pack -->
<g id="edge1" class="edge">
<title>organizer_context:e&#45;&gt;pack:w</title>
<path fill="none" stroke="#9b6a00" stroke-width="1.15" d="M244,-361C244,-361 367.21,-469.92 397.05,-496.3"/>
<polygon fill="#9b6a00" stroke="#9b6a00" stroke-width="1.15" points="395.46,-498.72 403.5,-502 399.26,-494.42 395.46,-498.72"/>
</g>
<!-- organizer_context&#45;&gt;anticipated_field -->
<g id="edge2" class="edge">
<title>organizer_context:e&#45;&gt;anticipated_field:w</title>
<path fill="none" stroke="#65717d" stroke-width="1.15" d="M244,-361C244,-361 373.38,-420.19 406.73,-435.45"/>
<polygon fill="#65717d" stroke="#65717d" stroke-width="1.15" points="405.85,-438.2 414.5,-439 408.24,-432.98 405.85,-438.2"/>
</g>
<!-- coach_traits&#45;&gt;preparation -->
<g id="edge6" class="edge">
<title>coach_traits:e&#45;&gt;preparation:w</title>
<path fill="none" stroke="#65717d" stroke-width="1.15" d="M283,-229C283,-229 401.12,-271.48 433.42,-283.09"/>
<polygon fill="#65717d" stroke="#65717d" stroke-width="1.15" points="432.81,-285.93 441.5,-286 434.76,-280.52 432.81,-285.93"/>
</g>
<!-- coach_traits&#45;&gt;preparedness -->
<g id="edge8" class="edge">
<title>coach_traits:e&#45;&gt;preparedness:w</title>
<path fill="none" stroke="#004f87" stroke-width="1.8" d="M283,-229C283,-229 306,-267 306,-267 306,-267 330,-323 330,-323 330,-323 394.12,-359.35 416.16,-371.84"/>
<polygon fill="#004f87" stroke="#004f87" stroke-width="1.8" points="414.95,-374.45 423.5,-376 417.78,-369.46 414.95,-374.45"/>
</g>
<!-- coach_traits&#45;&gt;selection -->
<g id="edge19" class="edge">
<title>coach_traits:e&#45;&gt;selection:w</title>
<path fill="none" stroke="#a34259" stroke-width="1.15" d="M283,-229C283,-229 396,-119 396,-119 396,-119 721,-65 721,-65 721,-65 736.42,-51.35 745.33,-43.46"/>
<polygon fill="#a34259" stroke="#a34259" stroke-width="1.15" points="747.26,-45.58 751.5,-38 743.46,-41.29 747.26,-45.58"/>
<text text-anchor="middle" x="515.5" y="-121.2" font-family="Arial" font-size="8.50" fill="#46515c">adaptation</text>
</g>
<!-- prior_history&#45;&gt;preparation -->
<g id="edge7" class="edge">
<title>prior_history:e&#45;&gt;preparation:w</title>
<path fill="none" stroke="#65717d" stroke-width="1.15" d="M240,-298C240,-298 394.27,-288.81 432.84,-286.52"/>
<polygon fill="#65717d" stroke="#65717d" stroke-width="1.15" points="433.49,-289.35 441.5,-286 433.14,-283.62 433.49,-289.35"/>
</g>
<!-- prior_history&#45;&gt;preparedness -->
<g id="edge9" class="edge">
<title>prior_history:e&#45;&gt;preparedness:w</title>
<path fill="none" stroke="#004f87" stroke-width="1.8" d="M240,-298C240,-298 306,-330 306,-330 306,-330 330,-357 330,-357 330,-357 392.32,-369.66 415.2,-374.31"/>
<polygon fill="#004f87" stroke="#004f87" stroke-width="1.8" points="414.89,-377.18 423.5,-376 416.04,-371.55 414.89,-377.18"/>
</g>
<!-- prior_history&#45;&gt;perceived_fit -->
<g id="edge12" class="edge">
<title>prior_history:e&#45;&gt;perceived_fit:w</title>
<path fill="none" stroke="#65717d" stroke-width="1.15" d="M240,-298C240,-298 394.88,-240.06 432.39,-226.03"/>
<polygon fill="#65717d" stroke="#65717d" stroke-width="1.15" points="433.83,-228.56 440.5,-223 431.81,-223.18 433.83,-228.56"/>
<text text-anchor="middle" x="351" y="-264.2" font-family="Arial" font-size="8.50" fill="#46515c">information</text>
</g>
<!-- access&#45;&gt;selection -->
<g id="edge17" class="edge">
<title>access:e&#45;&gt;selection:w</title>
<path fill="none" stroke="#a34259" stroke-width="1.15" d="M299,-97C299,-97 330,-86 330,-86 330,-86 396,-73 396,-73 396,-73 689.23,-44.13 743.06,-38.83"/>
<polygon fill="#a34259" stroke="#a34259" stroke-width="1.15" points="743.62,-41.66 751.5,-38 743.06,-35.95 743.62,-41.66"/>
</g>
<!-- preference&#45;&gt;selection -->
<g id="edge18" class="edge">
<title>preference:e&#45;&gt;selection:w</title>
<path fill="none" stroke="#a34259" stroke-width="1.15" d="M246,-34C246,-34 330,-18 330,-18 330,-18 721,-18 721,-18 721,-18 735.42,-27.45 744.43,-33.36"/>
<polygon fill="#a34259" stroke="#a34259" stroke-width="1.15" points="743.07,-35.9 751.5,-38 746.22,-31.1 743.07,-35.9"/>
</g>
<!-- attendance_factors&#45;&gt;attendance -->
<g id="edge3" class="edge">
<title>attendance_factors:e&#45;&gt;attendance:w</title>
<path fill="none" stroke="#65717d" stroke-width="1.15" d="M278,-160C278,-160 402.08,-160 436.01,-160"/>
<polygon fill="#65717d" stroke="#65717d" stroke-width="1.15" points="436.3,-162.87 444.5,-160 436.3,-157.13 436.3,-162.87"/>
</g>
<!-- pack&#45;&gt;attendance -->
<g id="edge4" class="edge">
<title>pack:e&#45;&gt;attendance:w</title>
<path fill="none" stroke="#65717d" stroke-width="1.15" d="M627.5,-502C627.5,-502 627,-482 627,-482 627,-482 396,-471 396,-471 396,-471 365.5,-319.5 365.5,-319.5 365.5,-319.5 365.5,-310.5 365.5,-310.5 365.5,-310.5 396,-192 396,-192 396,-192 423.85,-173.62 437.34,-164.72"/>
<polygon fill="#65717d" stroke="#65717d" stroke-width="1.15" points="439.24,-166.91 444.5,-160 436.07,-162.12 439.24,-166.91"/>
<text text-anchor="middle" x="351" y="-312.7" font-family="Arial" font-size="8.50" fill="#46515c">appeal</text>
</g>
<!-- pack&#45;&gt;available_choices -->
<g id="edge13" class="edge">
<title>pack:e&#45;&gt;available_choices:w</title>
<path fill="none" stroke="#a34259" stroke-width="1.15" d="M627.5,-502C627.5,-502 721,-430 721,-430 721,-430 783.27,-240.42 796.89,-198.95"/>
<polygon fill="#a34259" stroke="#a34259" stroke-width="1.15" points="799.67,-199.69 799.5,-191 794.21,-197.89 799.67,-199.69"/>
</g>
<!-- pack&#45;&gt;perceived_advantage -->
<g id="edge14" class="edge">
<title>pack:e&#45;&gt;perceived_advantage:w</title>
<path fill="none" stroke="#a34259" stroke-width="1.15" d="M627.5,-502C627.5,-502 659,-433 659,-433 659,-433 721,-303 721,-303 721,-303 745,-160 745,-160 745,-160 760.76,-143.47 769.62,-134.17"/>
<polygon fill="#a34259" stroke="#a34259" stroke-width="1.15" points="771.92,-135.92 775.5,-128 767.76,-131.96 771.92,-135.92"/>
</g>
<!-- pack&#45;&gt;own_build -->
<g id="edge27" class="edge">
<title>pack:e&#45;&gt;own_build:w</title>
<path fill="none" stroke="#65717d" stroke-width="1.15" d="M627.5,-502C627.5,-502 988,-432 988,-432 988,-432 1049,-390 1049,-390 1049,-390 1065.36,-372.05 1074.31,-362.24"/>
<polygon fill="#65717d" stroke="#65717d" stroke-width="1.15" points="1076.6,-363.99 1080,-356 1072.35,-360.13 1076.6,-363.99"/>
</g>
<!-- pack&#45;&gt;pairing -->
<g id="edge31" class="edge">
<title>pack:e&#45;&gt;pairing:w</title>
<path fill="none" stroke="#65717d" stroke-width="1.15" d="M627.5,-502C627.5,-502 659,-534 659,-534 659,-534 1049,-534 1049,-534 1049,-534 1073.24,-520.23 1085.73,-513.13"/>
<polygon fill="#65717d" stroke="#65717d" stroke-width="1.15" points="1087.29,-515.55 1093,-509 1084.45,-510.56 1087.29,-515.55"/>
<text text-anchor="middle" x="866.5" y="-536.2" font-family="Arial" font-size="8.50" fill="#46515c">format</text>
</g>
<!-- pack&#45;&gt;strategy -->
<g id="edge37" class="edge">
<title>pack:e&#45;&gt;strategy:w</title>
<path fill="none" stroke="#65717d" stroke-width="1.15" d="M627.5,-502C627.5,-502 659,-554 659,-554 659,-554 1073,-671 1073,-671 1073,-671 1295,-671 1295,-671 1295,-671 1392.36,-663.81 1422.02,-661.63"/>
<polygon fill="#65717d" stroke="#65717d" stroke-width="1.15" points="1422.53,-664.47 1430.5,-661 1422.11,-658.74 1422.53,-664.47"/>
<text text-anchor="middle" x="1030.5" y="-665.2" font-family="Arial" font-size="8.50" fill="#46515c">scoring</text>
</g>
<!-- attendance&#45;&gt;anticipated_field -->
<g id="edge5" class="edge">
<title>attendance:e&#45;&gt;anticipated_field:w</title>
<path fill="none" stroke="#65717d" stroke-width="1.15" d="M586.5,-160C586.5,-160 585.5,-178 585.5,-178 585.5,-178 396,-192 396,-192 396,-192 351,-205.5 351,-205.5 351,-205.5 351,-394.5 351,-394.5 351,-394.5 391.32,-422.76 407.7,-434.24"/>
<polygon fill="#65717d" stroke="#65717d" stroke-width="1.15" points="406.14,-436.64 414.5,-439 409.43,-431.94 406.14,-436.64"/>
</g>
<!-- attendance&#45;&gt;selection -->
<g id="edge20" class="edge">
<title>attendance:e&#45;&gt;selection:w</title>
<path fill="none" stroke="#a34259" stroke-width="1.15" d="M586.5,-160C586.5,-160 721,-125 721,-125 721,-125 741.13,-67.57 748.69,-46.03"/>
<polygon fill="#a34259" stroke="#a34259" stroke-width="1.15" points="751.5,-46.69 751.5,-38 746.08,-44.79 751.5,-46.69"/>
<text text-anchor="middle" x="690" y="-143.2" font-family="Arial" font-size="8.50" fill="#46515c">in observed pool</text>
</g>
<!-- attendance&#45;&gt;realised_field -->
<g id="edge24" class="edge">
<title>attendance:e&#45;&gt;realised_field:w</title>
<path fill="none" stroke="#65717d" stroke-width="1.15" d="M586.5,-160C586.5,-160 745,-243 745,-243 745,-243 988,-243 988,-243 988,-243 1012,-238 1012,-238 1012,-238 1049,-238 1049,-238 1049,-238 1073,-262 1073,-262 1073,-262 1093.49,-278.72 1104.38,-287.6"/>
<polygon fill="#65717d" stroke="#65717d" stroke-width="1.15" points="1102.83,-290.04 1111,-293 1106.46,-285.59 1102.83,-290.04"/>
</g>
<!-- anticipated_field&#45;&gt;perceived_advantage -->
<g id="edge15" class="edge">
<title>anticipated_field:e&#45;&gt;perceived_advantage:w</title>
<path fill="none" stroke="#a34259" stroke-width="1.15" d="M616.5,-439C616.5,-439 635,-408 635,-408 635,-408 745,-160 745,-160 745,-160 760.76,-143.47 769.62,-134.17"/>
<polygon fill="#a34259" stroke="#a34259" stroke-width="1.15" points="771.92,-135.92 775.5,-128 767.76,-131.96 771.92,-135.92"/>
</g>
<!-- anticipated_field&#45;&gt;own_build -->
<g id="edge29" class="edge">
<title>anticipated_field:e&#45;&gt;own_build:w</title>
<path fill="none" stroke="#65717d" stroke-width="1.15" d="M616.5,-439C616.5,-439 1049,-368 1049,-368 1049,-368 1062.99,-362.58 1072.18,-359.03"/>
<polygon fill="#65717d" stroke="#65717d" stroke-width="1.15" points="1073.39,-361.64 1080,-356 1071.32,-356.28 1073.39,-361.64"/>
<text text-anchor="middle" x="866.5" y="-419.2" font-family="Arial" font-size="8.50" fill="#46515c">preparation target</text>
</g>
<!-- preparation&#45;&gt;preparedness -->
<g id="edge10" class="edge">
<title>preparation:e&#45;&gt;preparedness:w</title>
<path fill="none" stroke="#004f87" stroke-width="1.8" d="M424.07,-365.74C424.29,-361.7 424.5,-358 424.5,-358 424.5,-358 588.5,-304 588.5,-304 588.5,-304 589.5,-286 589.5,-286"/>
<polygon fill="#004f87" stroke="#004f87" stroke-width="1.8" points="421.09,-367.65 423.5,-376 426.82,-367.97 421.09,-367.65"/>
</g>
<!-- preparation&#45;&gt;own_build -->
<g id="edge28" class="edge">
<title>preparation:e&#45;&gt;own_build:w</title>
<path fill="none" stroke="#65717d" stroke-width="1.15" d="M589.5,-286C589.5,-286 1006.35,-345.49 1071.49,-354.79"/>
<polygon fill="#65717d" stroke="#65717d" stroke-width="1.15" points="1071.48,-357.68 1080,-356 1072.29,-352 1071.48,-357.68"/>
</g>
<!-- preparedness&#45;&gt;perceived_fit -->
<g id="edge11" class="edge">
<title>preparedness:e&#45;&gt;perceived_fit:w</title>
<path fill="none" stroke="#004f87" stroke-width="1.8" d="M607.5,-376C607.5,-376 606,-356 606,-356 606,-356 396,-318 396,-318 396,-318 351,-304.5 351,-304.5 351,-304.5 351,-268.5 351,-268.5 351,-268.5 411.8,-237.59 433.18,-226.72"/>
<polygon fill="#004f87" stroke="#004f87" stroke-width="1.8" points="434.49,-229.27 440.5,-223 431.89,-224.16 434.49,-229.27"/>
</g>
<!-- preparedness&#45;&gt;expected_performance -->
<g id="edge39" class="edge">
<title>preparedness:e&#45;&gt;expected_performance:w</title>
<path fill="none" stroke="#004f87" stroke-width="2.5" d="M607.5,-376C607.5,-376 988,-401 988,-401 988,-401 1073,-651 1073,-651 1073,-651 1295,-651 1295,-651 1295,-651 1361,-469 1361,-469 1361,-469 1369,-387 1369,-387 1369,-387 1427.08,-346.92 1447.5,-332.83"/>
<polygon fill="#004f87" stroke="#004f87" stroke-width="2.5" points="1449.38,-335.02 1454.5,-328 1446.12,-330.3 1449.38,-335.02"/>
</g>
<!-- perceived_fit&#45;&gt;perceived_advantage -->
<g id="edge16" class="edge">
<title>perceived_fit:e&#45;&gt;perceived_advantage:w</title>
<path fill="none" stroke="#a34259" stroke-width="1.15" d="M590.5,-223C590.5,-223 721,-171 721,-171 721,-171 754.26,-144.75 768.82,-133.27"/>
<polygon fill="#a34259" stroke="#a34259" stroke-width="1.15" points="770.84,-135.33 775.5,-128 767.28,-130.83 770.84,-135.33"/>
</g>
<!-- available_choices&#45;&gt;selection -->
<g id="edge21" class="edge">
<title>available_choices:e&#45;&gt;selection:w</title>
<path fill="none" stroke="#a34259" stroke-width="1.15" d="M933.5,-191C933.5,-191 932.5,-171 932.5,-171 932.5,-171 745,-160 745,-160 745,-160 690,-146.5 690,-146.5 690,-146.5 690,-109.5 690,-109.5 690,-109.5 730.6,-62.3 745.82,-44.6"/>
<polygon fill="#a34259" stroke="#a34259" stroke-width="1.15" points="748.33,-46.09 751.5,-38 743.98,-42.35 748.33,-46.09"/>
</g>
<!-- perceived_advantage&#45;&gt;selection -->
<g id="edge22" class="edge">
<title>perceived_advantage:e&#45;&gt;selection:w</title>
<path fill="none" stroke="#a34259" stroke-width="1.15" d="M752.07,-48.26C752.29,-52.3 752.5,-56 752.5,-56 752.5,-56 956.5,-110 956.5,-110 956.5,-110 957.5,-128 957.5,-128"/>
<polygon fill="#a34259" stroke="#a34259" stroke-width="1.15" points="754.82,-46.03 751.5,-38 749.09,-46.35 754.82,-46.03"/>
</g>
<!-- selection&#45;&gt;race_played -->
<g id="edge23" class="edge">
<title>selection:e&#45;&gt;race_played:w</title>
<path fill="none" stroke="#8d2940" stroke-width="2" d="M981.5,-38C981.5,-38 1104.38,-127.58 1135.1,-149.97"/>
<polygon fill="#8d2940" stroke="#8d2940" stroke-width="2" points="1133.68,-152.49 1142,-155 1137.06,-147.85 1133.68,-152.49"/>
</g>
<!-- race_played&#45;&gt;realised_field -->
<g id="edge25" class="edge">
<title>race_played:e&#45;&gt;realised_field:w</title>
<path fill="none" stroke="#65717d" stroke-width="1.15" d="M1226,-155C1226,-155 1225,-173 1225,-173 1225,-173 1073,-187 1073,-187 1073,-187 1037,-239.5 1037,-239.5 1037,-239.5 1037,-248.5 1037,-248.5 1037,-248.5 1085.38,-277.6 1103.9,-288.73"/>
<polygon fill="#65717d" stroke="#65717d" stroke-width="1.15" points="1102.49,-291.23 1111,-293 1105.45,-286.31 1102.49,-291.23"/>
<text text-anchor="middle" x="1030.5" y="-241.7" font-family="Arial" font-size="8.50" fill="#46515c">aggregate</text>
</g>
<!-- race_played&#45;&gt;own_build -->
<g id="edge26" class="edge">
<title>race_played:e&#45;&gt;own_build:w</title>
<path fill="none" stroke="#65717d" stroke-width="1.15" d="M1226,-155C1226,-155 1225,-173 1225,-173 1225,-173 1073,-187 1073,-187 1073,-187 1030.5,-200.5 1030.5,-200.5 1030.5,-200.5 1030.5,-311.5 1030.5,-311.5 1030.5,-311.5 1060.11,-338.12 1073.53,-350.18"/>
<polygon fill="#65717d" stroke="#65717d" stroke-width="1.15" points="1071.98,-352.65 1080,-356 1075.82,-348.38 1071.98,-352.65"/>
</g>
<!-- race_played&#45;&gt;matchup -->
<g id="edge34" class="edge">
<title>race_played:e&#45;&gt;matchup:w</title>
<path fill="none" stroke="#65717d" stroke-width="1.15" d="M1226,-155C1226,-155 1225,-173 1225,-173 1225,-173 1073,-187 1073,-187 1073,-187 1030.5,-200.5 1030.5,-200.5 1030.5,-200.5 1030.5,-527.5 1030.5,-527.5 1030.5,-527.5 1074.58,-575.61 1090.42,-592.9"/>
<polygon fill="#65717d" stroke="#65717d" stroke-width="1.15" points="1088.34,-594.89 1096,-599 1092.58,-591.01 1088.34,-594.89"/>
</g>
<!-- race_played&#45;&gt;next_event -->
<g id="edge48" class="edge">
<title>race_played:e&#45;&gt;next_event:w</title>
<path fill="none" stroke="#65717d" stroke-width="1.15" d="M1226,-155C1226,-155 1295,-187 1295,-187 1295,-187 1380.93,-243.56 1406.44,-260.35"/>
<polygon fill="#65717d" stroke="#65717d" stroke-width="1.15" points="1405.07,-262.89 1413.5,-265 1408.23,-258.09 1405.07,-262.89"/>
<text text-anchor="middle" x="1340" y="-230.2" font-family="Arial" font-size="8.50" fill="#46515c">experience</text>
</g>
<!-- realised_field&#45;&gt;pairing -->
<g id="edge30" class="edge">
<title>realised_field:e&#45;&gt;pairing:w</title>
<path fill="none" stroke="#65717d" stroke-width="1.15" d="M1257,-293C1257,-293 1255.5,-311 1255.5,-311 1255.5,-311 1073,-325 1073,-325 1073,-325 1030.5,-338.5 1030.5,-338.5 1030.5,-338.5 1030.5,-437.5 1030.5,-437.5 1030.5,-437.5 1071.76,-484.7 1087.23,-502.4"/>
<polygon fill="#65717d" stroke="#65717d" stroke-width="1.15" points="1085.44,-504.72 1093,-509 1089.76,-500.94 1085.44,-504.72"/>
</g>
<!-- own_build&#45;&gt;matchup -->
<g id="edge35" class="edge">
<title>own_build:e&#45;&gt;matchup:w</title>
<path fill="none" stroke="#65717d" stroke-width="1.15" d="M1288,-356C1288,-356 1287,-374 1287,-374 1287,-374 1073,-388 1073,-388 1073,-388 1030.5,-401.5 1030.5,-401.5 1030.5,-401.5 1030.5,-527.5 1030.5,-527.5 1030.5,-527.5 1074.58,-575.61 1090.42,-592.9"/>
<polygon fill="#65717d" stroke="#65717d" stroke-width="1.15" points="1088.34,-594.89 1096,-599 1092.58,-591.01 1088.34,-594.89"/>
</g>
<!-- prior_round_state&#45;&gt;pairing -->
<g id="edge32" class="edge">
<title>prior_round_state:e&#45;&gt;pairing:w</title>
<path fill="none" stroke="#65717d" stroke-width="1.15" d="M1093.57,-498.74C1093.79,-494.7 1094,-491 1094,-491 1094,-491 1267,-437 1267,-437 1267,-437 1268,-419 1268,-419"/>
<polygon fill="#65717d" stroke="#65717d" stroke-width="1.15" points="1090.59,-500.65 1093,-509 1096.32,-500.97 1090.59,-500.65"/>
</g>
<!-- pairing&#45;&gt;matchup -->
<g id="edge33" class="edge">
<title>pairing:e&#45;&gt;matchup:w</title>
<path fill="none" stroke="#65717d" stroke-width="1.15" d="M1096.57,-588.74C1096.79,-584.7 1097,-581 1097,-581 1097,-581 1274,-527 1274,-527 1274,-527 1275,-509 1275,-509"/>
<polygon fill="#65717d" stroke="#65717d" stroke-width="1.15" points="1093.59,-590.65 1096,-599 1099.32,-590.97 1093.59,-590.65"/>
</g>
<!-- matchup&#45;&gt;strategy -->
<g id="edge38" class="edge">
<title>matchup:e&#45;&gt;strategy:w</title>
<path fill="none" stroke="#65717d" stroke-width="1.15" d="M1272,-599C1272,-599 1391.19,-645.62 1422.86,-658.01"/>
<polygon fill="#65717d" stroke="#65717d" stroke-width="1.15" points="1421.82,-660.69 1430.5,-661 1423.91,-655.34 1421.82,-660.69"/>
</g>
<!-- matchup&#45;&gt;expected_performance -->
<g id="edge40" class="edge">
<title>matchup:e&#45;&gt;expected_performance:w</title>
<path fill="none" stroke="#77500a" stroke-width="1.7" d="M1272,-599C1272,-599 1369,-387 1369,-387 1369,-387 1427.08,-346.92 1447.5,-332.83"/>
<polygon fill="#77500a" stroke="#77500a" stroke-width="1.7" points="1449.38,-335.02 1454.5,-328 1446.12,-330.3 1449.38,-335.02"/>
</g>
<!-- opponent_state&#45;&gt;matchup -->
<g id="edge36" class="edge">
<title>opponent_state:e&#45;&gt;matchup:w</title>
<path fill="none" stroke="#65717d" stroke-width="1.15" d="M1265,-224C1265,-224 1264,-248 1264,-248 1264,-248 1073,-262 1073,-262 1073,-262 1030.5,-275.5 1030.5,-275.5 1030.5,-275.5 1030.5,-527.5 1030.5,-527.5 1030.5,-527.5 1074.58,-575.61 1090.42,-592.9"/>
<polygon fill="#65717d" stroke="#65717d" stroke-width="1.15" points="1088.34,-594.89 1096,-599 1092.58,-591.01 1088.34,-594.89"/>
</g>
<!-- opponent_state&#45;&gt;expected_performance -->
<g id="edge42" class="edge">
<title>opponent_state:e&#45;&gt;expected_performance:w</title>
<path fill="none" stroke="#65717d" stroke-width="1.15" d="M1265,-224C1265,-224 1369,-297 1369,-297 1369,-297 1425.44,-317.46 1446.61,-325.14"/>
<polygon fill="#65717d" stroke="#65717d" stroke-width="1.15" points="1445.81,-327.9 1454.5,-328 1447.77,-322.51 1445.81,-327.9"/>
</g>
<!-- strategy&#45;&gt;expected_performance -->
<g id="edge41" class="edge">
<title>strategy:e&#45;&gt;expected_performance:w</title>
<path fill="none" stroke="#65717d" stroke-width="1.15" d="M1596.5,-661C1596.5,-661 1595,-641 1595,-641 1595,-641 1369,-630 1369,-630 1369,-630 1332,-616.5 1332,-616.5 1332,-616.5 1332,-400.5 1332,-400.5 1332,-400.5 1420.83,-347.93 1447.2,-332.32"/>
<polygon fill="#65717d" stroke="#65717d" stroke-width="1.15" points="1448.91,-334.65 1454.5,-328 1445.98,-329.71 1448.91,-334.65"/>
</g>
<!-- expected_performance&#45;&gt;realised_outcome -->
<g id="edge43" class="edge">
<title>expected_performance:e&#45;&gt;realised_outcome:w</title>
<path fill="none" stroke="#46515c" stroke-width="2.2" d="M1444.07,-407.74C1444.29,-403.7 1444.5,-400 1444.5,-400 1444.5,-400 1571.5,-346 1571.5,-346 1571.5,-346 1572.5,-328 1572.5,-328"/>
<polygon fill="#46515c" stroke="#46515c" stroke-width="2.2" points="1441.09,-409.65 1443.5,-418 1446.82,-409.97 1441.09,-409.65"/>
</g>
<!-- stochasticity&#45;&gt;realised_outcome -->
<g id="edge44" class="edge">
<title>stochasticity:e&#45;&gt;realised_outcome:w</title>
<path fill="none" stroke="#65717d" stroke-width="1.15" d="M1628.5,-202C1628.5,-202 1627,-220 1627,-220 1627,-220 1369,-234 1369,-234 1369,-234 1332,-247.5 1332,-247.5 1332,-247.5 1332,-346.5 1332,-346.5 1332,-346.5 1412.12,-397.87 1436.53,-413.53"/>
<polygon fill="#65717d" stroke="#65717d" stroke-width="1.15" points="1435.05,-415.99 1443.5,-418 1438.15,-411.16 1435.05,-415.99"/>
</g>
<!-- realised_outcome&#45;&gt;recorded_result -->
<g id="edge45" class="edge">
<title>realised_outcome:e&#45;&gt;recorded_result:w</title>
<path fill="none" stroke="#65717d" stroke-width="1.15" d="M1434.07,-497.74C1434.29,-493.7 1434.5,-490 1434.5,-490 1434.5,-490 1582.5,-436 1582.5,-436 1582.5,-436 1583.5,-418 1583.5,-418"/>
<polygon fill="#65717d" stroke="#65717d" stroke-width="1.15" points="1431.09,-499.65 1433.5,-508 1436.82,-499.97 1431.09,-499.65"/>
</g>
<!-- recorded_result&#45;&gt;next_round -->
<g id="edge46" class="edge">
<title>recorded_result:e&#45;&gt;next_round:w</title>
<path fill="none" stroke="#65717d" stroke-width="1.15" d="M1409.07,-587.74C1409.29,-583.7 1409.5,-580 1409.5,-580 1409.5,-580 1592.5,-526 1592.5,-526 1592.5,-526 1593.5,-508 1593.5,-508"/>
<polygon fill="#65717d" stroke="#65717d" stroke-width="1.15" points="1406.09,-589.65 1408.5,-598 1411.82,-589.97 1406.09,-589.65"/>
</g>
<!-- recorded_result&#45;&gt;next_event -->
<g id="edge47" class="edge">
<title>recorded_result:e&#45;&gt;next_event:w</title>
<path fill="none" stroke="#65717d" stroke-width="1.15" d="M1593.5,-508C1593.5,-508 1592.5,-488 1592.5,-488 1592.5,-488 1369,-450 1369,-450 1369,-450 1332,-436.5 1332,-436.5 1332,-436.5 1332,-310.5 1332,-310.5 1332,-310.5 1386.32,-280.17 1406.27,-269.04"/>
<polygon fill="#65717d" stroke="#65717d" stroke-width="1.15" points="1407.74,-271.5 1413.5,-265 1404.94,-266.49 1407.74,-271.5"/>
</g>
<!-- organizer_context -->
<g id="node1" class="node">
<title>organizer_context</title>
<path fill="#fff1c9" stroke="#9b6a00" stroke-width="1.3" d="M230.5,-379C230.5,-379 83.5,-379 83.5,-379 77.5,-379 71.5,-373 71.5,-367 71.5,-367 71.5,-355 71.5,-355 71.5,-349 77.5,-343 83.5,-343 83.5,-343 230.5,-343 230.5,-343 236.5,-343 242.5,-349 242.5,-355 242.5,-355 242.5,-367 242.5,-367 242.5,-373 236.5,-379 230.5,-379"/>
<text text-anchor="middle" x="157" y="-364.6" font-family="Arial" font-size="10.50">Organiser goals · event identity</text>
<text text-anchor="middle" x="157" y="-352.6" font-family="Arial" font-size="10.50">region and local community</text>
</g>
<!-- coach_traits -->
<g id="node2" class="node">
<title>coach_traits</title>
<path fill="#eadfff" stroke="#6842a6" stroke-width="1.3" d="M270.5,-253C270.5,-253 43.5,-253 43.5,-253 37.5,-253 31.5,-247 31.5,-241 31.5,-241 31.5,-217 31.5,-217 31.5,-211 37.5,-205 43.5,-205 43.5,-205 270.5,-205 270.5,-205 276.5,-205 282.5,-211 282.5,-217 282.5,-217 282.5,-241 282.5,-241 282.5,-247 276.5,-253 270.5,-253"/>
<text text-anchor="middle" x="157" y="-238.6" font-family="Arial" font-size="10.50">Persistent coach traits</text>
<text text-anchor="middle" x="157" y="-226.6" font-family="Arial" font-size="10.50">general talent · style aptitude · learning capacity</text>
<text text-anchor="middle" x="157" y="-214.6" font-family="Arial" font-size="10.50">competitive investment · adaptation disposition</text>
</g>
<!-- prior_history -->
<g id="node3" class="node">
<title>prior_history</title>
<path fill="#eadfff" stroke="#6842a6" stroke-width="1.3" d="M227,-316C227,-316 87,-316 87,-316 81,-316 75,-310 75,-304 75,-304 75,-292 75,-292 75,-286 81,-280 87,-280 87,-280 227,-280 227,-280 233,-280 239,-286 239,-292 239,-292 239,-304 239,-304 239,-310 233,-316 227,-316"/>
<text text-anchor="middle" x="157" y="-301.6" font-family="Arial" font-size="10.50">Prior play and results</text>
<text text-anchor="middle" x="157" y="-289.6" font-family="Arial" font-size="10.50">NAF · league · online · casual</text>
</g>
<!-- access -->
<g id="node4" class="node">
<title>access</title>
<path fill="#eadfff" stroke="#6842a6" stroke-width="1.3" d="M286,-115C286,-115 28,-115 28,-115 22,-115 16,-109 16,-103 16,-103 16,-91 16,-91 16,-85 22,-79 28,-79 28,-79 286,-79 286,-79 292,-79 298,-85 298,-91 298,-91 298,-103 298,-103 298,-109 292,-115 286,-115"/>
<text text-anchor="middle" x="157" y="-100.6" font-family="Arial" font-size="10.50">Practical race access</text>
<text text-anchor="middle" x="157" y="-88.6" font-family="Arial" font-size="10.50">miniatures · borrowing · money · preparation feasibility</text>
</g>
<!-- preference -->
<g id="node5" class="node">
<title>preference</title>
<path fill="#eadfff" stroke="#6842a6" stroke-width="1.3" d="M232.5,-52C232.5,-52 81.5,-52 81.5,-52 75.5,-52 69.5,-46 69.5,-40 69.5,-40 69.5,-28 69.5,-28 69.5,-22 75.5,-16 81.5,-16 81.5,-16 232.5,-16 232.5,-16 238.5,-16 244.5,-22 244.5,-28 244.5,-28 244.5,-40 244.5,-40 244.5,-46 238.5,-52 232.5,-52"/>
<text text-anchor="middle" x="157" y="-37.6" font-family="Arial" font-size="10.50">Style and exact&#45;race preference</text>
<text text-anchor="middle" x="157" y="-25.6" font-family="Arial" font-size="10.50">loyalty · switching disposition</text>
</g>
<!-- attendance_factors -->
<g id="node6" class="node">
<title>attendance_factors</title>
<path fill="#eadfff" stroke="#6842a6" stroke-width="1.3" d="M265,-178C265,-178 49,-178 49,-178 43,-178 37,-172 37,-166 37,-166 37,-154 37,-154 37,-148 43,-142 49,-142 49,-142 265,-142 265,-142 271,-142 277,-148 277,-154 277,-154 277,-166 277,-166 277,-172 271,-178 265,-178"/>
<text text-anchor="middle" x="157" y="-163.6" font-family="Arial" font-size="10.50">Attendance resources and incentives</text>
<text text-anchor="middle" x="157" y="-151.6" font-family="Arial" font-size="10.50">travel · money · time · prestige · event appeal</text>
</g>
<!-- pack -->
<g id="node7" class="node">
<title>pack</title>
<path fill="#fff1c9" stroke="#9b6a00" stroke-width="1.3" d="M615,-520C615,-520 416,-520 416,-520 410,-520 404,-514 404,-508 404,-508 404,-496 404,-496 404,-490 410,-484 416,-484 416,-484 615,-484 615,-484 621,-484 627,-490 627,-496 627,-496 627,-508 627,-508 627,-514 621,-520 615,-520"/>
<text text-anchor="middle" x="515.5" y="-505.6" font-family="Arial" font-size="10.50">Rules pack and event format</text>
<text text-anchor="middle" x="515.5" y="-493.6" font-family="Arial" font-size="10.50">legality · resources · scoring · open/squad</text>
</g>
<!-- attendance -->
<g id="node8" class="node">
<title>attendance</title>
<path fill="#dcecff" stroke="#2867a3" stroke-width="1.3" d="M573.5,-178C573.5,-178 457.5,-178 457.5,-178 451.5,-178 445.5,-172 445.5,-166 445.5,-166 445.5,-154 445.5,-154 445.5,-148 451.5,-142 457.5,-142 457.5,-142 573.5,-142 573.5,-142 579.5,-142 585.5,-148 585.5,-154 585.5,-154 585.5,-166 585.5,-166 585.5,-172 579.5,-178 573.5,-178"/>
<text text-anchor="middle" x="515.5" y="-163.6" font-family="Arial" font-size="10.50">Attendance decision and</text>
<text text-anchor="middle" x="515.5" y="-151.6" font-family="Arial" font-size="10.50">realised coach pool</text>
</g>
<!-- anticipated_field -->
<g id="node9" class="node">
<title>anticipated_field</title>
<path fill="#dcecff" stroke="#2867a3" stroke-width="1.3" d="M603.5,-457C603.5,-457 427.5,-457 427.5,-457 421.5,-457 415.5,-451 415.5,-445 415.5,-445 415.5,-433 415.5,-433 415.5,-427 421.5,-421 427.5,-421 427.5,-421 603.5,-421 603.5,-421 609.5,-421 615.5,-427 615.5,-433 615.5,-433 615.5,-445 615.5,-445 615.5,-451 609.5,-457 603.5,-457"/>
<text text-anchor="middle" x="515.5" y="-442.6" font-family="Arial" font-size="10.50">Anticipated field and public meta</text>
<text text-anchor="middle" x="515.5" y="-430.6" font-family="Arial" font-size="10.50">information available before selection</text>
</g>
<!-- preparation -->
<g id="node10" class="node">
<title>preparation</title>
<path fill="#dcecff" stroke="#2867a3" stroke-width="1.3" d="M576.5,-304C576.5,-304 454.5,-304 454.5,-304 448.5,-304 442.5,-298 442.5,-292 442.5,-292 442.5,-280 442.5,-280 442.5,-274 448.5,-268 454.5,-268 454.5,-268 576.5,-268 576.5,-268 582.5,-268 588.5,-274 588.5,-280 588.5,-280 588.5,-292 588.5,-292 588.5,-298 582.5,-304 576.5,-304"/>
<text text-anchor="middle" x="515.5" y="-289.6" font-family="Arial" font-size="10.50">Event&#45;specific preparation</text>
<text text-anchor="middle" x="515.5" y="-277.6" font-family="Arial" font-size="10.50">and current engagement</text>
</g>
<!-- preparedness -->
<g id="node11" class="node">
<title>preparedness</title>
<path fill="#ccecff" stroke="#004f87" stroke-width="2.8" d="M594,-394C594,-394 437,-394 437,-394 431,-394 425,-388 425,-382 425,-382 425,-370 425,-370 425,-364 431,-358 437,-358 437,-358 594,-358 594,-358 600,-358 606,-364 606,-370 606,-370 606,-382 606,-382 606,-388 600,-394 594,-394"/>
<text text-anchor="middle" x="515.5" y="-379.6" font-family="Arial" font-size="10.50">ACTUAL PRE&#45;EVENT</text>
<text text-anchor="middle" x="515.5" y="-367.6" font-family="Arial" font-size="10.50">COACH–RACE PREPAREDNESS</text>
</g>
<!-- perceived_fit -->
<g id="node12" class="node">
<title>perceived_fit</title>
<path fill="#dcecff" stroke="#2867a3" stroke-width="1.3" d="M578,-241C578,-241 453,-241 453,-241 447,-241 441,-235 441,-229 441,-229 441,-217 441,-217 441,-211 447,-205 453,-205 453,-205 578,-205 578,-205 584,-205 590,-211 590,-217 590,-217 590,-229 590,-229 590,-235 584,-241 578,-241"/>
<text text-anchor="middle" x="515.5" y="-226.6" font-family="Arial" font-size="10.50">Coach/captain belief about</text>
<text text-anchor="middle" x="515.5" y="-214.6" font-family="Arial" font-size="10.50">personal coach–race fit</text>
</g>
<!-- available_choices -->
<g id="node13" class="node">
<title>available_choices</title>
<path fill="#ffe0e6" stroke="#9d3850" stroke-width="1.3" d="M920.5,-209C920.5,-209 812.5,-209 812.5,-209 806.5,-209 800.5,-203 800.5,-197 800.5,-197 800.5,-185 800.5,-185 800.5,-179 806.5,-173 812.5,-173 812.5,-173 920.5,-173 920.5,-173 926.5,-173 932.5,-179 932.5,-185 932.5,-185 932.5,-197 932.5,-197 932.5,-203 926.5,-209 920.5,-209"/>
<text text-anchor="middle" x="866.5" y="-194.6" font-family="Arial" font-size="10.50">Available races and</text>
<text text-anchor="middle" x="866.5" y="-182.6" font-family="Arial" font-size="10.50">squad&#45;wide constraints</text>
</g>
<!-- perceived_advantage -->
<g id="node14" class="node">
<title>perceived_advantage</title>
<path fill="#ffe0e6" stroke="#9d3850" stroke-width="1.3" d="M944.5,-146C944.5,-146 788.5,-146 788.5,-146 782.5,-146 776.5,-140 776.5,-134 776.5,-134 776.5,-122 776.5,-122 776.5,-116 782.5,-110 788.5,-110 788.5,-110 944.5,-110 944.5,-110 950.5,-110 956.5,-116 956.5,-122 956.5,-122 956.5,-134 956.5,-134 956.5,-140 950.5,-146 944.5,-146"/>
<text text-anchor="middle" x="866.5" y="-131.6" font-family="Arial" font-size="10.50">Perceived competitive advantage</text>
<text text-anchor="middle" x="866.5" y="-119.6" font-family="Arial" font-size="10.50">pack fit · field fit · personal fit</text>
</g>
<!-- selection -->
<g id="node15" class="node">
<title>selection</title>
<path fill="#ffd2dc" stroke="#8d2940" stroke-width="2.4" d="M968,-56C968,-56 765,-56 765,-56 759,-56 753,-50 753,-44 753,-44 753,-32 753,-32 753,-26 759,-20 765,-20 765,-20 968,-20 968,-20 974,-20 980,-26 980,-32 980,-32 980,-44 980,-44 980,-50 974,-56 968,-56"/>
<text text-anchor="middle" x="866.5" y="-41.6" font-family="Arial" font-size="10.50">Coach choice or captain/squad assignment</text>
<text text-anchor="middle" x="866.5" y="-29.6" font-family="Arial" font-size="10.50">decision&#45;maker depends on event format</text>
</g>
<!-- race_played -->
<g id="node16" class="node">
<title>race_played</title>
<path fill="#fff1c9" stroke="#9b6a00" stroke-width="1.3" d="M1213,-173C1213,-173 1155,-173 1155,-173 1149,-173 1143,-167 1143,-161 1143,-161 1143,-149 1143,-149 1143,-143 1149,-137 1155,-137 1155,-137 1213,-137 1213,-137 1219,-137 1225,-143 1225,-149 1225,-149 1225,-161 1225,-161 1225,-167 1219,-173 1213,-173"/>
<text text-anchor="middle" x="1184" y="-152.6" font-family="Arial" font-size="10.50">Race played</text>
</g>
<!-- realised_field -->
<g id="node17" class="node">
<title>realised_field</title>
<path fill="#fff1c9" stroke="#9b6a00" stroke-width="1.3" d="M1243.5,-311C1243.5,-311 1124.5,-311 1124.5,-311 1118.5,-311 1112.5,-305 1112.5,-299 1112.5,-299 1112.5,-287 1112.5,-287 1112.5,-281 1118.5,-275 1124.5,-275 1124.5,-275 1243.5,-275 1243.5,-275 1249.5,-275 1255.5,-281 1255.5,-287 1255.5,-287 1255.5,-299 1255.5,-299 1255.5,-305 1249.5,-311 1243.5,-311"/>
<text text-anchor="middle" x="1184" y="-296.6" font-family="Arial" font-size="10.50">Aggregate selections and</text>
<text text-anchor="middle" x="1184" y="-284.6" font-family="Arial" font-size="10.50">realised field</text>
</g>
<!-- own_build -->
<g id="node18" class="node">
<title>own_build</title>
<path fill="#fff1c9" stroke="#9b6a00" stroke-width="1.3" d="M1275,-374C1275,-374 1093,-374 1093,-374 1087,-374 1081,-368 1081,-362 1081,-362 1081,-350 1081,-350 1081,-344 1087,-338 1093,-338 1093,-338 1275,-338 1275,-338 1281,-338 1287,-344 1287,-350 1287,-350 1287,-362 1287,-362 1287,-368 1281,-374 1275,-374"/>
<text text-anchor="middle" x="1184" y="-359.6" font-family="Arial" font-size="10.50">Own realised roster/build</text>
<text text-anchor="middle" x="1184" y="-347.6" font-family="Arial" font-size="10.50">resources · skills · stars · inducements</text>
</g>
<!-- prior_round_state -->
<g id="node19" class="node">
<title>prior_round_state</title>
<path fill="#fff1c9" stroke="#9b6a00" stroke-width="1.3" d="M1255.5,-437C1255.5,-437 1112.5,-437 1112.5,-437 1106.5,-437 1100.5,-431 1100.5,-425 1100.5,-425 1100.5,-413 1100.5,-413 1100.5,-407 1106.5,-401 1112.5,-401 1112.5,-401 1255.5,-401 1255.5,-401 1261.5,-401 1267.5,-407 1267.5,-413 1267.5,-413 1267.5,-425 1267.5,-425 1267.5,-431 1261.5,-437 1255.5,-437"/>
<text text-anchor="middle" x="1184" y="-422.6" font-family="Arial" font-size="10.50">Current round state</text>
<text text-anchor="middle" x="1184" y="-410.6" font-family="Arial" font-size="10.50">standings and previous results</text>
</g>
<!-- pairing -->
<g id="node20" class="node">
<title>pairing</title>
<path fill="#fff1c9" stroke="#9b6a00" stroke-width="1.3" d="M1261.5,-527C1261.5,-527 1106.5,-527 1106.5,-527 1100.5,-527 1094.5,-521 1094.5,-515 1094.5,-515 1094.5,-503 1094.5,-503 1094.5,-497 1100.5,-491 1106.5,-491 1106.5,-491 1261.5,-491 1261.5,-491 1267.5,-491 1273.5,-497 1273.5,-503 1273.5,-503 1273.5,-515 1273.5,-515 1273.5,-521 1267.5,-527 1261.5,-527"/>
<text text-anchor="middle" x="1184" y="-512.6" font-family="Arial" font-size="10.50">Pairing and opponent</text>
<text text-anchor="middle" x="1184" y="-500.6" font-family="Arial" font-size="10.50">format · standings · realised field</text>
</g>
<!-- matchup -->
<g id="node21" class="node">
<title>matchup</title>
<path fill="#fff1c9" stroke="#9b6a00" stroke-width="1.3" d="M1258.5,-617C1258.5,-617 1109.5,-617 1109.5,-617 1103.5,-617 1097.5,-611 1097.5,-605 1097.5,-605 1097.5,-593 1097.5,-593 1097.5,-587 1103.5,-581 1109.5,-581 1109.5,-581 1258.5,-581 1258.5,-581 1264.5,-581 1270.5,-587 1270.5,-593 1270.5,-593 1270.5,-605 1270.5,-605 1270.5,-611 1264.5,-617 1258.5,-617"/>
<text text-anchor="middle" x="1184" y="-602.6" font-family="Arial" font-size="10.50">Actual matchup</text>
<text text-anchor="middle" x="1184" y="-590.6" font-family="Arial" font-size="10.50">both races, builds, and coaches</text>
</g>
<!-- opponent_state -->
<g id="node22" class="node">
<title>opponent_state</title>
<path fill="#fff1c9" stroke="#9b6a00" stroke-width="1.3" d="M1252,-248C1252,-248 1116,-248 1116,-248 1110,-248 1104,-242 1104,-236 1104,-236 1104,-212 1104,-212 1104,-206 1110,-200 1116,-200 1116,-200 1252,-200 1252,-200 1258,-200 1264,-206 1264,-212 1264,-212 1264,-236 1264,-236 1264,-242 1258,-248 1252,-248"/>
<text text-anchor="middle" x="1184" y="-233.6" font-family="Arial" font-size="10.50">Opponent preparedness</text>
<text text-anchor="middle" x="1184" y="-221.6" font-family="Arial" font-size="10.50">race and realised build</text>
<text text-anchor="middle" x="1184" y="-209.6" font-family="Arial" font-size="10.50">(mirrored generative branch)</text>
</g>
<!-- strategy -->
<g id="node23" class="node">
<title>strategy</title>
<path fill="#eeeeee" stroke="#68737d" stroke-width="1.3" d="M1583,-679C1583,-679 1444,-679 1444,-679 1438,-679 1432,-673 1432,-667 1432,-667 1432,-655 1432,-655 1432,-649 1438,-643 1444,-643 1444,-643 1583,-643 1583,-643 1589,-643 1595,-649 1595,-655 1595,-655 1595,-667 1595,-667 1595,-673 1589,-679 1583,-679"/>
<text text-anchor="middle" x="1513.5" y="-664.6" font-family="Arial" font-size="10.50">Match strategy / decisiveness</text>
<text text-anchor="middle" x="1513.5" y="-652.6" font-family="Arial" font-size="10.50">including scoring incentives</text>
</g>
<!-- expected_performance -->
<g id="node24" class="node">
<title>expected_performance</title>
<path fill="#e5e9ec" stroke="#46515c" stroke-width="2.3" d="M1559.5,-346C1559.5,-346 1467.5,-346 1467.5,-346 1461.5,-346 1455.5,-340 1455.5,-334 1455.5,-334 1455.5,-322 1455.5,-322 1455.5,-316 1461.5,-310 1467.5,-310 1467.5,-310 1559.5,-310 1559.5,-310 1565.5,-310 1571.5,-316 1571.5,-322 1571.5,-322 1571.5,-334 1571.5,-334 1571.5,-340 1565.5,-346 1559.5,-346"/>
<text text-anchor="middle" x="1513.5" y="-331.6" font-family="Arial" font-size="10.50">Relative expected</text>
<text text-anchor="middle" x="1513.5" y="-319.6" font-family="Arial" font-size="10.50">match performance</text>
</g>
<!-- stochasticity -->
<g id="node25" class="node">
<title>stochasticity</title>
<path fill="#eeeeee" stroke="#68737d" stroke-width="1.3" d="M1615,-220C1615,-220 1412,-220 1412,-220 1406,-220 1400,-214 1400,-208 1400,-208 1400,-196 1400,-196 1400,-190 1406,-184 1412,-184 1412,-184 1615,-184 1615,-184 1621,-184 1627,-190 1627,-196 1627,-196 1627,-208 1627,-208 1627,-214 1621,-220 1615,-220"/>
<text text-anchor="middle" x="1513.5" y="-205.6" font-family="Arial" font-size="10.50">Game stochasticity</text>
<text text-anchor="middle" x="1513.5" y="-193.6" font-family="Arial" font-size="10.50">dice · kick&#45;offs · weather · game&#45;state path</text>
</g>
<!-- realised_outcome -->
<g id="node26" class="node">
<title>realised_outcome</title>
<path fill="#e5e9ec" stroke="#46515c" stroke-width="2" d="M1570.5,-436C1570.5,-436 1456.5,-436 1456.5,-436 1450.5,-436 1444.5,-430 1444.5,-424 1444.5,-424 1444.5,-412 1444.5,-412 1444.5,-406 1450.5,-400 1456.5,-400 1456.5,-400 1570.5,-400 1570.5,-400 1576.5,-400 1582.5,-406 1582.5,-412 1582.5,-412 1582.5,-424 1582.5,-424 1582.5,-430 1576.5,-436 1570.5,-436"/>
<text text-anchor="middle" x="1513.5" y="-415.6" font-family="Arial" font-size="10.50">Realised game outcome</text>
</g>
<!-- recorded_result -->
<g id="node27" class="node">
<title>recorded_result</title>
<path fill="#e5e9ec" stroke="#46515c" stroke-width="2" d="M1580.5,-526C1580.5,-526 1446.5,-526 1446.5,-526 1440.5,-526 1434.5,-520 1434.5,-514 1434.5,-514 1434.5,-502 1434.5,-502 1434.5,-496 1440.5,-490 1446.5,-490 1446.5,-490 1580.5,-490 1580.5,-490 1586.5,-490 1592.5,-496 1592.5,-502 1592.5,-502 1592.5,-514 1592.5,-514 1592.5,-520 1586.5,-526 1580.5,-526"/>
<text text-anchor="middle" x="1513.5" y="-511.6" font-family="Arial" font-size="10.50">Recorded observation</text>
<text text-anchor="middle" x="1513.5" y="-499.6" font-family="Arial" font-size="10.50">W / D / L · optional TD / CAS</text>
</g>
<!-- next_round -->
<g id="node28" class="node">
<title>next_round</title>
<path fill="#eeeeee" stroke="#68737d" stroke-width="1.3" d="M1605.5,-616C1605.5,-616 1421.5,-616 1421.5,-616 1415.5,-616 1409.5,-610 1409.5,-604 1409.5,-604 1409.5,-592 1409.5,-592 1409.5,-586 1415.5,-580 1421.5,-580 1421.5,-580 1605.5,-580 1605.5,-580 1611.5,-580 1617.5,-586 1617.5,-592 1617.5,-592 1617.5,-604 1617.5,-604 1617.5,-610 1611.5,-616 1605.5,-616"/>
<text text-anchor="middle" x="1513.5" y="-601.6" font-family="Arial" font-size="10.50">Round state at k+1</text>
<text text-anchor="middle" x="1513.5" y="-589.6" font-family="Arial" font-size="10.50">standings · progression · pairing inputs</text>
</g>
<!-- next_event -->
<g id="node29" class="node">
<title>next_event</title>
<path fill="#eeeeee" stroke="#68737d" stroke-width="1.3" d="M1600.5,-283C1600.5,-283 1426.5,-283 1426.5,-283 1420.5,-283 1414.5,-277 1414.5,-271 1414.5,-271 1414.5,-259 1414.5,-259 1414.5,-253 1420.5,-247 1426.5,-247 1426.5,-247 1600.5,-247 1600.5,-247 1606.5,-247 1612.5,-253 1612.5,-259 1612.5,-259 1612.5,-271 1612.5,-271 1612.5,-277 1606.5,-283 1600.5,-283"/>
<text text-anchor="middle" x="1513.5" y="-268.6" font-family="Arial" font-size="10.50">Pre&#45;event state at t+1</text>
<text text-anchor="middle" x="1513.5" y="-256.6" font-family="Arial" font-size="10.50">experience · beliefs · loyalty · access</text>
</g>
</g>
</svg>
