<?xml version="1.0" encoding="UTF-8" standalone="no"?>
<!DOCTYPE svg PUBLIC "-//W3C//DTD SVG 1.1//EN"
 "http://www.w3.org/Graphics/SVG/1.1/DTD/svg11.dtd">
<!-- Generated by graphviz version 2.43.0 (0)
 -->
<!-- Title: PlayerRaceProcessMap Pages: 1 -->
<svg width="1504pt" height="920pt"
 viewBox="0.00 0.00 1504.20 920.20" xmlns="http://www.w3.org/2000/svg" xmlns:xlink="http://www.w3.org/1999/xlink">
<g id="graph0" class="graph" transform="scale(1 1) rotate(0) translate(21.6 898.6)">
<title>PlayerRaceProcessMap</title>
<polygon fill="#ffffff" stroke="transparent" points="-21.6,21.6 -21.6,-898.6 1482.6,-898.6 1482.6,21.6 -21.6,21.6"/>
<text text-anchor="middle" x="392" y="-857" font-family="Arial" font-size="20.00">Coach race&#45;selection and tournament&#45;performance process</text>
<text text-anchor="middle" x="392" y="-835" font-family="Arial" font-size="20.00">Informal conceptual overview — arrows mean plausible influence, not fitted parameters</text>
<g id="clust1" class="cluster">
<title>cluster_upstream</title>
<path fill="#f8f2ff" stroke="#8562b5" stroke-width="1.4" d="M20,-142C20,-142 250,-142 250,-142 256,-142 262,-148 262,-154 262,-154 262,-478 262,-478 262,-484 256,-490 250,-490 250,-490 20,-490 20,-490 14,-490 8,-484 8,-478 8,-478 8,-154 8,-154 8,-148 14,-142 20,-142"/>
<text text-anchor="middle" x="87" y="-475.6" font-family="Arial" font-size="13.00" fill="#56338e">UPSTREAM CONTEXT</text>
</g>
<g id="clust2" class="cluster">
<title>cluster_preevent</title>
<path fill="#eff7ff" stroke="#4f8fc5" stroke-width="1.4" d="M325,-181C325,-181 549,-181 549,-181 555,-181 561,-187 561,-193 561,-193 561,-575 561,-575 561,-581 555,-587 549,-587 549,-587 325,-587 325,-587 319,-587 313,-581 313,-575 313,-575 313,-193 313,-193 313,-187 319,-181 325,-181"/>
<text text-anchor="middle" x="388.5" y="-572.6" font-family="Arial" font-size="13.00" fill="#235d93">BEFORE THE EVENT</text>
</g>
<g id="clust3" class="cluster">
<title>cluster_selection</title>
<path fill="#fff3f5" stroke="#b45a70" stroke-width="1.4" d="M621,-8C621,-8 803,-8 803,-8 809,-8 815,-14 815,-20 815,-20 815,-306 815,-306 815,-312 809,-318 803,-318 803,-318 621,-318 621,-318 615,-318 609,-312 609,-306 609,-306 609,-20 609,-20 609,-14 615,-8 621,-8"/>
<text text-anchor="middle" x="712" y="-303.6" font-family="Arial" font-size="13.00" fill="#8d2940">SELECTION OR ASSIGNMENT</text>
</g>
<g id="clust4" class="cluster">
<title>cluster_realised</title>
<path fill="#fff8e3" stroke="#b17819" stroke-width="1.4" d="M910,-178C910,-178 1128,-178 1128,-178 1134,-178 1140,-184 1140,-190 1140,-190 1140,-602 1140,-602 1140,-608 1134,-614 1128,-614 1128,-614 910,-614 910,-614 904,-614 898,-608 898,-602 898,-602 898,-190 898,-190 898,-184 904,-178 910,-178"/>
<text text-anchor="middle" x="988" y="-599.6" font-family="Arial" font-size="13.00" fill="#77500a">REALISED TOURNAMENT</text>
</g>
<g id="clust5" class="cluster">
<title>cluster_outcome</title>
<path fill="#f4f5f6" stroke="#6f7d89" stroke-width="1.4" d="M1244,-341C1244,-341 1441,-341 1441,-341 1447,-341 1453,-347 1453,-353 1453,-353 1453,-805 1453,-805 1453,-811 1447,-817 1441,-817 1441,-817 1244,-817 1244,-817 1238,-817 1232,-811 1232,-805 1232,-805 1232,-353 1232,-353 1232,-347 1238,-341 1244,-341"/>
<text text-anchor="middle" x="1325.5" y="-802.6" font-family="Arial" font-size="13.00" fill="#46515c">PERFORMANCE AND TIME</text>
</g>
<!-- organizer_context&#45;&gt;pack -->
<g id="edge1" class="edge">
<title>organizer_context:e&#45;&gt;pack:w</title>
<path fill="none" stroke="#9b6a00" stroke-width="1.15" d="M229,-373C229,-373 292.69,-419.38 314.09,-434.96"/>
<polygon fill="#9b6a00" stroke="#9b6a00" stroke-width="1.15" points="312.68,-437.49 321,-440 316.06,-432.85 312.68,-437.49"/>
</g>
<!-- organizer_context&#45;&gt;anticipated_field -->
<g id="edge2" class="edge">
<title>organizer_context:e&#45;&gt;anticipated_field:w</title>
<path fill="none" stroke="#65717d" stroke-width="1.15" d="M229,-373C229,-373 344.95,-372.26 377.56,-372.05"/>
<polygon fill="#65717d" stroke="#65717d" stroke-width="1.15" points="377.82,-374.92 386,-372 377.78,-369.18 377.82,-374.92"/>
</g>
<!-- coach_traits&#45;&gt;actual_competence -->
<g id="edge3" class="edge">
<title>coach_traits:e&#45;&gt;actual_competence:w</title>
<path fill="none" stroke="#004f87" stroke-width="1.8" d="M247,-237C247,-237 296.12,-282.76 313.78,-299.2"/>
<polygon fill="#004f87" stroke="#004f87" stroke-width="1.8" points="312.04,-301.51 320,-305 315.96,-297.31 312.04,-301.51"/>
</g>
<!-- coach_traits&#45;&gt;adaptation -->
<g id="edge18" class="edge">
<title>coach_traits:e&#45;&gt;adaptation:w</title>
<path fill="none" stroke="#65717d" stroke-width="1.15" d="M247,-237C247,-237 313,-174 313,-174 313,-174 568.26,-140.62 618.11,-134.1"/>
<polygon fill="#65717d" stroke="#65717d" stroke-width="1.15" points="618.74,-136.91 626.5,-133 618,-131.22 618.74,-136.91"/>
</g>
<!-- play_history&#45;&gt;actual_competence -->
<g id="edge4" class="edge">
<title>play_history:e&#45;&gt;actual_competence:w</title>
<path fill="none" stroke="#004f87" stroke-width="1.8" d="M220,-305C220,-305 287.29,-305 311.47,-305"/>
<polygon fill="#004f87" stroke="#004f87" stroke-width="1.8" points="311.8,-307.87 320,-305 311.8,-302.13 311.8,-307.87"/>
</g>
<!-- play_history&#45;&gt;perceived_fit -->
<g id="edge9" class="edge">
<title>play_history:e&#45;&gt;perceived_fit:w</title>
<path fill="none" stroke="#65717d" stroke-width="1.15" d="M220,-305C220,-305 337.61,-231.4 367.94,-212.42"/>
<polygon fill="#65717d" stroke="#65717d" stroke-width="1.15" points="369.57,-214.78 375,-208 366.53,-209.92 369.57,-214.78"/>
</g>
<!-- access_loyalty&#45;&gt;selection -->
<g id="edge14" class="edge">
<title>access_loyalty:e&#45;&gt;selection:w</title>
<path fill="none" stroke="#a34259" stroke-width="1.15" d="M233,-169C233,-169 313,-135 313,-135 313,-135 578.69,-52.87 628.5,-37.47"/>
<polygon fill="#a34259" stroke="#a34259" stroke-width="1.15" points="629.51,-40.16 636.5,-35 627.82,-34.68 629.51,-40.16"/>
</g>
<!-- attendance_factors&#45;&gt;attendance -->
<g id="edge5" class="edge">
<title>attendance_factors:e&#45;&gt;attendance:w</title>
<path fill="none" stroke="#65717d" stroke-width="1.15" d="M255,-441C255,-441 335.5,-511.99 358.77,-532.51"/>
<polygon fill="#65717d" stroke="#65717d" stroke-width="1.15" points="356.95,-534.73 365,-538 360.75,-530.42 356.95,-534.73"/>
</g>
<!-- pack&#45;&gt;attendance -->
<g id="edge6" class="edge">
<title>pack:e&#45;&gt;attendance:w</title>
<path fill="none" stroke="#65717d" stroke-width="1.15" d="M365.55,-527.61C365.78,-523.17 366,-519 366,-519 366,-519 389,-484.5 389,-484.5 389,-484.5 552,-459 552,-459 552,-459 553,-440 553,-440"/>
<polygon fill="#65717d" stroke="#65717d" stroke-width="1.15" points="362.57,-529.66 365,-538 368.3,-529.96 362.57,-529.66"/>
<text text-anchor="middle" x="401.5" y="-486.7" font-family="Arial" font-size="8.50" fill="#46515c">appeal</text>
</g>
<!-- pack&#45;&gt;available_choices -->
<g id="edge10" class="edge">
<title>pack:e&#45;&gt;available_choices:w</title>
<path fill="none" stroke="#a34259" stroke-width="1.15" d="M553,-440C553,-440 628.41,-309.08 647.27,-276.35"/>
<polygon fill="#a34259" stroke="#a34259" stroke-width="1.15" points="649.89,-277.54 651.5,-269 644.92,-274.67 649.89,-277.54"/>
</g>
<!-- pack&#45;&gt;perceived_advantage -->
<g id="edge11" class="edge">
<title>pack:e&#45;&gt;perceived_advantage:w</title>
<path fill="none" stroke="#a34259" stroke-width="1.15" d="M553,-440C553,-440 609,-235 609,-235 609,-235 613.39,-219.29 616.2,-209.23"/>
<polygon fill="#a34259" stroke="#a34259" stroke-width="1.15" points="619.06,-209.67 618.5,-201 613.53,-208.13 619.06,-209.67"/>
</g>
<!-- pack&#45;&gt;own_build -->
<g id="edge23" class="edge">
<title>pack:e&#45;&gt;own_build:w</title>
<path fill="none" stroke="#65717d" stroke-width="1.15" d="M553,-440C553,-440 586,-464 586,-464 586,-464 609,-470 609,-470 609,-470 815,-470 815,-470 815,-470 873,-456 873,-456 873,-456 903.28,-341.53 911.8,-309.33"/>
<polygon fill="#65717d" stroke="#65717d" stroke-width="1.15" points="914.68,-309.66 914,-301 909.13,-308.19 914.68,-309.66"/>
</g>
<!-- pack&#45;&gt;pairing -->
<g id="edge26" class="edge">
<title>pack:e&#45;&gt;pairing:w</title>
<path fill="none" stroke="#65717d" stroke-width="1.15" d="M553,-440C553,-440 836,-456 836,-456 836,-456 873,-456 873,-456 873,-456 907.29,-419.8 921.22,-405.1"/>
<polygon fill="#65717d" stroke="#65717d" stroke-width="1.15" points="923.44,-406.93 927,-399 919.28,-402.98 923.44,-406.93"/>
<text text-anchor="middle" x="711.5" y="-456.2" font-family="Arial" font-size="8.50" fill="#46515c">format</text>
</g>
<!-- pack&#45;&gt;strategy -->
<g id="edge33" class="edge">
<title>pack:e&#45;&gt;strategy:w</title>
<path fill="none" stroke="#65717d" stroke-width="1.15" d="M553,-440C553,-440 586,-487 586,-487 586,-487 898,-641 898,-641 898,-641 1196.63,-689.87 1250.29,-698.66"/>
<polygon fill="#65717d" stroke="#65717d" stroke-width="1.15" points="1249.94,-701.51 1258.5,-700 1250.87,-695.84 1249.94,-701.51"/>
<text text-anchor="middle" x="854.5" y="-630.2" font-family="Arial" font-size="8.50" fill="#46515c">scoring</text>
</g>
<!-- attendance&#45;&gt;anticipated_field -->
<g id="edge7" class="edge">
<title>attendance:e&#45;&gt;anticipated_field:w</title>
<path fill="none" stroke="#65717d" stroke-width="1.15" d="M509,-538C509,-538 507.5,-517 507.5,-517 507.5,-517 313,-474 313,-474 313,-474 287.5,-459 287.5,-459 287.5,-459 287.5,-421 287.5,-421 287.5,-421 313,-406 313,-406 313,-406 359.81,-384.2 378.46,-375.51"/>
<polygon fill="#65717d" stroke="#65717d" stroke-width="1.15" points="379.78,-378.06 386,-372 377.35,-372.86 379.78,-378.06"/>
</g>
<!-- attendance&#45;&gt;realised_field -->
<g id="edge20" class="edge">
<title>attendance:e&#45;&gt;realised_field:w</title>
<path fill="none" stroke="#65717d" stroke-width="1.15" d="M509,-538C509,-538 586,-565 586,-565 586,-565 873,-565 873,-565 873,-565 898,-531 898,-531 898,-531 928.48,-511.07 942.77,-501.73"/>
<polygon fill="#65717d" stroke="#65717d" stroke-width="1.15" points="944.71,-503.89 950,-497 941.57,-499.09 944.71,-503.89"/>
</g>
<!-- anticipated_field&#45;&gt;perceived_advantage -->
<g id="edge12" class="edge">
<title>anticipated_field:e&#45;&gt;perceived_advantage:w</title>
<path fill="none" stroke="#a34259" stroke-width="1.15" d="M488,-372C488,-372 561,-338 561,-338 561,-338 603.08,-237.74 615.24,-208.76"/>
<polygon fill="#a34259" stroke="#a34259" stroke-width="1.15" points="617.97,-209.67 618.5,-201 612.68,-207.45 617.97,-209.67"/>
</g>
<!-- anticipated_field&#45;&gt;own_build -->
<g id="edge24" class="edge">
<title>anticipated_field:e&#45;&gt;own_build:w</title>
<path fill="none" stroke="#65717d" stroke-width="1.15" d="M488,-372C488,-372 815,-325 815,-325 815,-325 882.25,-308.7 905.9,-302.96"/>
<polygon fill="#65717d" stroke="#65717d" stroke-width="1.15" points="906.71,-305.72 914,-301 905.35,-300.14 906.71,-305.72"/>
<text text-anchor="middle" x="711.5" y="-356.2" font-family="Arial" font-size="8.50" fill="#46515c">preparation</text>
</g>
<!-- actual_competence&#45;&gt;perceived_fit -->
<g id="edge8" class="edge">
<title>actual_competence:e&#45;&gt;perceived_fit:w</title>
<path fill="none" stroke="#004f87" stroke-width="1.8" d="M375.55,-218.39C375.78,-222.83 376,-227 376,-227 376,-227 553,-287 553,-287 553,-287 554,-305 554,-305"/>
<polygon fill="#004f87" stroke="#004f87" stroke-width="1.8" points="378.3,-216.04 375,-208 372.57,-216.34 378.3,-216.04"/>
</g>
<!-- actual_competence&#45;&gt;performance -->
<g id="edge30" class="edge">
<title>actual_competence:e&#45;&gt;performance:w</title>
<path fill="none" stroke="#004f87" stroke-width="2.5" d="M554,-305C554,-305 609,-322 609,-322 609,-322 815,-362 815,-362 815,-362 836,-456 836,-456 836,-456 898,-618 898,-618 898,-618 1140,-618 1140,-618 1140,-618 1207,-575 1207,-575 1207,-575 1238.41,-550.47 1252.64,-539.36"/>
<polygon fill="#004f87" stroke="#004f87" stroke-width="2.5" points="1254.8,-541.31 1259.5,-534 1251.27,-536.79 1254.8,-541.31"/>
</g>
<!-- perceived_fit&#45;&gt;perceived_advantage -->
<g id="edge13" class="edge">
<title>perceived_fit:e&#45;&gt;perceived_advantage:w</title>
<path fill="none" stroke="#a34259" stroke-width="1.15" d="M499,-208C499,-208 583.29,-203.06 610.29,-201.48"/>
<polygon fill="#a34259" stroke="#a34259" stroke-width="1.15" points="610.48,-204.34 618.5,-201 610.15,-198.61 610.48,-204.34"/>
</g>
<!-- available_choices&#45;&gt;selection -->
<g id="edge15" class="edge">
<title>available_choices:e&#45;&gt;selection:w</title>
<path fill="none" stroke="#a34259" stroke-width="1.15" d="M771.5,-269C771.5,-269 770.5,-248 770.5,-248 770.5,-248 609,-235 609,-235 609,-235 585,-220 585,-220 585,-220 585,-114 585,-114 585,-114 619.33,-61.34 631.93,-42.01"/>
<polygon fill="#a34259" stroke="#a34259" stroke-width="1.15" points="634.43,-43.44 636.5,-35 629.62,-40.3 634.43,-43.44"/>
</g>
<!-- perceived_advantage&#45;&gt;selection -->
<g id="edge16" class="edge">
<title>perceived_advantage:e&#45;&gt;selection:w</title>
<path fill="none" stroke="#a34259" stroke-width="1.15" d="M804.5,-201C804.5,-201 803,-180 803,-180 803,-180 609,-167 609,-167 609,-167 585,-152 585,-152 585,-152 585,-114 585,-114 585,-114 619.33,-61.34 631.93,-42.01"/>
<polygon fill="#a34259" stroke="#a34259" stroke-width="1.15" points="634.43,-43.44 636.5,-35 629.62,-40.3 634.43,-43.44"/>
</g>
<!-- adaptation&#45;&gt;selection -->
<g id="edge17" class="edge">
<title>adaptation:e&#45;&gt;selection:w</title>
<path fill="none" stroke="#a34259" stroke-width="1.15" d="M637.05,-45.39C637.28,-49.83 637.5,-54 637.5,-54 637.5,-54 795.5,-114 795.5,-114 795.5,-114 796.5,-133 796.5,-133"/>
<polygon fill="#a34259" stroke="#a34259" stroke-width="1.15" points="639.8,-43.04 636.5,-35 634.07,-43.34 639.8,-43.04"/>
</g>
<!-- selection&#45;&gt;race_played -->
<g id="edge19" class="edge">
<title>selection:e&#45;&gt;race_played:w</title>
<path fill="none" stroke="#8d2940" stroke-width="2" d="M786.5,-35C786.5,-35 936.02,-169.05 968.73,-198.38"/>
<polygon fill="#8d2940" stroke="#8d2940" stroke-width="2" points="966.98,-200.66 975,-204 970.81,-196.39 966.98,-200.66"/>
</g>
<!-- race_played&#45;&gt;realised_field -->
<g id="edge21" class="edge">
<title>race_played:e&#45;&gt;realised_field:w</title>
<path fill="none" stroke="#65717d" stroke-width="1.15" d="M1063,-204C1063,-204 1061.5,-222 1061.5,-222 1061.5,-222 898,-267 898,-267 898,-267 863,-439.5 863,-439.5 863,-439.5 863,-448.5 863,-448.5 863,-448.5 921.54,-481.14 942.58,-492.86"/>
<polygon fill="#65717d" stroke="#65717d" stroke-width="1.15" points="941.44,-495.51 950,-497 944.24,-490.5 941.44,-495.51"/>
<text text-anchor="middle" x="854.5" y="-441.7" font-family="Arial" font-size="8.50" fill="#46515c">aggregate</text>
</g>
<!-- race_played&#45;&gt;realised_field -->
<!-- race_played&#45;&gt;own_build -->
<g id="edge22" class="edge">
<title>race_played:e&#45;&gt;own_build:w</title>
<path fill="none" stroke="#65717d" stroke-width="1.15" d="M914.55,-290.61C914.78,-286.17 915,-282 915,-282 915,-282 1062,-222 1062,-222 1062,-222 1063,-204 1063,-204"/>
<polygon fill="#65717d" stroke="#65717d" stroke-width="1.15" points="911.57,-292.66 914,-301 917.3,-292.96 911.57,-292.66"/>
</g>
<!-- race_played&#45;&gt;matchup -->
<g id="edge27" class="edge">
<title>race_played:e&#45;&gt;matchup:w</title>
<path fill="none" stroke="#65717d" stroke-width="1.15" d="M1063,-204C1063,-204 1061.5,-222 1061.5,-222 1061.5,-222 898,-267 898,-267 898,-267 856.5,-282 856.5,-282 856.5,-282 856.5,-516 856.5,-516 856.5,-516 886.1,-545.91 899.05,-558.99"/>
<polygon fill="#65717d" stroke="#65717d" stroke-width="1.15" points="897.19,-561.19 905,-565 901.27,-557.15 897.19,-561.19"/>
</g>
<!-- race_played&#45;&gt;next_event -->
<g id="edge39" class="edge">
<title>race_played:e&#45;&gt;next_event:w</title>
<path fill="none" stroke="#65717d" stroke-width="1.15" d="M1063,-204C1063,-204 1140,-267 1140,-267 1140,-267 1213.6,-340.24 1235.45,-361.98"/>
<polygon fill="#65717d" stroke="#65717d" stroke-width="1.15" points="1233.66,-364.25 1241.5,-368 1237.71,-360.18 1233.66,-364.25"/>
<text text-anchor="middle" x="1186" y="-334.2" font-family="Arial" font-size="8.50" fill="#46515c">experience</text>
</g>
<!-- realised_field&#45;&gt;own_build -->
<!-- realised_field&#45;&gt;pairing -->
<g id="edge25" class="edge">
<title>realised_field:e&#45;&gt;pairing:w</title>
<path fill="none" stroke="#65717d" stroke-width="1.15" d="M927.55,-409.39C927.78,-413.83 928,-418 928,-418 928,-418 1087,-478 1087,-478 1087,-478 1088,-497 1088,-497"/>
<polygon fill="#65717d" stroke="#65717d" stroke-width="1.15" points="930.3,-407.04 927,-399 924.57,-407.34 930.3,-407.04"/>
</g>
<!-- own_build&#45;&gt;pairing -->
<!-- own_build&#45;&gt;matchup -->
<g id="edge29" class="edge">
<title>own_build:e&#45;&gt;matchup:w</title>
<path fill="none" stroke="#65717d" stroke-width="1.15" d="M1124,-301C1124,-301 1123,-320 1123,-320 1123,-320 898,-365 898,-365 898,-365 856.5,-380 856.5,-380 856.5,-380 856.5,-516 856.5,-516 856.5,-516 886.1,-545.91 899.05,-558.99"/>
<polygon fill="#65717d" stroke="#65717d" stroke-width="1.15" points="897.19,-561.19 905,-565 901.27,-557.15 897.19,-561.19"/>
</g>
<!-- own_build&#45;&gt;performance -->
<g id="edge32" class="edge">
<title>own_build:e&#45;&gt;performance:w</title>
<path fill="none" stroke="#65717d" stroke-width="1.15" d="M1124,-301C1124,-301 1232.43,-487.44 1255.3,-526.77"/>
<polygon fill="#65717d" stroke="#65717d" stroke-width="1.15" points="1252.9,-528.35 1259.5,-534 1257.86,-525.47 1252.9,-528.35"/>
</g>
<!-- pairing&#45;&gt;matchup -->
<g id="edge28" class="edge">
<title>pairing:e&#45;&gt;matchup:w</title>
<path fill="none" stroke="#65717d" stroke-width="1.15" d="M1111,-399C1111,-399 1109.5,-418 1109.5,-418 1109.5,-418 898,-463 898,-463 898,-463 870.33,-473 870.33,-473 870.33,-473 870.33,-521 870.33,-521 870.33,-521 890.24,-546.27 899.88,-558.51"/>
<polygon fill="#65717d" stroke="#65717d" stroke-width="1.15" points="897.67,-560.34 905,-565 902.18,-556.78 897.67,-560.34"/>
</g>
<!-- pairing&#45;&gt;matchup -->
<!-- matchup&#45;&gt;performance -->
<g id="edge31" class="edge">
<title>matchup:e&#45;&gt;performance:w</title>
<path fill="none" stroke="#77500a" stroke-width="1.7" d="M1133,-565C1133,-565 1223.06,-542.93 1251.2,-536.03"/>
<polygon fill="#77500a" stroke="#77500a" stroke-width="1.7" points="1252.22,-538.74 1259.5,-534 1250.85,-533.16 1252.22,-538.74"/>
</g>
<!-- strategy&#45;&gt;performance -->
<g id="edge34" class="edge">
<title>strategy:e&#45;&gt;performance:w</title>
<path fill="none" stroke="#65717d" stroke-width="1.15" d="M1426.5,-700C1426.5,-700 1425,-679 1425,-679 1425,-679 1232,-666 1232,-666 1232,-666 1201.33,-656 1201.33,-656 1201.33,-656 1201.33,-608 1201.33,-608 1201.33,-608 1240.1,-558.68 1254.34,-540.57"/>
<polygon fill="#65717d" stroke="#65717d" stroke-width="1.15" points="1256.69,-542.22 1259.5,-534 1252.18,-538.67 1256.69,-542.22"/>
</g>
<!-- strategy&#45;&gt;performance -->
<!-- performance&#45;&gt;stochasticity -->
<!-- performance&#45;&gt;result -->
<g id="edge35" class="edge">
<title>performance:e&#45;&gt;result:w</title>
<path fill="none" stroke="#46515c" stroke-width="2.2" d="M1255.05,-621.61C1255.28,-617.17 1255.5,-613 1255.5,-613 1255.5,-613 1424.5,-553 1424.5,-553 1424.5,-553 1425.5,-534 1425.5,-534"/>
<polygon fill="#46515c" stroke="#46515c" stroke-width="2.2" points="1252.07,-623.66 1254.5,-632 1257.8,-623.96 1252.07,-623.66"/>
</g>
<!-- stochasticity&#45;&gt;result -->
<g id="edge36" class="edge">
<title>stochasticity:e&#45;&gt;result:w</title>
<path fill="none" stroke="#65717d" stroke-width="1.15" d="M1445.5,-436C1445.5,-436 1445,-455 1445,-455 1445,-455 1232,-500 1232,-500 1232,-500 1201.33,-510 1201.33,-510 1201.33,-510 1201.33,-558 1201.33,-558 1201.33,-558 1236.43,-606.85 1249.59,-625.17"/>
<polygon fill="#65717d" stroke="#65717d" stroke-width="1.15" points="1247.38,-627.02 1254.5,-632 1252.05,-623.67 1247.38,-627.02"/>
</g>
<!-- stochasticity&#45;&gt;result -->
<!-- result&#45;&gt;next_round -->
<g id="edge37" class="edge">
<title>result:e&#45;&gt;next_round:w</title>
<path fill="none" stroke="#65717d" stroke-width="1.15" d="M1430.5,-632C1430.5,-632 1429,-651 1429,-651 1429,-651 1232,-666 1232,-666 1232,-666 1201.33,-676 1201.33,-676 1201.33,-676 1201.33,-724 1201.33,-724 1201.33,-724 1223.83,-749.27 1234.72,-761.51"/>
<polygon fill="#65717d" stroke="#65717d" stroke-width="1.15" points="1232.9,-763.78 1240.5,-768 1237.19,-759.97 1232.9,-763.78"/>
</g>
<!-- result&#45;&gt;next_round -->
<!-- result&#45;&gt;next_event -->
<g id="edge38" class="edge">
<title>result:e&#45;&gt;next_event:w</title>
<path fill="none" stroke="#65717d" stroke-width="1.15" d="M1430.5,-632C1430.5,-632 1429,-611 1429,-611 1429,-611 1232,-568 1232,-568 1232,-568 1186,-553 1186,-553 1186,-553 1186,-417 1186,-417 1186,-417 1220.56,-386.49 1235.13,-373.62"/>
<polygon fill="#65717d" stroke="#65717d" stroke-width="1.15" points="1237.25,-375.58 1241.5,-368 1233.45,-371.28 1237.25,-375.58"/>
</g>
<!-- next_round&#45;&gt;pairing -->
<g id="edge40" class="edge">
<title>next_round:w&#45;&gt;pairing:e</title>
<path fill="none" stroke="#68737d" stroke-width="1.15" stroke-dasharray="5,2" d="M1240.5,-768C1240.5,-768 1232,-734 1232,-734 1232,-734 1207,-279 1207,-279 1207,-279 1165,-279 1165,-279 1165,-279 1140,-335 1140,-335 1140,-335 1122.3,-374.06 1114.56,-391.15"/>
<polygon fill="#68737d" stroke="#68737d" stroke-width="1.15" points="1111.77,-390.35 1111,-399 1117,-392.72 1111.77,-390.35"/>
<text text-anchor="middle" x="1186" y="-281.2" font-family="Arial" font-size="8.50" fill="#46515c">next round</text>
</g>
<!-- next_round&#45;&gt;next_event -->
<!-- organizer_context -->
<g id="node1" class="node">
<title>organizer_context</title>
<path fill="#fff1c9" stroke="#9b6a00" stroke-width="1.3" d="M216,-392C216,-392 54,-392 54,-392 48,-392 42,-386 42,-380 42,-380 42,-366 42,-366 42,-360 48,-354 54,-354 54,-354 216,-354 216,-354 222,-354 228,-360 228,-366 228,-366 228,-380 228,-380 228,-386 222,-392 216,-392"/>
<text text-anchor="middle" x="135" y="-376.2" font-family="Arial" font-size="11.00">Historical race results · local meta</text>
<text text-anchor="middle" x="135" y="-364.2" font-family="Arial" font-size="11.00">organiser goals and event identity</text>
</g>
<!-- coach_traits -->
<g id="node2" class="node">
<title>coach_traits</title>
<path fill="#eadfff" stroke="#6842a6" stroke-width="1.3" d="M234.5,-256C234.5,-256 35.5,-256 35.5,-256 29.5,-256 23.5,-250 23.5,-244 23.5,-244 23.5,-230 23.5,-230 23.5,-224 29.5,-218 35.5,-218 35.5,-218 234.5,-218 234.5,-218 240.5,-218 246.5,-224 246.5,-230 246.5,-230 246.5,-244 246.5,-244 246.5,-250 240.5,-256 234.5,-256"/>
<text text-anchor="middle" x="135" y="-240.2" font-family="Arial" font-size="11.00">Coach talent · Bash/Ag aptitude</text>
<text text-anchor="middle" x="135" y="-228.2" font-family="Arial" font-size="11.00">learning capacity · competitive investment</text>
</g>
<!-- play_history -->
<g id="node3" class="node">
<title>play_history</title>
<path fill="#eadfff" stroke="#6842a6" stroke-width="1.3" d="M207,-324C207,-324 63,-324 63,-324 57,-324 51,-318 51,-312 51,-312 51,-298 51,-298 51,-292 57,-286 63,-286 63,-286 207,-286 207,-286 213,-286 219,-292 219,-298 219,-298 219,-312 219,-312 219,-318 213,-324 207,-324"/>
<text text-anchor="middle" x="135" y="-308.2" font-family="Arial" font-size="11.00">Prior play and preparation</text>
<text text-anchor="middle" x="135" y="-296.2" font-family="Arial" font-size="11.00">NAF · league · online · casual</text>
</g>
<!-- access_loyalty -->
<g id="node4" class="node">
<title>access_loyalty</title>
<path fill="#eadfff" stroke="#6842a6" stroke-width="1.3" d="M219.5,-188C219.5,-188 50.5,-188 50.5,-188 44.5,-188 38.5,-182 38.5,-176 38.5,-176 38.5,-162 38.5,-162 38.5,-156 44.5,-150 50.5,-150 50.5,-150 219.5,-150 219.5,-150 225.5,-150 231.5,-156 231.5,-162 231.5,-162 231.5,-176 231.5,-176 231.5,-182 225.5,-188 219.5,-188"/>
<text text-anchor="middle" x="135" y="-172.2" font-family="Arial" font-size="11.00">Practical access and loyalty</text>
<text text-anchor="middle" x="135" y="-160.2" font-family="Arial" font-size="11.00">miniatures · borrowing · preference</text>
</g>
<!-- attendance_factors -->
<g id="node5" class="node">
<title>attendance_factors</title>
<path fill="#eadfff" stroke="#6842a6" stroke-width="1.3" d="M242,-460C242,-460 28,-460 28,-460 22,-460 16,-454 16,-448 16,-448 16,-434 16,-434 16,-428 22,-422 28,-422 28,-422 242,-422 242,-422 248,-422 254,-428 254,-434 254,-434 254,-448 254,-448 254,-454 248,-460 242,-460"/>
<text text-anchor="middle" x="135" y="-444.2" font-family="Arial" font-size="11.00">Attendance factors</text>
<text text-anchor="middle" x="135" y="-432.2" font-family="Arial" font-size="11.00">travel · money · time · prestige · pack appeal</text>
</g>
<!-- pack -->
<g id="node6" class="node">
<title>pack</title>
<path fill="#fff1c9" stroke="#9b6a00" stroke-width="1.3" d="M539.5,-459C539.5,-459 334.5,-459 334.5,-459 328.5,-459 322.5,-453 322.5,-447 322.5,-447 322.5,-433 322.5,-433 322.5,-427 328.5,-421 334.5,-421 334.5,-421 539.5,-421 539.5,-421 545.5,-421 551.5,-427 551.5,-433 551.5,-433 551.5,-447 551.5,-447 551.5,-453 545.5,-459 539.5,-459"/>
<text text-anchor="middle" x="437" y="-443.2" font-family="Arial" font-size="11.00">Rules pack</text>
<text text-anchor="middle" x="437" y="-431.2" font-family="Arial" font-size="11.00">legality · resources · scoring · event format</text>
</g>
<!-- attendance -->
<g id="node7" class="node">
<title>attendance</title>
<path fill="#dcecff" stroke="#2867a3" stroke-width="1.3" d="M495.5,-557C495.5,-557 378.5,-557 378.5,-557 372.5,-557 366.5,-551 366.5,-545 366.5,-545 366.5,-531 366.5,-531 366.5,-525 372.5,-519 378.5,-519 378.5,-519 495.5,-519 495.5,-519 501.5,-519 507.5,-525 507.5,-531 507.5,-531 507.5,-545 507.5,-545 507.5,-551 501.5,-557 495.5,-557"/>
<text text-anchor="middle" x="437" y="-541.2" font-family="Arial" font-size="11.00">Attendance and realised</text>
<text text-anchor="middle" x="437" y="-529.2" font-family="Arial" font-size="11.00">coach pool</text>
</g>
<!-- anticipated_field -->
<g id="node8" class="node">
<title>anticipated_field</title>
<path fill="#dcecff" stroke="#2867a3" stroke-width="1.3" d="M475,-391C475,-391 399,-391 399,-391 393,-391 387,-385 387,-379 387,-379 387,-365 387,-365 387,-359 393,-353 399,-353 399,-353 475,-353 475,-353 481,-353 487,-359 487,-365 487,-365 487,-379 487,-379 487,-385 481,-391 475,-391"/>
<text text-anchor="middle" x="437" y="-375.2" font-family="Arial" font-size="11.00">Anticipated field</text>
<text text-anchor="middle" x="437" y="-363.2" font-family="Arial" font-size="11.00">and public meta</text>
</g>
<!-- actual_competence -->
<g id="node9" class="node">
<title>actual_competence</title>
<path fill="#ccecff" stroke="#004f87" stroke-width="2.8" d="M541,-323C541,-323 333,-323 333,-323 327,-323 321,-317 321,-311 321,-311 321,-299 321,-299 321,-293 327,-287 333,-287 333,-287 541,-287 541,-287 547,-287 553,-293 553,-299 553,-299 553,-311 553,-311 553,-317 547,-323 541,-323"/>
<text text-anchor="middle" x="437" y="-302.2" font-family="Arial" font-size="11.00">ACTUAL COACH–RACE COMPETENCE</text>
</g>
<!-- perceived_fit -->
<g id="node10" class="node">
<title>perceived_fit</title>
<path fill="#dcecff" stroke="#2867a3" stroke-width="1.3" d="M486,-227C486,-227 388,-227 388,-227 382,-227 376,-221 376,-215 376,-215 376,-201 376,-201 376,-195 382,-189 388,-189 388,-189 486,-189 486,-189 492,-189 498,-195 498,-201 498,-201 498,-215 498,-215 498,-221 492,-227 486,-227"/>
<text text-anchor="middle" x="437" y="-211.2" font-family="Arial" font-size="11.00">Coach/captain belief</text>
<text text-anchor="middle" x="437" y="-199.2" font-family="Arial" font-size="11.00">about personal fit</text>
</g>
<!-- available_choices -->
<g id="node11" class="node">
<title>available_choices</title>
<path fill="#ffe0e6" stroke="#9d3850" stroke-width="1.3" d="M758.5,-288C758.5,-288 664.5,-288 664.5,-288 658.5,-288 652.5,-282 652.5,-276 652.5,-276 652.5,-262 652.5,-262 652.5,-256 658.5,-250 664.5,-250 664.5,-250 758.5,-250 758.5,-250 764.5,-250 770.5,-256 770.5,-262 770.5,-262 770.5,-276 770.5,-276 770.5,-282 764.5,-288 758.5,-288"/>
<text text-anchor="middle" x="711.5" y="-272.2" font-family="Arial" font-size="11.00">Available races and</text>
<text text-anchor="middle" x="711.5" y="-260.2" font-family="Arial" font-size="11.00">squad constraints</text>
</g>
<!-- perceived_advantage -->
<g id="node12" class="node">
<title>perceived_advantage</title>
<path fill="#ffe0e6" stroke="#9d3850" stroke-width="1.3" d="M791,-220C791,-220 632,-220 632,-220 626,-220 620,-214 620,-208 620,-208 620,-194 620,-194 620,-188 626,-182 632,-182 632,-182 791,-182 791,-182 797,-182 803,-188 803,-194 803,-194 803,-208 803,-208 803,-214 797,-220 791,-220"/>
<text text-anchor="middle" x="711.5" y="-204.2" font-family="Arial" font-size="11.00">Perceived competitive advantage</text>
<text text-anchor="middle" x="711.5" y="-192.2" font-family="Arial" font-size="11.00">pack fit · field fit · personal fit</text>
</g>
<!-- adaptation -->
<g id="node13" class="node">
<title>adaptation</title>
<path fill="#ffe0e6" stroke="#9d3850" stroke-width="1.3" d="M783.5,-152C783.5,-152 639.5,-152 639.5,-152 633.5,-152 627.5,-146 627.5,-140 627.5,-140 627.5,-126 627.5,-126 627.5,-120 633.5,-114 639.5,-114 639.5,-114 783.5,-114 783.5,-114 789.5,-114 795.5,-120 795.5,-126 795.5,-126 795.5,-140 795.5,-140 795.5,-146 789.5,-152 783.5,-152"/>
<text text-anchor="middle" x="711.5" y="-136.2" font-family="Arial" font-size="11.00">Competitive adaptation</text>
<text text-anchor="middle" x="711.5" y="-124.2" font-family="Arial" font-size="11.00">response to an available edge</text>
</g>
<!-- selection -->
<g id="node14" class="node">
<title>selection</title>
<path fill="#ffd2dc" stroke="#8d2940" stroke-width="2.4" d="M774,-54C774,-54 649,-54 649,-54 643,-54 637,-48 637,-42 637,-42 637,-28 637,-28 637,-22 643,-16 649,-16 649,-16 774,-16 774,-16 780,-16 786,-22 786,-28 786,-28 786,-42 786,-42 786,-48 780,-54 774,-54"/>
<text text-anchor="middle" x="711.5" y="-38.2" font-family="Arial" font-size="11.00">Individual choice or</text>
<text text-anchor="middle" x="711.5" y="-26.2" font-family="Arial" font-size="11.00">captain/squad assignment</text>
</g>
<!-- race_played -->
<g id="node15" class="node">
<title>race_played</title>
<path fill="#fff1c9" stroke="#9b6a00" stroke-width="1.3" d="M1049.5,-222C1049.5,-222 988.5,-222 988.5,-222 982.5,-222 976.5,-216 976.5,-210 976.5,-210 976.5,-198 976.5,-198 976.5,-192 982.5,-186 988.5,-186 988.5,-186 1049.5,-186 1049.5,-186 1055.5,-186 1061.5,-192 1061.5,-198 1061.5,-198 1061.5,-210 1061.5,-210 1061.5,-216 1055.5,-222 1049.5,-222"/>
<text text-anchor="middle" x="1019" y="-201.2" font-family="Arial" font-size="11.00">Race played</text>
</g>
<!-- realised_field -->
<g id="node16" class="node">
<title>realised_field</title>
<path fill="#fff1c9" stroke="#9b6a00" stroke-width="1.3" d="M1074.5,-516C1074.5,-516 963.5,-516 963.5,-516 957.5,-516 951.5,-510 951.5,-504 951.5,-504 951.5,-490 951.5,-490 951.5,-484 957.5,-478 963.5,-478 963.5,-478 1074.5,-478 1074.5,-478 1080.5,-478 1086.5,-484 1086.5,-490 1086.5,-490 1086.5,-504 1086.5,-504 1086.5,-510 1080.5,-516 1074.5,-516"/>
<text text-anchor="middle" x="1019" y="-500.2" font-family="Arial" font-size="11.00">Aggregate choices and</text>
<text text-anchor="middle" x="1019" y="-488.2" font-family="Arial" font-size="11.00">realised field</text>
</g>
<!-- own_build -->
<g id="node17" class="node">
<title>own_build</title>
<path fill="#fff1c9" stroke="#9b6a00" stroke-width="1.3" d="M1111,-320C1111,-320 927,-320 927,-320 921,-320 915,-314 915,-308 915,-308 915,-294 915,-294 915,-288 921,-282 927,-282 927,-282 1111,-282 1111,-282 1117,-282 1123,-288 1123,-294 1123,-294 1123,-308 1123,-308 1123,-314 1117,-320 1111,-320"/>
<text text-anchor="middle" x="1019" y="-304.2" font-family="Arial" font-size="11.00">Own realised roster/build</text>
<text text-anchor="middle" x="1019" y="-292.2" font-family="Arial" font-size="11.00">resources · skills · stars · inducements</text>
</g>
<!-- pairing -->
<g id="node18" class="node">
<title>pairing</title>
<path fill="#fff1c9" stroke="#9b6a00" stroke-width="1.3" d="M1097.5,-418C1097.5,-418 940.5,-418 940.5,-418 934.5,-418 928.5,-412 928.5,-406 928.5,-406 928.5,-392 928.5,-392 928.5,-386 934.5,-380 940.5,-380 940.5,-380 1097.5,-380 1097.5,-380 1103.5,-380 1109.5,-386 1109.5,-392 1109.5,-392 1109.5,-406 1109.5,-406 1109.5,-412 1103.5,-418 1097.5,-418"/>
<text text-anchor="middle" x="1019" y="-402.2" font-family="Arial" font-size="11.00">Pairing and opponent</text>
<text text-anchor="middle" x="1019" y="-390.2" font-family="Arial" font-size="11.00">format · standings · realised field</text>
</g>
<!-- matchup -->
<g id="node19" class="node">
<title>matchup</title>
<path fill="#fff1c9" stroke="#9b6a00" stroke-width="1.3" d="M1120,-584C1120,-584 918,-584 918,-584 912,-584 906,-578 906,-572 906,-572 906,-558 906,-558 906,-552 912,-546 918,-546 918,-546 1120,-546 1120,-546 1126,-546 1132,-552 1132,-558 1132,-558 1132,-572 1132,-572 1132,-578 1126,-584 1120,-584"/>
<text text-anchor="middle" x="1019" y="-568.2" font-family="Arial" font-size="11.00">Actual matchup</text>
<text text-anchor="middle" x="1019" y="-556.2" font-family="Arial" font-size="11.00">own race/build versus opponent race/build</text>
</g>
<!-- strategy -->
<g id="node20" class="node">
<title>strategy</title>
<path fill="#eeeeee" stroke="#68737d" stroke-width="1.3" d="M1413,-719C1413,-719 1272,-719 1272,-719 1266,-719 1260,-713 1260,-707 1260,-707 1260,-693 1260,-693 1260,-687 1266,-681 1272,-681 1272,-681 1413,-681 1413,-681 1419,-681 1425,-687 1425,-693 1425,-693 1425,-707 1425,-707 1425,-713 1419,-719 1413,-719"/>
<text text-anchor="middle" x="1342.5" y="-703.2" font-family="Arial" font-size="11.00">Match strategy / decisiveness</text>
<text text-anchor="middle" x="1342.5" y="-691.2" font-family="Arial" font-size="11.00">including scoring incentives</text>
</g>
<!-- performance -->
<g id="node21" class="node">
<title>performance</title>
<path fill="#e5e9ec" stroke="#46515c" stroke-width="2.3" d="M1412.5,-553C1412.5,-553 1272.5,-553 1272.5,-553 1266.5,-553 1260.5,-547 1260.5,-541 1260.5,-541 1260.5,-527 1260.5,-527 1260.5,-521 1266.5,-515 1272.5,-515 1272.5,-515 1412.5,-515 1412.5,-515 1418.5,-515 1424.5,-521 1424.5,-527 1424.5,-527 1424.5,-541 1424.5,-541 1424.5,-547 1418.5,-553 1412.5,-553"/>
<text text-anchor="middle" x="1342.5" y="-537.2" font-family="Arial" font-size="11.00">Relative match performance</text>
<text text-anchor="middle" x="1342.5" y="-525.2" font-family="Arial" font-size="11.00">both coaches and both builds</text>
</g>
<!-- stochasticity -->
<g id="node22" class="node">
<title>stochasticity</title>
<path fill="#eeeeee" stroke="#68737d" stroke-width="1.3" d="M1433,-455C1433,-455 1252,-455 1252,-455 1246,-455 1240,-449 1240,-443 1240,-443 1240,-429 1240,-429 1240,-423 1246,-417 1252,-417 1252,-417 1433,-417 1433,-417 1439,-417 1445,-423 1445,-429 1445,-429 1445,-443 1445,-443 1445,-449 1439,-455 1433,-455"/>
<text text-anchor="middle" x="1342.5" y="-439.2" font-family="Arial" font-size="11.00">Game stochasticity</text>
<text text-anchor="middle" x="1342.5" y="-427.2" font-family="Arial" font-size="11.00">dice · kick&#45;offs · weather · game state</text>
</g>
<!-- result -->
<g id="node23" class="node">
<title>result</title>
<path fill="#e5e9ec" stroke="#46515c" stroke-width="2" d="M1417,-651C1417,-651 1268,-651 1268,-651 1262,-651 1256,-645 1256,-639 1256,-639 1256,-625 1256,-625 1256,-619 1262,-613 1268,-613 1268,-613 1417,-613 1417,-613 1423,-613 1429,-619 1429,-625 1429,-625 1429,-639 1429,-639 1429,-645 1423,-651 1417,-651"/>
<text text-anchor="middle" x="1342.5" y="-635.2" font-family="Arial" font-size="11.00">Match result</text>
<text text-anchor="middle" x="1342.5" y="-623.2" font-family="Arial" font-size="11.00">W / D / L and optional TD/CAS</text>
</g>
<!-- next_round -->
<g id="node24" class="node">
<title>next_round</title>
<path fill="#eeeeee" stroke="#68737d" stroke-width="1.3" d="M1431.5,-787C1431.5,-787 1253.5,-787 1253.5,-787 1247.5,-787 1241.5,-781 1241.5,-775 1241.5,-775 1241.5,-761 1241.5,-761 1241.5,-755 1247.5,-749 1253.5,-749 1253.5,-749 1431.5,-749 1431.5,-749 1437.5,-749 1443.5,-755 1443.5,-761 1443.5,-761 1443.5,-775 1443.5,-775 1443.5,-781 1437.5,-787 1431.5,-787"/>
<text text-anchor="middle" x="1342.5" y="-771.2" font-family="Arial" font-size="11.00">Later round state</text>
<text text-anchor="middle" x="1342.5" y="-759.2" font-family="Arial" font-size="11.00">standings · next pairing · progression</text>
</g>
<!-- next_event -->
<g id="node25" class="node">
<title>next_event</title>
<path fill="#eeeeee" stroke="#68737d" stroke-width="1.3" d="M1430.5,-387C1430.5,-387 1254.5,-387 1254.5,-387 1248.5,-387 1242.5,-381 1242.5,-375 1242.5,-375 1242.5,-361 1242.5,-361 1242.5,-355 1248.5,-349 1254.5,-349 1254.5,-349 1430.5,-349 1430.5,-349 1436.5,-349 1442.5,-355 1442.5,-361 1442.5,-361 1442.5,-375 1442.5,-375 1442.5,-381 1436.5,-387 1430.5,-387"/>
<text text-anchor="middle" x="1342.5" y="-371.2" font-family="Arial" font-size="11.00">Later event state</text>
<text text-anchor="middle" x="1342.5" y="-359.2" font-family="Arial" font-size="11.00">experience · beliefs · loyalty · access</text>
</g>
</g>
</svg>
