<?xml version="1.0" encoding="UTF-8" standalone="no"?>
<!DOCTYPE svg PUBLIC "-//W3C//DTD SVG 1.1//EN"
 "http://www.w3.org/Graphics/SVG/1.1/DTD/svg11.dtd">
<!-- Generated by graphviz version 2.43.0 (0)
 -->
<!-- Title: PlayerRaceProxyMap Pages: 1 -->
<svg width="640pt" height="662pt"
 viewBox="0.00 0.00 640.40 662.40" xmlns="http://www.w3.org/2000/svg" xmlns:xlink="http://www.w3.org/1999/xlink">
<g id="graph0" class="graph" transform="scale(1 1) rotate(0) translate(25.2 637.2)">
<title>PlayerRaceProxyMap</title>
<polygon fill="#ffffff" stroke="transparent" points="-25.2,25.2 -25.2,-637.2 615.2,-637.2 615.2,25.2 -25.2,25.2"/>
<text text-anchor="middle" x="295" y="-593.6" font-family="Arial" font-size="18.00">Observed NAF data and possible latent interpretations</text>
<text text-anchor="middle" x="295" y="-573.6" font-family="Arial" font-size="18.00">Noncausal proxy map; dotted links mean &#39;may contain information about&#39;</text>
<g id="clust1" class="cluster">
<title>cluster_data</title>
<path fill="#f0fbf1" stroke="#69a66f" d="M75.5,-144C75.5,-144 243.5,-144 243.5,-144 249.5,-144 255.5,-150 255.5,-156 255.5,-156 255.5,-408 255.5,-408 255.5,-414 249.5,-420 243.5,-420 243.5,-420 75.5,-420 75.5,-420 69.5,-420 63.5,-414 63.5,-408 63.5,-408 63.5,-156 63.5,-156 63.5,-150 69.5,-144 75.5,-144"/>
<text text-anchor="middle" x="150.5" y="-407.2" font-family="Arial" font-size="11.00" fill="#286430">OBSERVED NAF SUMMARIES</text>
</g>
<g id="clust2" class="cluster">
<title>cluster_concepts</title>
<path fill="#eff7ff" stroke="#6096c8" d="M323.5,-8C323.5,-8 522.5,-8 522.5,-8 528.5,-8 534.5,-14 534.5,-20 534.5,-20 534.5,-544 534.5,-544 534.5,-550 528.5,-556 522.5,-556 522.5,-556 323.5,-556 323.5,-556 317.5,-556 311.5,-550 311.5,-544 311.5,-544 311.5,-20 311.5,-20 311.5,-14 317.5,-8 323.5,-8"/>
<text text-anchor="middle" x="423" y="-543.2" font-family="Arial" font-size="11.00" fill="#235d93">POSSIBLE LATENT INTERPRETATIONS</text>
</g>
<!-- history -->
<g id="node1" class="node">
<title>history</title>
<path fill="#dcf4df" stroke="#31733a" stroke-width="1.2" d="M235.5,-392C235.5,-392 83.5,-392 83.5,-392 77.5,-392 71.5,-386 71.5,-380 71.5,-380 71.5,-368 71.5,-368 71.5,-362 77.5,-356 83.5,-356 83.5,-356 235.5,-356 235.5,-356 241.5,-356 247.5,-362 247.5,-368 247.5,-368 247.5,-380 247.5,-380 247.5,-386 241.5,-392 235.5,-392"/>
<text text-anchor="middle" x="159.5" y="-377" font-family="Arial" font-size="10.00">Race history</text>
<text text-anchor="middle" x="159.5" y="-366" font-family="Arial" font-size="10.00">games · events · recency · last race</text>
</g>
<!-- experience -->
<g id="node5" class="node">
<title>experience</title>
<path fill="#dcecff" stroke="#2867a3" stroke-width="1.2" d="M443.5,-528C443.5,-528 401.5,-528 401.5,-528 395.5,-528 389.5,-522 389.5,-516 389.5,-516 389.5,-504 389.5,-504 389.5,-498 395.5,-492 401.5,-492 401.5,-492 443.5,-492 443.5,-492 449.5,-492 455.5,-498 455.5,-504 455.5,-504 455.5,-516 455.5,-516 455.5,-522 449.5,-528 443.5,-528"/>
<text text-anchor="middle" x="422.5" y="-513" font-family="Arial" font-size="10.00">Total race</text>
<text text-anchor="middle" x="422.5" y="-502" font-family="Arial" font-size="10.00">experience</text>
</g>
<!-- history&#45;&#45;experience -->
<g id="edge1" class="edge">
<title>history&#45;&#45;experience</title>
<path fill="none" stroke="#7a8490" stroke-width="1.4" stroke-dasharray="1,5" d="M182.75,-392.14C211.13,-414.52 262.43,-452.48 311.5,-476 336.56,-488.01 366.83,-497 389.27,-502.71"/>
</g>
<!-- loyalty -->
<g id="node8" class="node">
<title>loyalty</title>
<path fill="#dcecff" stroke="#2867a3" stroke-width="1.2" d="M466,-460C466,-460 379,-460 379,-460 373,-460 367,-454 367,-448 367,-448 367,-436 367,-436 367,-430 373,-424 379,-424 379,-424 466,-424 466,-424 472,-424 478,-430 478,-436 478,-436 478,-448 478,-448 478,-454 472,-460 466,-460"/>
<text text-anchor="middle" x="422.5" y="-445" font-family="Arial" font-size="10.00">Psychological loyalty</text>
<text text-anchor="middle" x="422.5" y="-434" font-family="Arial" font-size="10.00">and preference</text>
</g>
<!-- history&#45;&#45;loyalty -->
<g id="edge2" class="edge">
<title>history&#45;&#45;loyalty</title>
<path fill="none" stroke="#7a8490" stroke-width="1.4" stroke-dasharray="1,5" d="M229.76,-392.04C272.65,-403.22 326.95,-417.37 366.81,-427.75"/>
</g>
<!-- access -->
<g id="node9" class="node">
<title>access</title>
<path fill="#dcecff" stroke="#2867a3" stroke-width="1.2" d="M455.5,-392C455.5,-392 389.5,-392 389.5,-392 383.5,-392 377.5,-386 377.5,-380 377.5,-380 377.5,-368 377.5,-368 377.5,-362 383.5,-356 389.5,-356 389.5,-356 455.5,-356 455.5,-356 461.5,-356 467.5,-362 467.5,-368 467.5,-368 467.5,-380 467.5,-380 467.5,-386 461.5,-392 455.5,-392"/>
<text text-anchor="middle" x="422.5" y="-377" font-family="Arial" font-size="10.00">Miniature and</text>
<text text-anchor="middle" x="422.5" y="-366" font-family="Arial" font-size="10.00">practical access</text>
</g>
<!-- history&#45;&#45;access -->
<g id="edge3" class="edge">
<title>history&#45;&#45;access</title>
<path fill="none" stroke="#7a8490" stroke-width="1.4" stroke-dasharray="1,5" d="M247.77,-374C291.19,-374 341.81,-374 377.17,-374"/>
</g>
<!-- results -->
<g id="node2" class="node">
<title>results</title>
<path fill="#dcf4df" stroke="#31733a" stroke-width="1.2" d="M182,-256C182,-256 137,-256 137,-256 131,-256 125,-250 125,-244 125,-244 125,-232 125,-232 125,-226 131,-220 137,-220 137,-220 182,-220 182,-220 188,-220 194,-226 194,-232 194,-232 194,-244 194,-244 194,-250 188,-256 182,-256"/>
<text text-anchor="middle" x="159.5" y="-241" font-family="Arial" font-size="10.00">Prior match</text>
<text text-anchor="middle" x="159.5" y="-230" font-family="Arial" font-size="10.00">results</text>
</g>
<!-- competence -->
<g id="node6" class="node">
<title>competence</title>
<path fill="#dcecff" stroke="#2867a3" stroke-width="1.2" d="M446.5,-120C446.5,-120 398.5,-120 398.5,-120 392.5,-120 386.5,-114 386.5,-108 386.5,-108 386.5,-96 386.5,-96 386.5,-90 392.5,-84 398.5,-84 398.5,-84 446.5,-84 446.5,-84 452.5,-84 458.5,-90 458.5,-96 458.5,-96 458.5,-108 458.5,-108 458.5,-114 452.5,-120 446.5,-120"/>
<text text-anchor="middle" x="422.5" y="-105" font-family="Arial" font-size="10.00">Coach–race</text>
<text text-anchor="middle" x="422.5" y="-94" font-family="Arial" font-size="10.00">competence</text>
</g>
<!-- results&#45;&#45;competence -->
<g id="edge5" class="edge">
<title>results&#45;&#45;competence</title>
<path fill="none" stroke="#7a8490" stroke-width="1.4" stroke-dasharray="1,5" d="M194.24,-230.67C213.41,-225.4 237.16,-216.9 255.5,-204 287.53,-181.48 278.99,-157.81 311.5,-136 333.99,-120.91 363.49,-112.27 386.28,-107.48"/>
</g>
<!-- ability -->
<g id="node7" class="node">
<title>ability</title>
<path fill="#dcecff" stroke="#2867a3" stroke-width="1.2" d="M451,-188C451,-188 394,-188 394,-188 388,-188 382,-182 382,-176 382,-176 382,-164 382,-164 382,-158 388,-152 394,-152 394,-152 451,-152 451,-152 457,-152 463,-158 463,-164 463,-164 463,-176 463,-176 463,-182 457,-188 451,-188"/>
<text text-anchor="middle" x="422.5" y="-167.5" font-family="Arial" font-size="10.00">General ability</text>
</g>
<!-- results&#45;&#45;ability -->
<g id="edge4" class="edge">
<title>results&#45;&#45;ability</title>
<path fill="none" stroke="#7a8490" stroke-width="1.4" stroke-dasharray="1,5" d="M194.09,-229.25C242.14,-216.73 330.35,-193.75 381.64,-180.39"/>
</g>
<!-- repertoire -->
<g id="node3" class="node">
<title>repertoire</title>
<path fill="#dcf4df" stroke="#31733a" stroke-width="1.2" d="M217.5,-324C217.5,-324 101.5,-324 101.5,-324 95.5,-324 89.5,-318 89.5,-312 89.5,-312 89.5,-300 89.5,-300 89.5,-294 95.5,-288 101.5,-288 101.5,-288 217.5,-288 217.5,-288 223.5,-288 229.5,-294 229.5,-300 229.5,-300 229.5,-312 229.5,-312 229.5,-318 223.5,-324 217.5,-324"/>
<text text-anchor="middle" x="159.5" y="-309" font-family="Arial" font-size="10.00">Repertoire breadth · entropy</text>
<text text-anchor="middle" x="159.5" y="-298" font-family="Arial" font-size="10.00">and switching</text>
</g>
<!-- repertoire&#45;&#45;access -->
<g id="edge7" class="edge">
<title>repertoire&#45;&#45;access</title>
<path fill="none" stroke="#7a8490" stroke-width="1.4" stroke-dasharray="1,5" d="M229.76,-324.04C276.57,-336.24 336.99,-351.98 377.37,-362.5"/>
</g>
<!-- exploration -->
<g id="node10" class="node">
<title>exploration</title>
<path fill="#dcecff" stroke="#2867a3" stroke-width="1.2" d="M469.5,-324C469.5,-324 375.5,-324 375.5,-324 369.5,-324 363.5,-318 363.5,-312 363.5,-312 363.5,-300 363.5,-300 363.5,-294 369.5,-288 375.5,-288 375.5,-288 469.5,-288 469.5,-288 475.5,-288 481.5,-294 481.5,-300 481.5,-300 481.5,-312 481.5,-312 481.5,-318 475.5,-324 469.5,-324"/>
<text text-anchor="middle" x="422.5" y="-309" font-family="Arial" font-size="10.00">Exploration / switching</text>
<text text-anchor="middle" x="422.5" y="-298" font-family="Arial" font-size="10.00">disposition</text>
</g>
<!-- repertoire&#45;&#45;exploration -->
<g id="edge6" class="edge">
<title>repertoire&#45;&#45;exploration</title>
<path fill="none" stroke="#7a8490" stroke-width="1.4" stroke-dasharray="1,5" d="M229.76,-306C271.44,-306 323.9,-306 363.41,-306"/>
</g>
<!-- investment -->
<g id="node11" class="node">
<title>investment</title>
<path fill="#dcecff" stroke="#2867a3" stroke-width="1.2" d="M471.5,-256C471.5,-256 373.5,-256 373.5,-256 367.5,-256 361.5,-250 361.5,-244 361.5,-244 361.5,-232 361.5,-232 361.5,-226 367.5,-220 373.5,-220 373.5,-220 471.5,-220 471.5,-220 477.5,-220 483.5,-226 483.5,-232 483.5,-232 483.5,-244 483.5,-244 483.5,-250 477.5,-256 471.5,-256"/>
<text text-anchor="middle" x="422.5" y="-241" font-family="Arial" font-size="10.00">Competitive investment</text>
<text text-anchor="middle" x="422.5" y="-230" font-family="Arial" font-size="10.00">and preparation</text>
</g>
<!-- repertoire&#45;&#45;investment -->
<g id="edge8" class="edge">
<title>repertoire&#45;&#45;investment</title>
<path fill="none" stroke="#7a8490" stroke-width="1.4" stroke-dasharray="1,5" d="M229.76,-287.96C270.68,-277.29 322,-263.92 361.25,-253.7"/>
</g>
<!-- first_use -->
<g id="node4" class="node">
<title>first_use</title>
<path fill="#dcf4df" stroke="#31733a" stroke-width="1.2" d="M200,-188C200,-188 119,-188 119,-188 113,-188 107,-182 107,-176 107,-176 107,-164 107,-164 107,-158 113,-152 119,-152 119,-152 200,-152 200,-152 206,-152 212,-158 212,-164 212,-164 212,-176 212,-176 212,-182 206,-188 200,-188"/>
<text text-anchor="middle" x="159.5" y="-173" font-family="Arial" font-size="10.00">First observed use</text>
<text text-anchor="middle" x="159.5" y="-162" font-family="Arial" font-size="10.00">and its performance</text>
</g>
<!-- first_use&#45;&#45;competence -->
<g id="edge9" class="edge">
<title>first_use&#45;&#45;competence</title>
<path fill="none" stroke="#7a8490" stroke-width="1.4" stroke-dasharray="1,5" d="M212.07,-156.57C263.62,-143.13 341.49,-122.85 386.33,-111.16"/>
</g>
<!-- first_use&#45;&#45;investment -->
<g id="edge11" class="edge">
<title>first_use&#45;&#45;investment</title>
<path fill="none" stroke="#7a8490" stroke-width="1.4" stroke-dasharray="1,5" d="M212.07,-183.43C255,-194.62 316.19,-210.56 361.35,-222.33"/>
</g>
<!-- hidden -->
<g id="node12" class="node">
<title>hidden</title>
<path fill="#dcecff" stroke="#2867a3" stroke-width="1.2" d="M468,-52C468,-52 377,-52 377,-52 371,-52 365,-46 365,-40 365,-40 365,-28 365,-28 365,-22 371,-16 377,-16 377,-16 468,-16 468,-16 474,-16 480,-22 480,-28 480,-28 480,-40 480,-40 480,-46 474,-52 468,-52"/>
<text text-anchor="middle" x="422.5" y="-37" font-family="Arial" font-size="10.00">Hidden league, online,</text>
<text text-anchor="middle" x="422.5" y="-26" font-family="Arial" font-size="10.00">and casual play</text>
</g>
<!-- first_use&#45;&#45;hidden -->
<g id="edge10" class="edge">
<title>first_use&#45;&#45;hidden</title>
<path fill="none" stroke="#7a8490" stroke-width="1.4" stroke-dasharray="1,5" d="M182.75,-151.86C211.13,-129.48 262.43,-91.52 311.5,-68 328.26,-59.97 347.36,-53.28 364.89,-48.03"/>
</g>
</g>
</svg>
