<?xml version="1.0" encoding="UTF-8" standalone="no"?>
<!DOCTYPE svg PUBLIC "-//W3C//DTD SVG 1.1//EN"
 "http://www.w3.org/Graphics/SVG/1.1/DTD/svg11.dtd">
<!-- Generated by graphviz version 2.43.0 (0)
 -->
<!-- Title: PlayerRaceConceptMap Pages: 1 -->
<svg width="1376pt" height="1118pt"
 viewBox="0.00 0.00 1376.40 1118.46" xmlns="http://www.w3.org/2000/svg" xmlns:xlink="http://www.w3.org/1999/xlink">
<g id="graph0" class="graph" transform="scale(1 1) rotate(0) translate(25.2 1093.26)">
<title>PlayerRaceConceptMap</title>
<polygon fill="#ffffff" stroke="transparent" points="-25.2,25.2 -25.2,-1093.26 1351.2,-1093.26 1351.2,25.2 -25.2,25.2"/>
<text text-anchor="middle" x="265.5" y="-1049.66" font-family="Arial" font-size="18.00">Coach, race choice, and performance — conceptual map</text>
<text text-anchor="middle" x="265.5" y="-1029.66" font-family="Arial" font-size="18.00">Informal discussion canvas; broader than the implemented model</text>
<g id="clust1" class="cluster">
<title>cluster_context</title>
<path fill="#fff8e3" stroke="#d7ae4c" d="M20,-773C20,-773 808,-773 808,-773 814,-773 820,-779 820,-785 820,-785 820,-982 820,-982 820,-988 814,-994 808,-994 808,-994 20,-994 20,-994 14,-994 8,-988 8,-982 8,-982 8,-785 8,-785 8,-779 14,-773 20,-773"/>
<text text-anchor="middle" x="114.5" y="-981.2" font-family="Arial" font-size="11.00" fill="#6d4b00">PACK, RACE, AND SOCIAL CONTEXT</text>
</g>
<g id="clust2" class="cluster">
<title>cluster_traits</title>
<path fill="#f7f1ff" stroke="#9673ca" d="M262,-115C262,-115 547,-115 547,-115 553,-115 559,-121 559,-127 559,-127 559,-541 559,-541 559,-547 553,-553 547,-553 547,-553 262,-553 262,-553 256,-553 250,-547 250,-541 250,-541 250,-127 250,-127 250,-121 256,-115 262,-115"/>
<text text-anchor="middle" x="404.5" y="-540.2" font-family="Arial" font-size="11.00" fill="#56338e">RELATIVELY PERSISTENT COACH CHARACTERISTICS</text>
</g>
<g id="clust3" class="cluster">
<title>cluster_observed</title>
<path fill="#f0fbf1" stroke="#69a66f" d="M44.5,-8C44.5,-8 1275.5,-8 1275.5,-8 1281.5,-8 1287.5,-14 1287.5,-20 1287.5,-20 1287.5,-95 1287.5,-95 1287.5,-101 1281.5,-107 1275.5,-107 1275.5,-107 44.5,-107 44.5,-107 38.5,-107 32.5,-101 32.5,-95 32.5,-95 32.5,-20 32.5,-20 32.5,-14 38.5,-8 44.5,-8"/>
<text text-anchor="middle" x="155" y="-94.2" font-family="Arial" font-size="11.00" fill="#286430">STRICTLY&#45;PRIOR OBSERVABLE EVIDENCE</text>
</g>
<g id="clust4" class="cluster">
<title>cluster_state</title>
<path fill="#eff7ff" stroke="#6096c8" d="M641,-178C641,-178 871,-178 871,-178 877,-178 883,-184 883,-190 883,-190 883,-690 883,-690 883,-696 877,-702 871,-702 871,-702 641,-702 641,-702 635,-702 629,-696 629,-690 629,-690 629,-190 629,-190 629,-184 635,-178 641,-178"/>
<text text-anchor="middle" x="756" y="-689.2" font-family="Arial" font-size="11.00" fill="#235d93">LATENT COACH STATE BEFORE THE EVENT</text>
</g>
<g id="clust5" class="cluster">
<title>cluster_current</title>
<path fill="#fff3f5" stroke="#c76a7e" d="M990,-642C990,-642 1086,-642 1086,-642 1092,-642 1098,-648 1098,-654 1098,-654 1098,-971 1098,-971 1098,-977 1092,-983 1086,-983 1086,-983 990,-983 990,-983 984,-983 978,-977 978,-971 978,-971 978,-654 978,-654 978,-648 984,-642 990,-642"/>
<text text-anchor="middle" x="1034.5" y="-970.2" font-family="Arial" font-size="11.00" fill="#8d2940">CURRENT EVENT</text>
</g>
<!-- pack -->
<g id="node1" class="node">
<title>pack</title>
<path fill="#fff1c9" stroke="#9b6a00" stroke-width="1.2" d="M463.5,-878C463.5,-878 345.5,-878 345.5,-878 339.5,-878 333.5,-872 333.5,-866 333.5,-866 333.5,-854 333.5,-854 333.5,-848 339.5,-842 345.5,-842 345.5,-842 463.5,-842 463.5,-842 469.5,-842 475.5,-848 475.5,-854 475.5,-854 475.5,-866 475.5,-866 475.5,-872 469.5,-878 463.5,-878"/>
<text text-anchor="middle" x="404.5" y="-863" font-family="Arial" font-size="10.00">Pack treatment</text>
<text text-anchor="middle" x="404.5" y="-852" font-family="Arial" font-size="10.00">resources · legality · scoring</text>
</g>
<!-- favorability -->
<g id="node7" class="node">
<title>favorability</title>
<path fill="#fff1c9" stroke="#9b6a00" stroke-width="1.2" d="M800,-905C800,-905 711,-905 711,-905 705,-905 699,-899 699,-893 699,-893 699,-881 699,-881 699,-875 705,-869 711,-869 711,-869 800,-869 800,-869 806,-869 812,-875 812,-881 812,-881 812,-893 812,-893 812,-899 806,-905 800,-905"/>
<text text-anchor="middle" x="755.5" y="-890" font-family="Arial" font-size="10.00">Perceived pack / field</text>
<text text-anchor="middle" x="755.5" y="-879" font-family="Arial" font-size="10.00">favorability</text>
</g>
<!-- pack&#45;&gt;favorability -->
<g id="edge4" class="edge">
<title>pack&#45;&gt;favorability</title>
<path fill="none" stroke="#66717c" stroke-width="1.1" d="M475.71,-865.43C539.08,-870.33 631.45,-877.48 692.24,-882.18"/>
<polygon fill="#66717c" stroke="#66717c" stroke-width="1.1" points="692.11,-884.45 698.76,-882.69 692.46,-879.92 692.11,-884.45"/>
</g>
<!-- build -->
<g id="node28" class="node">
<title>build</title>
<path fill="#ffe0e6" stroke="#9d3850" stroke-width="1.2" d="M1068.5,-833C1068.5,-833 1007.5,-833 1007.5,-833 1001.5,-833 995.5,-827 995.5,-821 995.5,-821 995.5,-809 995.5,-809 995.5,-803 1001.5,-797 1007.5,-797 1007.5,-797 1068.5,-797 1068.5,-797 1074.5,-797 1080.5,-803 1080.5,-809 1080.5,-809 1080.5,-821 1080.5,-821 1080.5,-827 1074.5,-833 1068.5,-833"/>
<text text-anchor="middle" x="1038" y="-818" font-family="Arial" font-size="10.00">Realised roster</text>
<text text-anchor="middle" x="1038" y="-807" font-family="Arial" font-size="10.00">and build</text>
</g>
<!-- pack&#45;&gt;build -->
<g id="edge5" class="edge">
<title>pack&#45;&gt;build</title>
<path fill="none" stroke="#66717c" stroke-width="1.1" d="M475.87,-854.69C502.99,-850.52 533.53,-843.12 559,-830 569.34,-824.67 567.19,-816.31 578,-812 735.3,-749.32 789.7,-808.75 959,-812 968.58,-812.18 978.81,-812.5 988.61,-812.85"/>
<polygon fill="#66717c" stroke="#66717c" stroke-width="1.1" points="988.73,-815.13 995.31,-813.1 988.9,-810.58 988.73,-815.13"/>
</g>
<!-- performance -->
<g id="node30" class="node">
<title>performance</title>
<path fill="#ffe0e6" stroke="#9d3850" stroke-width="2" d="M1064,-686C1064,-686 1012,-686 1012,-686 1006,-686 1000,-680 1000,-674 1000,-674 1000,-662 1000,-662 1000,-656 1006,-650 1012,-650 1012,-650 1064,-650 1064,-650 1070,-650 1076,-656 1076,-662 1076,-662 1076,-674 1076,-674 1076,-680 1070,-686 1064,-686"/>
<text text-anchor="middle" x="1038" y="-671" font-family="Arial" font-size="10.00">Latent match</text>
<text text-anchor="middle" x="1038" y="-660" font-family="Arial" font-size="10.00">performance</text>
</g>
<!-- pack&#45;&gt;performance -->
<g id="edge6" class="edge">
<title>pack&#45;&gt;performance</title>
<path fill="none" stroke="#66717c" stroke-width="1.1" d="M475.61,-859.01C503.77,-855.55 535.14,-847.51 559,-830 573.27,-819.53 564.54,-806.49 578,-795 596.29,-779.4 606.04,-784.11 629,-777 664.17,-766.11 895.38,-705.19 993.3,-679.47"/>
<polygon fill="#66717c" stroke="#66717c" stroke-width="1.1" points="994.13,-681.6 999.83,-677.75 992.97,-677.2 994.13,-681.6"/>
</g>
<!-- race -->
<g id="node2" class="node">
<title>race</title>
<path fill="#fff1c9" stroke="#9b6a00" stroke-width="1.2" d="M191,-922C191,-922 28,-922 28,-922 22,-922 16,-916 16,-910 16,-910 16,-898 16,-898 16,-892 22,-886 28,-886 28,-886 191,-886 191,-886 197,-886 203,-892 203,-898 203,-898 203,-910 203,-910 203,-916 197,-922 191,-922"/>
<text text-anchor="middle" x="109.5" y="-907" font-family="Arial" font-size="10.00">Race style geometry</text>
<text text-anchor="middle" x="109.5" y="-896" font-family="Arial" font-size="10.00">contact · mobility · stunty / unreliability</text>
</g>
<!-- difficulty -->
<g id="node3" class="node">
<title>difficulty</title>
<path fill="#fff1c9" stroke="#9b6a00" stroke-width="1.2" d="M442,-817C442,-817 367,-817 367,-817 361,-817 355,-811 355,-805 355,-805 355,-793 355,-793 355,-787 361,-781 367,-781 367,-781 442,-781 442,-781 448,-781 454,-787 454,-793 454,-793 454,-805 454,-805 454,-811 448,-817 442,-817"/>
<text text-anchor="middle" x="404.5" y="-802" font-family="Arial" font-size="10.00">Entry and mastery</text>
<text text-anchor="middle" x="404.5" y="-791" font-family="Arial" font-size="10.00">difficulty</text>
</g>
<!-- race&#45;&gt;difficulty -->
<g id="edge1" class="edge">
<title>race&#45;&gt;difficulty</title>
<path fill="none" stroke="#66717c" stroke-width="1.1" d="M178.21,-885.9C186.81,-882.5 195.29,-878.55 203,-874 227.64,-859.46 224.56,-843.11 250,-830 280.33,-814.37 317.82,-806.61 348.15,-802.77"/>
<polygon fill="#66717c" stroke="#66717c" stroke-width="1.1" points="348.72,-804.99 354.91,-801.96 348.18,-800.47 348.72,-804.99"/>
</g>
<!-- style_experience -->
<g id="node22" class="node">
<title>style_experience</title>
<path fill="#dcecff" stroke="#2867a3" stroke-width="1.2" d="M792,-674C792,-674 719,-674 719,-674 713,-674 707,-668 707,-662 707,-662 707,-650 707,-650 707,-644 713,-638 719,-638 719,-638 792,-638 792,-638 798,-638 804,-644 804,-650 804,-650 804,-662 804,-662 804,-668 798,-674 792,-674"/>
<text text-anchor="middle" x="755.5" y="-659" font-family="Arial" font-size="10.00">Transferable style</text>
<text text-anchor="middle" x="755.5" y="-648" font-family="Arial" font-size="10.00">experience</text>
</g>
<!-- race&#45;&gt;style_experience -->
<g id="edge2" class="edge">
<title>race&#45;&gt;style_experience</title>
<path fill="none" stroke="#66717c" stroke-width="1.1" d="M185.75,-885.85C191.98,-882.54 197.85,-878.63 203,-874 241.04,-839.84 209.66,-800.41 250,-769 378.16,-669.21 452.75,-746.69 610,-706 641.05,-697.97 674.98,-686.38 702.15,-676.38"/>
<polygon fill="#66717c" stroke="#66717c" stroke-width="1.1" points="703.24,-678.4 708.55,-674.01 701.66,-674.14 703.24,-678.4"/>
</g>
<!-- pairing -->
<g id="node29" class="node">
<title>pairing</title>
<path fill="#ffe0e6" stroke="#9d3850" stroke-width="1.2" d="M1075,-894C1075,-894 1001,-894 1001,-894 995,-894 989,-888 989,-882 989,-882 989,-870 989,-870 989,-864 995,-858 1001,-858 1001,-858 1075,-858 1075,-858 1081,-858 1087,-864 1087,-870 1087,-870 1087,-882 1087,-882 1087,-888 1081,-894 1075,-894"/>
<text text-anchor="middle" x="1038" y="-879" font-family="Arial" font-size="10.00">Opponent · pairing</text>
<text text-anchor="middle" x="1038" y="-868" font-family="Arial" font-size="10.00">and matchup</text>
</g>
<!-- race&#45;&gt;pairing -->
<g id="edge3" class="edge">
<title>race&#45;&gt;pairing</title>
<path fill="none" stroke="#66717c" stroke-width="1.1" d="M140.53,-922.09C167.95,-937.54 210.17,-958.69 250,-968 523.99,-1032.03 607.83,-1037.75 883,-979 919.19,-971.27 932.28,-970.6 959,-945 972.64,-931.94 964.78,-920.49 978,-907 981.29,-903.65 985.01,-900.58 988.95,-897.79"/>
<polygon fill="#66717c" stroke="#66717c" stroke-width="1.1" points="990.28,-899.64 994.45,-894.16 987.77,-895.85 990.28,-899.64"/>
</g>
<!-- competence -->
<g id="node23" class="node">
<title>competence</title>
<path fill="#ccecff" stroke="#004f87" stroke-width="3" d="M847,-430C847,-430 664,-430 664,-430 658,-430 652,-424 652,-418 652,-418 652,-406 652,-406 652,-400 658,-394 664,-394 664,-394 847,-394 847,-394 853,-394 859,-400 859,-406 859,-406 859,-418 859,-418 859,-424 853,-430 847,-430"/>
<text text-anchor="middle" x="755.5" y="-415.2" font-family="Arial" font-size="11.00">COACH–RACE COMPETENCE</text>
<text text-anchor="middle" x="755.5" y="-403.2" font-family="Arial" font-size="11.00">personal expected strength on this race</text>
</g>
<!-- difficulty&#45;&gt;competence -->
<g id="edge25" class="edge">
<title>difficulty&#45;&gt;competence</title>
<path fill="none" stroke="#66717c" stroke-width="1.1" d="M433.1,-780.91C467.35,-757.1 525.35,-712.1 559,-660 613.98,-574.87 554.88,-512.11 629,-443 634.15,-438.2 639.93,-434.1 646.1,-430.62"/>
<polygon fill="#66717c" stroke="#66717c" stroke-width="1.1" points="647.17,-432.63 651.87,-427.59 645.05,-428.6 647.17,-432.63"/>
</g>
<!-- meta -->
<g id="node4" class="node">
<title>meta</title>
<path fill="#fff1c9" stroke="#9b6a00" stroke-width="1.2" d="M150.5,-861C150.5,-861 68.5,-861 68.5,-861 62.5,-861 56.5,-855 56.5,-849 56.5,-849 56.5,-837 56.5,-837 56.5,-831 62.5,-825 68.5,-825 68.5,-825 150.5,-825 150.5,-825 156.5,-825 162.5,-831 162.5,-837 162.5,-837 162.5,-849 162.5,-849 162.5,-855 156.5,-861 150.5,-861"/>
<text text-anchor="middle" x="109.5" y="-846" font-family="Arial" font-size="10.00">Region · community</text>
<text text-anchor="middle" x="109.5" y="-835" font-family="Arial" font-size="10.00">public meta</text>
</g>
<!-- field -->
<g id="node6" class="node">
<title>field</title>
<path fill="#fff1c9" stroke="#9b6a00" stroke-width="1.2" d="M433.5,-939C433.5,-939 375.5,-939 375.5,-939 369.5,-939 363.5,-933 363.5,-927 363.5,-927 363.5,-915 363.5,-915 363.5,-909 369.5,-903 375.5,-903 375.5,-903 433.5,-903 433.5,-903 439.5,-903 445.5,-909 445.5,-915 445.5,-915 445.5,-927 445.5,-927 445.5,-933 439.5,-939 433.5,-939"/>
<text text-anchor="middle" x="404.5" y="-924" font-family="Arial" font-size="10.00">Expected field</text>
<text text-anchor="middle" x="404.5" y="-913" font-family="Arial" font-size="10.00">and opponents</text>
</g>
<!-- meta&#45;&gt;field -->
<g id="edge8" class="edge">
<title>meta&#45;&gt;field</title>
<path fill="none" stroke="#66717c" stroke-width="1.1" d="M162.92,-860.33C176.03,-864.73 190.04,-869.49 203,-874 223.98,-881.31 228.59,-885.07 250,-891 285.28,-900.76 325.97,-908.56 356.58,-913.76"/>
<polygon fill="#66717c" stroke="#66717c" stroke-width="1.1" points="356.57,-916.06 363.35,-914.89 357.32,-911.58 356.57,-916.06"/>
</g>
<!-- meta&#45;&gt;favorability -->
<g id="edge7" class="edge">
<title>meta&#45;&gt;favorability</title>
<path fill="none" stroke="#66717c" stroke-width="1.1" d="M162.7,-853.48C176.81,-858.1 191.37,-864.68 203,-874 234.57,-899.32 214.76,-932.09 250,-952 309.79,-985.78 492.08,-967.39 559,-952 592.71,-944.25 596.48,-929.77 629,-918 649.19,-910.7 671.81,-904.52 692.23,-899.65"/>
<polygon fill="#66717c" stroke="#66717c" stroke-width="1.1" points="692.96,-901.82 698.77,-898.12 691.92,-897.39 692.96,-901.82"/>
</g>
<!-- access -->
<g id="node24" class="node">
<title>access</title>
<path fill="#dcecff" stroke="#2867a3" stroke-width="1.2" d="M800,-613C800,-613 711,-613 711,-613 705,-613 699,-607 699,-601 699,-601 699,-589 699,-589 699,-583 705,-577 711,-577 711,-577 800,-577 800,-577 806,-577 812,-583 812,-589 812,-589 812,-601 812,-601 812,-607 806,-613 800,-613"/>
<text text-anchor="middle" x="755.5" y="-592.5" font-family="Arial" font-size="10.00">Practical race access</text>
</g>
<!-- meta&#45;&gt;access -->
<g id="edge9" class="edge">
<title>meta&#45;&gt;access</title>
<path fill="none" stroke="#66717c" stroke-width="1.1" d="M123.54,-824.66C145.77,-794.94 194.07,-736.8 250,-709 374.52,-647.11 426.36,-701.72 559,-660 591.99,-649.62 596.48,-637.77 629,-626 649.19,-618.7 671.81,-612.52 692.23,-607.65"/>
<polygon fill="#66717c" stroke="#66717c" stroke-width="1.1" points="692.96,-609.82 698.77,-606.12 691.92,-605.39 692.96,-609.82"/>
</g>
<!-- format -->
<g id="node5" class="node">
<title>format</title>
<path fill="#fff1c9" stroke="#9b6a00" stroke-width="1.2" d="M783.5,-966C783.5,-966 727.5,-966 727.5,-966 721.5,-966 715.5,-960 715.5,-954 715.5,-954 715.5,-942 715.5,-942 715.5,-936 721.5,-930 727.5,-930 727.5,-930 783.5,-930 783.5,-930 789.5,-930 795.5,-936 795.5,-942 795.5,-942 795.5,-954 795.5,-954 795.5,-960 789.5,-966 783.5,-966"/>
<text text-anchor="middle" x="755.5" y="-951" font-family="Arial" font-size="10.00">Event format</text>
<text text-anchor="middle" x="755.5" y="-940" font-family="Arial" font-size="10.00">open or squad</text>
</g>
<!-- choice -->
<g id="node27" class="node">
<title>choice</title>
<path fill="#ffe0e6" stroke="#9d3850" stroke-width="2" d="M1064,-747C1064,-747 1012,-747 1012,-747 1006,-747 1000,-741 1000,-735 1000,-735 1000,-723 1000,-723 1000,-717 1006,-711 1012,-711 1012,-711 1064,-711 1064,-711 1070,-711 1076,-717 1076,-723 1076,-723 1076,-735 1076,-735 1076,-741 1070,-747 1064,-747"/>
<text text-anchor="middle" x="1038" y="-732" font-family="Arial" font-size="10.00">Race chosen</text>
<text text-anchor="middle" x="1038" y="-721" font-family="Arial" font-size="10.00">or assigned</text>
</g>
<!-- format&#45;&gt;choice -->
<g id="edge10" class="edge">
<title>format&#45;&gt;choice</title>
<path fill="none" stroke="#66717c" stroke-width="1.1" d="M795.59,-945.86C822.16,-942.79 857.05,-935.44 883,-918 943.29,-877.48 930.33,-839.81 978,-785 988.21,-773.26 1000.55,-761.26 1011.31,-751.39"/>
<polygon fill="#66717c" stroke="#66717c" stroke-width="1.1" points="1012.84,-753.07 1016.12,-747.02 1009.78,-749.71 1012.84,-753.07"/>
</g>
<!-- format&#45;&gt;pairing -->
<g id="edge11" class="edge">
<title>format&#45;&gt;pairing</title>
<path fill="none" stroke="#66717c" stroke-width="1.1" d="M795.75,-947.22C837.43,-945.29 904.68,-939 959,-919 968.37,-915.55 969.35,-911.99 978,-907 983.64,-903.75 989.64,-900.43 995.59,-897.22"/>
<polygon fill="#66717c" stroke="#66717c" stroke-width="1.1" points="996.83,-899.14 1001.5,-894.07 994.69,-895.13 996.83,-899.14"/>
</g>
<!-- field&#45;&gt;favorability -->
<g id="edge12" class="edge">
<title>field&#45;&gt;favorability</title>
<path fill="none" stroke="#66717c" stroke-width="1.1" d="M445.53,-917.1C505.9,-911.22 620.72,-900.03 692.12,-893.08"/>
<polygon fill="#66717c" stroke="#66717c" stroke-width="1.1" points="692.64,-895.31 698.89,-892.42 692.2,-890.78 692.64,-895.31"/>
</g>
<!-- field&#45;&gt;pairing -->
<g id="edge13" class="edge">
<title>field&#45;&gt;pairing</title>
<path fill="none" stroke="#66717c" stroke-width="1.1" d="M445.66,-916.06C477.07,-911.5 521.53,-903.52 559,-891 591.8,-880.04 595.29,-864.75 629,-857 739.02,-831.7 770.32,-850.08 883,-857 916.12,-859.04 953.03,-863.51 982.4,-867.61"/>
<polygon fill="#66717c" stroke="#66717c" stroke-width="1.1" points="982.18,-869.87 988.93,-868.53 982.81,-865.37 982.18,-869.87"/>
</g>
<!-- favorability&#45;&gt;choice -->
<g id="edge40" class="edge">
<title>favorability&#45;&gt;choice</title>
<path fill="none" stroke="#66717c" stroke-width="1.1" d="M788.68,-868.88C840.74,-839.55 943.23,-781.82 998.88,-750.47"/>
<polygon fill="#66717c" stroke="#66717c" stroke-width="1.1" points="1000.22,-752.33 1004.77,-747.16 997.99,-748.36 1000.22,-752.33"/>
</g>
<!-- talent -->
<g id="node8" class="node">
<title>talent</title>
<path fill="#eadfff" stroke="#6842a6" stroke-width="1.2" d="M484,-281C484,-281 325,-281 325,-281 319,-281 313,-275 313,-269 313,-269 313,-257 313,-257 313,-251 319,-245 325,-245 325,-245 484,-245 484,-245 490,-245 496,-251 496,-257 496,-257 496,-269 496,-269 496,-275 490,-281 484,-281"/>
<text text-anchor="middle" x="404.5" y="-266" font-family="Arial" font-size="10.00">General game talent</text>
<text text-anchor="middle" x="404.5" y="-255" font-family="Arial" font-size="10.00">planning · calculation · risk judgement</text>
</g>
<!-- general_ability -->
<g id="node19" class="node">
<title>general_ability</title>
<path fill="#dcecff" stroke="#2867a3" stroke-width="1.2" d="M786,-344C786,-344 725,-344 725,-344 719,-344 713,-338 713,-332 713,-332 713,-320 713,-320 713,-314 719,-308 725,-308 725,-308 786,-308 786,-308 792,-308 798,-314 798,-320 798,-320 798,-332 798,-332 798,-338 792,-344 786,-344"/>
<text text-anchor="middle" x="755.5" y="-329" font-family="Arial" font-size="10.00">Current general</text>
<text text-anchor="middle" x="755.5" y="-318" font-family="Arial" font-size="10.00">ability</text>
</g>
<!-- talent&#45;&gt;general_ability -->
<g id="edge14" class="edge">
<title>talent&#45;&gt;general_ability</title>
<path fill="none" stroke="#66717c" stroke-width="1.1" d="M496.17,-276.23C517.17,-280.68 539.17,-286.49 559,-294 568.13,-297.46 568.74,-301.92 578,-305 619.89,-318.96 670.1,-323.87 706.23,-325.49"/>
<polygon fill="#66717c" stroke="#66717c" stroke-width="1.1" points="706.23,-327.77 712.81,-325.76 706.41,-323.22 706.23,-327.77"/>
</g>
<!-- style_aptitude -->
<g id="node9" class="node">
<title>style_aptitude</title>
<path fill="#eadfff" stroke="#6842a6" stroke-width="1.2" d="M431.5,-403C431.5,-403 377.5,-403 377.5,-403 371.5,-403 365.5,-397 365.5,-391 365.5,-391 365.5,-379 365.5,-379 365.5,-373 371.5,-367 377.5,-367 377.5,-367 431.5,-367 431.5,-367 437.5,-367 443.5,-373 443.5,-379 443.5,-379 443.5,-391 443.5,-391 443.5,-397 437.5,-403 431.5,-403"/>
<text text-anchor="middle" x="404.5" y="-388" font-family="Arial" font-size="10.00">Style&#45;specific</text>
<text text-anchor="middle" x="404.5" y="-377" font-family="Arial" font-size="10.00">aptitude</text>
</g>
<!-- style_aptitude&#45;&gt;competence -->
<g id="edge15" class="edge">
<title>style_aptitude&#45;&gt;competence</title>
<path fill="none" stroke="#66717c" stroke-width="1.1" d="M443.51,-387.94C491.52,-391.65 576.17,-398.2 645.04,-403.53"/>
<polygon fill="#66717c" stroke="#66717c" stroke-width="1.1" points="645,-405.81 651.65,-404.04 645.35,-401.27 645,-405.81"/>
</g>
<!-- learning -->
<g id="node10" class="node">
<title>learning</title>
<path fill="#eadfff" stroke="#6842a6" stroke-width="1.2" d="M440,-342C440,-342 369,-342 369,-342 363,-342 357,-336 357,-330 357,-330 357,-318 357,-318 357,-312 363,-306 369,-306 369,-306 440,-306 440,-306 446,-306 452,-312 452,-318 452,-318 452,-330 452,-330 452,-336 446,-342 440,-342"/>
<text text-anchor="middle" x="404.5" y="-327" font-family="Arial" font-size="10.00">Learning capacity</text>
<text text-anchor="middle" x="404.5" y="-316" font-family="Arial" font-size="10.00">and ceiling</text>
</g>
<!-- learning&#45;&gt;competence -->
<g id="edge16" class="edge">
<title>learning&#45;&gt;competence</title>
<path fill="none" stroke="#66717c" stroke-width="1.1" d="M452.08,-332.35C482.62,-338.08 523.36,-346.22 559,-355 603.3,-365.91 652.61,-380.3 690.62,-391.9"/>
<polygon fill="#66717c" stroke="#66717c" stroke-width="1.1" points="690.22,-394.15 697.1,-393.88 691.55,-389.8 690.22,-394.15"/>
</g>
<!-- investment -->
<g id="node11" class="node">
<title>investment</title>
<path fill="#eadfff" stroke="#6842a6" stroke-width="1.2" d="M470.5,-220C470.5,-220 338.5,-220 338.5,-220 332.5,-220 326.5,-214 326.5,-208 326.5,-208 326.5,-196 326.5,-196 326.5,-190 332.5,-184 338.5,-184 338.5,-184 470.5,-184 470.5,-184 476.5,-184 482.5,-190 482.5,-196 482.5,-196 482.5,-208 482.5,-208 482.5,-214 476.5,-220 470.5,-220"/>
<text text-anchor="middle" x="404.5" y="-205" font-family="Arial" font-size="10.00">Competitive investment</text>
<text text-anchor="middle" x="404.5" y="-194" font-family="Arial" font-size="10.00">time · preparation · optimisation</text>
</g>
<!-- investment&#45;&gt;general_ability -->
<g id="edge17" class="edge">
<title>investment&#45;&gt;general_ability</title>
<path fill="none" stroke="#66717c" stroke-width="1.1" d="M482.67,-207.86C508.21,-212.27 535.96,-219.89 559,-233 569.94,-239.22 568.9,-245.31 578,-254 599.24,-274.27 602.71,-282.92 629,-296 653.02,-307.95 682.02,-315.29 706.1,-319.71"/>
<polygon fill="#66717c" stroke="#66717c" stroke-width="1.1" points="705.95,-321.99 712.75,-320.88 706.74,-317.51 705.95,-321.99"/>
</g>
<!-- hidden_experience -->
<g id="node20" class="node">
<title>hidden_experience</title>
<path fill="#dcecff" stroke="#2867a3" stroke-width="1.2" d="M831,-283C831,-283 680,-283 680,-283 674,-283 668,-277 668,-271 668,-271 668,-259 668,-259 668,-253 674,-247 680,-247 680,-247 831,-247 831,-247 837,-247 843,-253 843,-259 843,-259 843,-271 843,-271 843,-277 837,-283 831,-283"/>
<text text-anchor="middle" x="755.5" y="-268" font-family="Arial" font-size="10.00">Hidden experience</text>
<text text-anchor="middle" x="755.5" y="-257" font-family="Arial" font-size="10.00">league · online · casual · earlier play</text>
</g>
<!-- investment&#45;&gt;hidden_experience -->
<g id="edge18" class="edge">
<title>investment&#45;&gt;hidden_experience</title>
<path fill="none" stroke="#66717c" stroke-width="1.1" d="M482.52,-215.9C535.29,-225.43 605.57,-238.11 661.46,-248.21"/>
<polygon fill="#66717c" stroke="#66717c" stroke-width="1.1" points="661.06,-250.44 667.86,-249.36 661.87,-245.97 661.06,-250.44"/>
</g>
<!-- adaptation -->
<g id="node26" class="node">
<title>adaptation</title>
<path fill="#dcecff" stroke="#2867a3" stroke-width="1.2" d="M817.5,-222C817.5,-222 693.5,-222 693.5,-222 687.5,-222 681.5,-216 681.5,-210 681.5,-210 681.5,-198 681.5,-198 681.5,-192 687.5,-186 693.5,-186 693.5,-186 817.5,-186 817.5,-186 823.5,-186 829.5,-192 829.5,-198 829.5,-198 829.5,-210 829.5,-210 829.5,-216 823.5,-222 817.5,-222"/>
<text text-anchor="middle" x="755.5" y="-207" font-family="Arial" font-size="10.00">Competitive adaptation</text>
<text text-anchor="middle" x="755.5" y="-196" font-family="Arial" font-size="10.00">response to an available edge</text>
</g>
<!-- investment&#45;&gt;adaptation -->
<g id="edge19" class="edge">
<title>investment&#45;&gt;adaptation</title>
<path fill="none" stroke="#66717c" stroke-width="1.1" d="M482.52,-202.44C539.54,-202.77 617.01,-203.21 674.68,-203.54"/>
<polygon fill="#66717c" stroke="#66717c" stroke-width="1.1" points="674.74,-205.82 681.26,-203.58 674.77,-201.27 674.74,-205.82"/>
</g>
<!-- preference -->
<g id="node12" class="node">
<title>preference</title>
<path fill="#eadfff" stroke="#6842a6" stroke-width="1.2" d="M447,-464C447,-464 362,-464 362,-464 356,-464 350,-458 350,-452 350,-452 350,-440 350,-440 350,-434 356,-428 362,-428 362,-428 447,-428 447,-428 453,-428 459,-434 459,-440 459,-440 459,-452 459,-452 459,-458 453,-464 447,-464"/>
<text text-anchor="middle" x="404.5" y="-449" font-family="Arial" font-size="10.00">Style and exact&#45;race</text>
<text text-anchor="middle" x="404.5" y="-438" font-family="Arial" font-size="10.00">preference</text>
</g>
<!-- loyalty -->
<g id="node25" class="node">
<title>loyalty</title>
<path fill="#dcecff" stroke="#2867a3" stroke-width="1.2" d="M786.5,-491C786.5,-491 724.5,-491 724.5,-491 718.5,-491 712.5,-485 712.5,-479 712.5,-479 712.5,-467 712.5,-467 712.5,-461 718.5,-455 724.5,-455 724.5,-455 786.5,-455 786.5,-455 792.5,-455 798.5,-461 798.5,-467 798.5,-467 798.5,-479 798.5,-479 798.5,-485 792.5,-491 786.5,-491"/>
<text text-anchor="middle" x="755.5" y="-476" font-family="Arial" font-size="10.00">Current loyalty</text>
<text text-anchor="middle" x="755.5" y="-465" font-family="Arial" font-size="10.00">and attachment</text>
</g>
<!-- preference&#45;&gt;loyalty -->
<g id="edge26" class="edge">
<title>preference&#45;&gt;loyalty</title>
<path fill="none" stroke="#66717c" stroke-width="1.1" d="M459.27,-450.16C526.65,-455.37 641.13,-464.23 705.96,-469.24"/>
<polygon fill="#66717c" stroke="#66717c" stroke-width="1.1" points="705.81,-471.51 712.46,-469.75 706.16,-466.98 705.81,-471.51"/>
</g>
<!-- exploration -->
<g id="node13" class="node">
<title>exploration</title>
<path fill="#eadfff" stroke="#6842a6" stroke-width="1.2" d="M451.5,-159C451.5,-159 357.5,-159 357.5,-159 351.5,-159 345.5,-153 345.5,-147 345.5,-147 345.5,-135 345.5,-135 345.5,-129 351.5,-123 357.5,-123 357.5,-123 451.5,-123 451.5,-123 457.5,-123 463.5,-129 463.5,-135 463.5,-135 463.5,-147 463.5,-147 463.5,-153 457.5,-159 451.5,-159"/>
<text text-anchor="middle" x="404.5" y="-144" font-family="Arial" font-size="10.00">Exploration / switching</text>
<text text-anchor="middle" x="404.5" y="-133" font-family="Arial" font-size="10.00">disposition</text>
</g>
<!-- exploration&#45;&gt;adaptation -->
<g id="edge27" class="edge">
<title>exploration&#45;&gt;adaptation</title>
<path fill="none" stroke="#66717c" stroke-width="1.1" d="M463.52,-151.47C521.33,-161.91 610.53,-178.01 674.93,-189.64"/>
<polygon fill="#66717c" stroke="#66717c" stroke-width="1.1" points="674.68,-191.9 681.48,-190.82 675.48,-187.42 674.68,-191.9"/>
</g>
<!-- resources -->
<g id="node14" class="node">
<title>resources</title>
<path fill="#eadfff" stroke="#6842a6" stroke-width="1.2" d="M481.5,-525C481.5,-525 327.5,-525 327.5,-525 321.5,-525 315.5,-519 315.5,-513 315.5,-513 315.5,-501 315.5,-501 315.5,-495 321.5,-489 327.5,-489 327.5,-489 481.5,-489 481.5,-489 487.5,-489 493.5,-495 493.5,-501 493.5,-501 493.5,-513 493.5,-513 493.5,-519 487.5,-525 481.5,-525"/>
<text text-anchor="middle" x="404.5" y="-510" font-family="Arial" font-size="10.00">Material and social resources</text>
<text text-anchor="middle" x="404.5" y="-499" font-family="Arial" font-size="10.00">money · storage · friends · borrowing</text>
</g>
<!-- resources&#45;&gt;access -->
<g id="edge28" class="edge">
<title>resources&#45;&gt;access</title>
<path fill="none" stroke="#66717c" stroke-width="1.1" d="M473.89,-525.11C518.08,-536.73 576.88,-552.01 629,-565 649.59,-570.13 672.14,-575.58 692.36,-580.4"/>
<polygon fill="#66717c" stroke="#66717c" stroke-width="1.1" points="691.99,-582.65 698.84,-581.94 693.04,-578.22 691.99,-582.65"/>
</g>
<!-- naf_history -->
<g id="node15" class="node">
<title>naf_history</title>
<path fill="#dcf4df" stroke="#31733a" stroke-width="1.2" d="M166.5,-79C166.5,-79 52.5,-79 52.5,-79 46.5,-79 40.5,-73 40.5,-67 40.5,-67 40.5,-55 40.5,-55 40.5,-49 46.5,-43 52.5,-43 52.5,-43 166.5,-43 166.5,-43 172.5,-43 178.5,-49 178.5,-55 178.5,-55 178.5,-67 178.5,-67 178.5,-73 172.5,-79 166.5,-79"/>
<text text-anchor="middle" x="109.5" y="-64" font-family="Arial" font-size="10.00">NAF race history</text>
<text text-anchor="middle" x="109.5" y="-53" font-family="Arial" font-size="10.00">games · recency · last race</text>
</g>
<!-- repertoire -->
<g id="node17" class="node">
<title>repertoire</title>
<path fill="#dcf4df" stroke="#31733a" stroke-width="1.2" d="M457,-79C457,-79 352,-79 352,-79 346,-79 340,-73 340,-67 340,-67 340,-55 340,-55 340,-49 346,-43 352,-43 352,-43 457,-43 457,-43 463,-43 469,-49 469,-55 469,-55 469,-67 469,-67 469,-73 463,-79 457,-79"/>
<text text-anchor="middle" x="404.5" y="-64" font-family="Arial" font-size="10.00">Derived breadth · entropy</text>
<text text-anchor="middle" x="404.5" y="-53" font-family="Arial" font-size="10.00">switching rate</text>
</g>
<!-- naf_history&#45;&gt;repertoire -->
<g id="edge31" class="edge">
<title>naf_history&#45;&gt;repertoire</title>
<path fill="none" stroke="#66717c" stroke-width="1.1" d="M178.83,-61C225.18,-61 286.29,-61 333.08,-61"/>
<polygon fill="#66717c" stroke="#66717c" stroke-width="1.1" points="333.09,-63.28 339.59,-61 333.09,-58.73 333.09,-63.28"/>
</g>
<!-- rating -->
<g id="node18" class="node">
<title>rating</title>
<path fill="#dcf4df" stroke="#31733a" stroke-width="1.2" d="M1267.5,-65C1267.5,-65 1203.5,-65 1203.5,-65 1197.5,-65 1191.5,-59 1191.5,-53 1191.5,-53 1191.5,-41 1191.5,-41 1191.5,-35 1197.5,-29 1203.5,-29 1203.5,-29 1267.5,-29 1267.5,-29 1273.5,-29 1279.5,-35 1279.5,-41 1279.5,-41 1279.5,-53 1279.5,-53 1279.5,-59 1273.5,-65 1267.5,-65"/>
<text text-anchor="middle" x="1235.5" y="-50" font-family="Arial" font-size="10.00">Elo / Glicko&#45;like</text>
<text text-anchor="middle" x="1235.5" y="-39" font-family="Arial" font-size="10.00">summary</text>
</g>
<!-- naf_history&#45;&gt;rating -->
<g id="edge34" class="edge">
<title>naf_history&#45;&gt;rating</title>
<path fill="none" stroke="#66717c" stroke-width="1.1" d="M178.67,-44.62C201.26,-39.65 226.61,-34.57 250,-31 317.72,-20.67 334.99,-17 403.5,-17 403.5,-17 403.5,-17 1039,-17 1088.99,-17 1145.34,-26.7 1184.66,-35.07"/>
<polygon fill="#66717c" stroke="#66717c" stroke-width="1.1" points="1184.47,-37.36 1191.31,-36.51 1185.44,-32.91 1184.47,-37.36"/>
</g>
<!-- total_experience -->
<g id="node21" class="node">
<title>total_experience</title>
<path fill="#dcecff" stroke="#2867a3" stroke-width="1.2" d="M792.5,-552C792.5,-552 718.5,-552 718.5,-552 712.5,-552 706.5,-546 706.5,-540 706.5,-540 706.5,-528 706.5,-528 706.5,-522 712.5,-516 718.5,-516 718.5,-516 792.5,-516 792.5,-516 798.5,-516 804.5,-522 804.5,-528 804.5,-528 804.5,-540 804.5,-540 804.5,-546 798.5,-552 792.5,-552"/>
<text text-anchor="middle" x="755.5" y="-537" font-family="Arial" font-size="10.00">Total race&#45;specific</text>
<text text-anchor="middle" x="755.5" y="-526" font-family="Arial" font-size="10.00">experience</text>
</g>
<!-- naf_history&#45;&gt;total_experience -->
<g id="edge29" class="edge">
<title>naf_history&#45;&gt;total_experience</title>
<path fill="none" stroke="#66717c" stroke-width="1.1" stroke-dasharray="5,2" d="M112.03,-79.24C119.81,-166.4 158.12,-538.59 250,-596 366.47,-668.77 424.64,-624.42 559,-596 592.29,-588.96 596.81,-576.01 629,-565 651.81,-557.2 677.57,-550.49 699.79,-545.33"/>
<polygon fill="#66717c" stroke="#66717c" stroke-width="1.1" points="700.43,-547.51 706.26,-543.84 699.41,-543.08 700.43,-547.51"/>
<text text-anchor="middle" x="404.5" y="-637.6" font-family="Arial" font-size="8.00" fill="#4b5560">partial proxy</text>
</g>
<!-- naf_history&#45;&gt;loyalty -->
<g id="edge30" class="edge">
<title>naf_history&#45;&gt;loyalty</title>
<path fill="none" stroke="#66717c" stroke-width="1.1" stroke-dasharray="5,2" d="M112.72,-79.2C123.13,-161.38 170.05,-496.44 250,-557 304.73,-598.46 493.91,-578.86 559,-557 595.99,-544.58 593.78,-520.8 629,-504 653.07,-492.52 681.83,-485.02 705.75,-480.27"/>
<polygon fill="#66717c" stroke="#66717c" stroke-width="1.1" points="706.4,-482.46 712.36,-479.01 705.55,-478 706.4,-482.46"/>
<text text-anchor="middle" x="404.5" y="-583.6" font-family="Arial" font-size="8.00" fill="#4b5560">evidence</text>
</g>
<!-- prior_results -->
<g id="node16" class="node">
<title>prior_results</title>
<path fill="#dcf4df" stroke="#31733a" stroke-width="1.2" d="M1057,-79C1057,-79 1019,-79 1019,-79 1013,-79 1007,-73 1007,-67 1007,-67 1007,-55 1007,-55 1007,-49 1013,-43 1019,-43 1019,-43 1057,-43 1057,-43 1063,-43 1069,-49 1069,-55 1069,-55 1069,-67 1069,-67 1069,-73 1063,-79 1057,-79"/>
<text text-anchor="middle" x="1038" y="-64" font-family="Arial" font-size="10.00">Prior NAF</text>
<text text-anchor="middle" x="1038" y="-53" font-family="Arial" font-size="10.00">results</text>
</g>
<!-- prior_results&#45;&gt;rating -->
<g id="edge33" class="edge">
<title>prior_results&#45;&gt;rating</title>
<path fill="none" stroke="#66717c" stroke-width="1.1" d="M1069.12,-58.84C1099.87,-56.64 1148.14,-53.18 1184.61,-50.57"/>
<polygon fill="#66717c" stroke="#66717c" stroke-width="1.1" points="1184.96,-52.83 1191.28,-50.1 1184.63,-48.29 1184.96,-52.83"/>
</g>
<!-- repertoire&#45;&gt;adaptation -->
<g id="edge32" class="edge">
<title>repertoire&#45;&gt;adaptation</title>
<path fill="none" stroke="#66717c" stroke-width="1.1" stroke-dasharray="5,2" d="M469.35,-78.64C497.21,-86.93 530.06,-97.52 559,-109 614.6,-131.06 676.31,-162.23 715.23,-182.76"/>
<polygon fill="#66717c" stroke="#66717c" stroke-width="1.1" points="714.47,-184.93 721.28,-185.96 716.6,-180.91 714.47,-184.93"/>
<text text-anchor="middle" x="594" y="-132.6" font-family="Arial" font-size="8.00" fill="#4b5560">evidence</text>
</g>
<!-- general_ability&#45;&gt;prior_results -->
<g id="edge35" class="edge">
<title>general_ability&#45;&gt;prior_results</title>
<path fill="none" stroke="#66717c" stroke-width="1.1" stroke-dasharray="5,2" d="M798.16,-327.84C826.45,-326.65 862.35,-319.92 883,-296 914.92,-259.03 868.01,-112.08 902,-77 926.81,-51.39 969.35,-50.44 1000.06,-53.96"/>
<polygon fill="#66717c" stroke="#66717c" stroke-width="1.1" points="1000.07,-56.25 1006.81,-54.82 1000.65,-51.74 1000.07,-56.25"/>
<text text-anchor="middle" x="930.5" y="-79.6" font-family="Arial" font-size="8.00" fill="#4b5560">leaves evidence</text>
</g>
<!-- general_ability&#45;&gt;competence -->
<g id="edge24" class="edge">
<title>general_ability&#45;&gt;competence</title>
<path fill="none" stroke="#66717c" stroke-width="1.1" d="M755.5,-344.14C755.5,-358.55 755.5,-372.95 755.5,-387.36"/>
<polygon fill="#66717c" stroke="#66717c" stroke-width="1.1" points="753.23,-387.47 755.5,-393.97 757.78,-387.47 753.23,-387.47"/>
</g>
<!-- hidden_experience&#45;&gt;total_experience -->
<g id="edge20" class="edge">
<title>hidden_experience&#45;&gt;total_experience</title>
<path fill="none" stroke="#66717c" stroke-width="1.1" d="M667.73,-267.25C639.31,-272.82 610.81,-284.65 594,-308.5 570.57,-341.74 570.57,-458.26 594,-491.5 617.19,-524.41 662.74,-534.12 699.57,-536.12"/>
<polygon fill="#66717c" stroke="#66717c" stroke-width="1.1" points="699.74,-538.4 706.34,-536.41 699.94,-533.86 699.74,-538.4"/>
</g>
<!-- total_experience&#45;&gt;style_experience -->
<g id="edge22" class="edge">
<title>total_experience&#45;&gt;style_experience</title>
<path fill="none" stroke="#66717c" stroke-width="1.1" d="M706.36,-531.95C668.53,-533.38 618.67,-542.49 594,-577.5 584.78,-590.58 584.78,-600.42 594,-613.5 617.27,-646.52 663.05,-656.19 699.94,-658.14"/>
<polygon fill="#66717c" stroke="#66717c" stroke-width="1.1" points="700.13,-660.42 706.72,-658.42 700.32,-655.88 700.13,-660.42"/>
</g>
<!-- total_experience&#45;&gt;competence -->
<g id="edge21" class="edge">
<title>total_experience&#45;&gt;competence</title>
<path fill="none" stroke="#66717c" stroke-width="1.1" d="M706.34,-536.41C668.5,-535.24 618.63,-526.46 594,-491.5 584.78,-478.42 584.78,-468.58 594,-455.5 606.35,-437.97 625.02,-426.93 645.33,-420.1"/>
<polygon fill="#66717c" stroke="#66717c" stroke-width="1.1" points="646.16,-422.23 651.69,-418.12 644.8,-417.89 646.16,-422.23"/>
</g>
<!-- style_experience&#45;&gt;competence -->
<g id="edge23" class="edge">
<title>style_experience&#45;&gt;competence</title>
<path fill="none" stroke="#66717c" stroke-width="1.1" d="M706.72,-658.42C668.83,-657.3 618.72,-648.57 594,-613.5 553.55,-556.1 553.55,-512.9 594,-455.5 606.35,-437.97 625.02,-426.93 645.33,-420.1"/>
<polygon fill="#66717c" stroke="#66717c" stroke-width="1.1" points="646.16,-422.23 651.69,-418.12 644.8,-417.89 646.16,-422.23"/>
</g>
<!-- competence&#45;&gt;prior_results -->
<g id="edge36" class="edge">
<title>competence&#45;&gt;prior_results</title>
<path fill="none" stroke="#66717c" stroke-width="1.1" stroke-dasharray="5,2" d="M833.22,-393.87C852.36,-385.7 870.86,-373.93 883,-357 912.38,-316.05 874.04,-172.93 902,-131 913.87,-113.2 964.85,-89.87 1000.64,-75.15"/>
<polygon fill="#66717c" stroke="#66717c" stroke-width="1.1" points="1001.53,-77.25 1006.69,-72.69 999.81,-73.03 1001.53,-77.25"/>
<text text-anchor="middle" x="930.5" y="-133.6" font-family="Arial" font-size="8.00" fill="#4b5560">leaves evidence</text>
</g>
<!-- competence&#45;&gt;choice -->
<g id="edge41" class="edge">
<title>competence&#45;&gt;choice</title>
<path fill="none" stroke="#004f87" stroke-width="2.5" d="M859.26,-426.34C868.03,-430.64 876.15,-436.1 883,-443 908.75,-468.93 885.36,-490.46 902,-523 919.65,-557.51 942.43,-553.96 959,-589 980.21,-633.85 948.54,-659.08 978,-699 982.23,-704.73 987.87,-709.45 994,-713.31"/>
<polygon fill="#004f87" stroke="#004f87" stroke-width="2.5" points="992.96,-715.33 999.73,-716.61 995.23,-711.39 992.96,-715.33"/>
</g>
<!-- competence&#45;&gt;performance -->
<g id="edge44" class="edge">
<title>competence&#45;&gt;performance</title>
<path fill="none" stroke="#004f87" stroke-width="2.5" d="M858.79,-430.01C867.34,-433.58 875.55,-437.87 883,-443 946.14,-486.5 936.65,-522.43 978,-587 990.7,-606.83 1006.47,-628.34 1018.51,-644.21"/>
<polygon fill="#004f87" stroke="#004f87" stroke-width="2.5" points="1017.01,-646 1022.76,-649.78 1020.63,-643.24 1017.01,-646"/>
</g>
<!-- access&#45;&gt;choice -->
<g id="edge37" class="edge">
<title>access&#45;&gt;choice</title>
<path fill="none" stroke="#66717c" stroke-width="1.1" d="M812.19,-595.48C837.15,-598.65 864.97,-606.8 883,-626 915.76,-660.89 865.29,-701.29 902,-732 926.82,-752.77 964.13,-750.26 993.25,-743.55"/>
<polygon fill="#66717c" stroke="#66717c" stroke-width="1.1" points="993.93,-745.72 999.7,-741.96 992.85,-741.3 993.93,-745.72"/>
</g>
<!-- loyalty&#45;&gt;choice -->
<g id="edge38" class="edge">
<title>loyalty&#45;&gt;choice</title>
<path fill="none" stroke="#66717c" stroke-width="1.1" d="M798.77,-472.47C826.41,-474.45 861.3,-481.74 883,-504 910.63,-532.34 886.07,-554.77 902,-591 925.62,-644.73 933.64,-660.56 978,-699 982.89,-703.23 988.47,-707.05 994.22,-710.44"/>
<polygon fill="#66717c" stroke="#66717c" stroke-width="1.1" points="993.21,-712.48 999.99,-713.68 995.44,-708.52 993.21,-712.48"/>
</g>
<!-- adaptation&#45;&gt;choice -->
<g id="edge39" class="edge">
<title>adaptation&#45;&gt;choice</title>
<path fill="none" stroke="#66717c" stroke-width="1.1" d="M829.81,-207.21C849.6,-211.65 869.3,-219.95 883,-235 902.5,-256.43 894.79,-335.94 902,-364 920.05,-434.28 942.43,-446.35 959,-517 968.28,-556.59 954.97,-665.49 978,-699 982.14,-705.02 987.85,-709.9 994.11,-713.83"/>
<polygon fill="#66717c" stroke="#66717c" stroke-width="1.1" points="993.21,-715.94 999.99,-717.18 995.47,-711.98 993.21,-715.94"/>
</g>
<!-- choice&#45;&gt;build -->
<g id="edge42" class="edge">
<title>choice&#45;&gt;build</title>
<path fill="none" stroke="#66717c" stroke-width="1.1" d="M1038,-747.14C1038,-761.55 1038,-775.95 1038,-790.36"/>
<polygon fill="#66717c" stroke="#66717c" stroke-width="1.1" points="1035.73,-790.47 1038,-796.97 1040.28,-790.47 1035.73,-790.47"/>
</g>
<!-- future -->
<g id="node32" class="node">
<title>future</title>
<path fill="#eeeeee" stroke="#666666" stroke-width="1.5" d="M1314,-854.5C1314,-854.5 1157,-854.5 1157,-854.5 1151,-854.5 1145,-848.5 1145,-842.5 1145,-842.5 1145,-821.5 1145,-821.5 1145,-815.5 1151,-809.5 1157,-809.5 1157,-809.5 1314,-809.5 1314,-809.5 1320,-809.5 1326,-815.5 1326,-821.5 1326,-821.5 1326,-842.5 1326,-842.5 1326,-848.5 1320,-854.5 1314,-854.5"/>
<text text-anchor="middle" x="1235.5" y="-840.5" font-family="Arial" font-size="10.00">LATER EVENTS</text>
<text text-anchor="middle" x="1235.5" y="-829.5" font-family="Arial" font-size="10.00">updated experience · access · loyalty</text>
<text text-anchor="middle" x="1235.5" y="-818.5" font-family="Arial" font-size="10.00">beliefs and ability</text>
</g>
<!-- choice&#45;&gt;future -->
<g id="edge47" class="edge">
<title>choice&#45;&gt;future</title>
<path fill="none" stroke="#66717c" stroke-width="1.1" d="M1073.5,-747.18C1104.59,-763.56 1150.63,-787.81 1185.53,-806.2"/>
<polygon fill="#66717c" stroke="#66717c" stroke-width="1.1" points="1184.65,-808.31 1191.46,-809.33 1186.77,-804.28 1184.65,-808.31"/>
</g>
<!-- build&#45;&gt;performance -->
<g id="edge43" class="edge">
<title>build&#45;&gt;performance</title>
<path fill="none" stroke="#66717c" stroke-width="1.1" d="M995.31,-797.28C956.02,-778.3 907.11,-746.19 930.5,-711.5 944.59,-690.59 970.62,-679.73 993.54,-674.09"/>
<polygon fill="#66717c" stroke="#66717c" stroke-width="1.1" points="994.08,-676.3 999.9,-672.63 993.06,-671.87 994.08,-676.3"/>
</g>
<!-- pairing&#45;&gt;performance -->
<g id="edge45" class="edge">
<title>pairing&#45;&gt;performance</title>
<path fill="none" stroke="#66717c" stroke-width="1.1" d="M988.74,-869.12C967.09,-863.37 943.65,-852.83 930.5,-833.5 900.01,-788.66 900.19,-756.46 930.5,-711.5 944.59,-690.59 970.62,-679.73 993.54,-674.09"/>
<polygon fill="#66717c" stroke="#66717c" stroke-width="1.1" points="994.08,-676.3 999.9,-672.63 993.06,-671.87 994.08,-676.3"/>
</g>
<!-- outcome -->
<g id="node31" class="node">
<title>outcome</title>
<path fill="#ffe0e6" stroke="#9d3850" stroke-width="1.2" d="M1078,-955C1078,-955 998,-955 998,-955 992,-955 986,-949 986,-943 986,-943 986,-931 986,-931 986,-925 992,-919 998,-919 998,-919 1078,-919 1078,-919 1084,-919 1090,-925 1090,-931 1090,-931 1090,-943 1090,-943 1090,-949 1084,-955 1078,-955"/>
<text text-anchor="middle" x="1038" y="-940" font-family="Arial" font-size="10.00">Observed W / D / L</text>
<text text-anchor="middle" x="1038" y="-929" font-family="Arial" font-size="10.00">optional TD / CAS</text>
</g>
<!-- performance&#45;&gt;outcome -->
<g id="edge46" class="edge">
<title>performance&#45;&gt;outcome</title>
<path fill="none" stroke="#66717c" stroke-width="1.1" d="M999.9,-672.63C975.62,-677.78 945.92,-688.63 930.5,-711.5 885.04,-778.94 884.77,-827.24 930.5,-894.5 941.8,-911.12 960.72,-921.25 979.56,-927.41"/>
<polygon fill="#66717c" stroke="#66717c" stroke-width="1.1" points="979.06,-929.63 985.94,-929.35 980.39,-925.28 979.06,-929.63"/>
</g>
<!-- outcome&#45;&gt;future -->
<g id="edge48" class="edge">
<title>outcome&#45;&gt;future</title>
<path fill="none" stroke="#66717c" stroke-width="1.1" d="M1074.98,-918.94C1082.6,-915.05 1090.58,-910.92 1098,-907 1128.22,-891.02 1161.89,-872.53 1188.22,-857.91"/>
<polygon fill="#66717c" stroke="#66717c" stroke-width="1.1" points="1189.49,-859.8 1194.07,-854.66 1187.28,-855.83 1189.49,-859.8"/>
</g>
<!-- future&#45;&gt;naf_history -->
<g id="edge49" class="edge">
<title>future&#45;&gt;naf_history</title>
<path fill="none" stroke="#66717c" stroke-width="1.1" stroke-dasharray="5,2" d="M1218.81,-809.26C1183.72,-758.42 1101.67,-639.7 1098,-636 1051.97,-589.6 1010.89,-607.48 978,-551 956.76,-514.52 968.73,-403.08 959,-362 937.19,-269.87 949.2,-230.68 883,-163 682.04,42.44 535.77,-0.62 250,-31 228.68,-33.27 205.83,-37.43 184.93,-41.95"/>
<polygon fill="#66717c" stroke="#66717c" stroke-width="1.1" points="184.36,-39.74 178.5,-43.36 185.34,-44.19 184.36,-39.74"/>
<text text-anchor="middle" x="755.5" y="-165.6" font-family="Arial" font-size="8.00" fill="#4b5560">next event</text>
</g>
<!-- future&#45;&gt;total_experience -->
<g id="edge51" class="edge">
<title>future&#45;&gt;total_experience</title>
<path fill="none" stroke="#66717c" stroke-width="1.1" stroke-dasharray="5,2" d="M1225.73,-809.39C1208.13,-767.04 1164.41,-675.63 1098,-627 1011.31,-563.52 883.72,-543.37 811.55,-536.97"/>
<polygon fill="#66717c" stroke="#66717c" stroke-width="1.1" points="811.41,-534.68 804.74,-536.4 811.02,-539.21 811.41,-534.68"/>
<text text-anchor="middle" x="1038" y="-629.6" font-family="Arial" font-size="8.00" fill="#4b5560">next event</text>
</g>
<!-- future&#45;&gt;loyalty -->
<g id="edge50" class="edge">
<title>future&#45;&gt;loyalty</title>
<path fill="none" stroke="#66717c" stroke-width="1.1" stroke-dasharray="5,2" d="M1230.17,-809.15C1218.8,-755.67 1182.89,-621.75 1098,-554 1011.96,-485.32 877.27,-473.24 805.45,-472.07"/>
<polygon fill="#66717c" stroke="#66717c" stroke-width="1.1" points="805.23,-469.8 798.7,-471.99 805.18,-474.35 805.23,-469.8"/>
<text text-anchor="middle" x="1038" y="-556.6" font-family="Arial" font-size="8.00" fill="#4b5560">next event</text>
</g>
</g>
</svg>
